<mxfile host="app.diagrams.net" modified="2023-04-06T13:22:53.196Z" agent="5.0 (Macintosh; Intel Mac OS X 10_15_7) AppleWebKit/537.36 (KHTML, like Gecko) Chrome/111.0.0.0 Safari/537.36" etag="egOygdd4vnBW2icFhfjQ" version="21.0.8" type="github">
  <diagram name="第 1 页" id="viiylJkmsA-KhvIDVjXw">
    <mxGraphModel dx="2385" dy="2983" grid="1" gridSize="10" guides="1" tooltips="1" connect="1" arrows="1" fold="1" page="1" pageScale="1" pageWidth="1200" pageHeight="1600" background="#ffffff" math="0" shadow="0">
      <root>
        <mxCell id="0" />
        <mxCell id="1" parent="0" />
        <UserObject label="" plantUmlData="{&#xa;  &quot;data&quot;: &quot;@startuml\n|用户|\nstart\n:登录;\n|系统|\nif (角色判断) then (管理员)\n:指标管理;\nelse (普通用户)\n:个人信息;\nendif\n:指标量化;\nif (自动化评价) then (是)\n:智能算法支撑;\nelse (否)\n:人工评价;\nendif\n:领域得分;\nif (指标优化) then (是)\n:优化建议;\nelse (否)\nendif\n:灯塔电厂综合指数得分;\nif (不良指标) then (是)\n:告警信息;\nelse (否)\nendif\nif (图表分析) then (是)\n:图表分析;\nelse (否)\nendif\nif (指标时间曲线) then (是)\n:时间曲线;\nelse (否)\nendif\n|用户|\n:退出;\nend\n@enduml\n&quot;,&#xa;  &quot;format&quot;: &quot;svg&quot;&#xa;}" id="lj0ikvdqPGdOUn9qGZUp-4">
          <mxCell style="shape=image;noLabel=1;verticalAlign=top;aspect=fixed;imageAspect=0;image=data:image/svg+xml,PD94bWwgdmVyc2lvbj0iMS4wIiBlbmNvZGluZz0idXMtYXNjaWkiIHN0YW5kYWxvbmU9Im5vIj8+PHN2ZyB4bWxucz0iaHR0cDovL3d3dy53My5vcmcvMjAwMC9zdmciIHhtbG5zOnhsaW5rPSJodHRwOi8vd3d3LnczLm9yZy8xOTk5L3hsaW5rIiBjb250ZW50U3R5bGVUeXBlPSJ0ZXh0L2NzcyIgaGVpZ2h0PSIxMTg0cHgiIHByZXNlcnZlQXNwZWN0UmF0aW89Im5vbmUiIHN0eWxlPSJ3aWR0aDoyODBweDtoZWlnaHQ6MTE4NHB4O2JhY2tncm91bmQ6I0ZGRkZGRjsiIHZlcnNpb249IjEuMSIgdmlld0JveD0iMCAwIDI4MCAxMTg0IiB3aWR0aD0iMjgwcHgiIHpvb21BbmRQYW49Im1hZ25pZnkiPjxkZWZzLz48Zz48cmVjdCBmaWxsPSJub25lIiBoZWlnaHQ9IjE5LjI2NTYiIHN0eWxlPSJzdHJva2U6bm9uZTtzdHJva2Utd2lkdGg6MS4wOyIgd2lkdGg9IjI0Ny41IiB4PSIxNSIgeT0iMTEiLz48ZWxsaXBzZSBjeD0iNDMiIGN5PSI0NS4yNjU2IiBmaWxsPSIjMjIyMjIyIiByeD0iMTAiIHJ5PSIxMCIgc3R5bGU9InN0cm9rZTojMjIyMjIyO3N0cm9rZS13aWR0aDoxLjA7Ii8+PHJlY3QgZmlsbD0iI0YxRjFGMSIgaGVpZ2h0PSIzMi44NDM4IiByeD0iMTIuNSIgcnk9IjEyLjUiIHN0eWxlPSJzdHJva2U6IzE4MTgxODtzdHJva2Utd2lkdGg6MC41OyIgd2lkdGg9IjQ0IiB4PSIyMSIgeT0iNzUuMjY1NiIvPjx0ZXh0IGZpbGw9IiMwMDAwMDAiIGZvbnQtZmFtaWx5PSJzYW5zLXNlcmlmIiBmb250LXNpemU9IjEyIiBsZW5ndGhBZGp1c3Q9InNwYWNpbmciIHRleHRMZW5ndGg9IjI0IiB4PSIzMSIgeT0iOTYuNjA5NCI+JiMzMDMzMTsmIzI0NDA1OzwvdGV4dD48cmVjdCBmaWxsPSIjRjFGMUYxIiBoZWlnaHQ9IjMyLjg0MzgiIHJ4PSIxMi41IiByeT0iMTIuNSIgc3R5bGU9InN0cm9rZTojMTgxODE4O3N0cm9rZS13aWR0aDowLjU7IiB3aWR0aD0iNDQiIHg9IjIxIiB5PSIxMDk5LjcwMzEiLz48dGV4dCBmaWxsPSIjMDAwMDAwIiBmb250LWZhbWlseT0ic2Fucy1zZXJpZiIgZm9udC1zaXplPSIxMiIgbGVuZ3RoQWRqdXN0PSJzcGFjaW5nIiB0ZXh0TGVuZ3RoPSIyNCIgeD0iMzEiIHk9IjExMjEuMDQ2OSI+JiMzNjg2NDsmIzIwOTg2OzwvdGV4dD48ZWxsaXBzZSBjeD0iNDMiIGN5PSIxMTYyLjU0NjkiIGZpbGw9Im5vbmUiIHJ4PSIxMCIgcnk9IjEwIiBzdHlsZT0ic3Ryb2tlOiMyMjIyMjI7c3Ryb2tlLXdpZHRoOjEuNTsiLz48bGluZSBzdHlsZT0ic3Ryb2tlOiMyMjIyMjI7c3Ryb2tlLXdpZHRoOjIuNTsiIHgxPSIzNi44MTI4IiB4Mj0iNDkuMTg3MiIgeTE9IjExNTYuMzU5NyIgeTI9IjExNjguNzM0MSIvPjxsaW5lIHN0eWxlPSJzdHJva2U6IzIyMjIyMjtzdHJva2Utd2lkdGg6Mi41OyIgeDE9IjQ5LjE4NzIiIHgyPSIzNi44MTI4IiB5MT0iMTE1Ni4zNTk3IiB5Mj0iMTE2OC43MzQxIi8+PGxpbmUgc3R5bGU9InN0cm9rZTojMDAwMDAwO3N0cm9rZS13aWR0aDoxLjU7IiB4MT0iMTUiIHgyPSIxNSIgeTE9IjExIiB5Mj0iMTE3Mi41NDY5Ii8+PHBvbHlnb24gZmlsbD0iI0YxRjFGMSIgcG9pbnRzPSIxNDksMTI4LjEwOTQsMTkzLDEyOC4xMDk0LDIwNSwxNDAuMTA5NCwxOTMsMTUyLjEwOTQsMTQ5LDE1Mi4xMDk0LDEzNywxNDAuMTA5NCwxNDksMTI4LjEwOTQiIHN0eWxlPSJzdHJva2U6IzE4MTgxODtzdHJva2Utd2lkdGg6MC41OyIvPjx0ZXh0IGZpbGw9IiMwMDAwMDAiIGZvbnQtZmFtaWx5PSJzYW5zLXNlcmlmIiBmb250LXNpemU9IjExIiBsZW5ndGhBZGp1c3Q9InNwYWNpbmciIHRleHRMZW5ndGg9IjQ0IiB4PSIxNDkiIHk9IjE0NC42MjExIj4mIzM1MjgyOyYjMzMzOTQ7JiMyMTAyODsmIzI2MDI5OzwvdGV4dD48dGV4dCBmaWxsPSIjMDAwMDAwIiBmb250LWZhbWlseT0ic2Fucy1zZXJpZiIgZm9udC1zaXplPSIxMSIgbGVuZ3RoQWRqdXN0PSJzcGFjaW5nIiB0ZXh0TGVuZ3RoPSIzMyIgeD0iMTA0IiB5PSIxMzguNzM0NCI+JiMzMTY0OTsmIzI5NzAyOyYjMjE1OTI7PC90ZXh0Pjx0ZXh0IGZpbGw9IiMwMDAwMDAiIGZvbnQtZmFtaWx5PSJzYW5zLXNlcmlmIiBmb250LXNpemU9IjExIiBsZW5ndGhBZGp1c3Q9InNwYWNpbmciIHRleHRMZW5ndGg9IjQ0IiB4PSIyMDUiIHk9IjEzOC43MzQ0Ij4mIzI2MjIyOyYjMzY4OTA7JiMyOTk5MjsmIzI1MTQzOzwvdGV4dD48cmVjdCBmaWxsPSIjRjFGMUYxIiBoZWlnaHQ9IjMyLjg0MzgiIHJ4PSIxMi41IiByeT0iMTIuNSIgc3R5bGU9InN0cm9rZTojMTgxODE4O3N0cm9rZS13aWR0aDowLjU7IiB3aWR0aD0iNjgiIHg9IjkzIiB5PSIxNjIuMTA5NCIvPjx0ZXh0IGZpbGw9IiMwMDAwMDAiIGZvbnQtZmFtaWx5PSJzYW5zLXNlcmlmIiBmb250LXNpemU9IjEyIiBsZW5ndGhBZGp1c3Q9InNwYWNpbmciIHRleHRMZW5ndGg9IjQ4IiB4PSIxMDMiIHk9IjE4My40NTMxIj4mIzI1MzUxOyYjMjY2MzE7JiMzMTY0OTsmIzI5NzAyOzwvdGV4dD48cmVjdCBmaWxsPSIjRjFGMUYxIiBoZWlnaHQ9IjMyLjg0MzgiIHJ4PSIxMi41IiByeT0iMTIuNSIgc3R5bGU9InN0cm9rZTojMTgxODE4O3N0cm9rZS13aWR0aDowLjU7IiB3aWR0aD0iNjgiIHg9IjE4MSIgeT0iMTYyLjEwOTQiLz48dGV4dCBmaWxsPSIjMDAwMDAwIiBmb250LWZhbWlseT0ic2Fucy1zZXJpZiIgZm9udC1zaXplPSIxMiIgbGVuZ3RoQWRqdXN0PSJzcGFjaW5nIiB0ZXh0TGVuZ3RoPSI0OCIgeD0iMTkxIiB5PSIxODMuNDUzMSI+JiMyMDAxMDsmIzIwMTU0OyYjMjA0NDk7JiMyNDY4Nzs8L3RleHQ+PHBvbHlnb24gZmlsbD0iI0YxRjFGMSIgcG9pbnRzPSIxNzEsMjAwLjk1MzEsMTgzLDIxMi45NTMxLDE3MSwyMjQuOTUzMSwxNTksMjEyLjk1MzEsMTcxLDIwMC45NTMxIiBzdHlsZT0ic3Ryb2tlOiMxODE4MTg7c3Ryb2tlLXdpZHRoOjAuNTsiLz48cmVjdCBmaWxsPSIjRjFGMUYxIiBoZWlnaHQ9IjMyLjg0MzgiIHJ4PSIxMi41IiByeT0iMTIuNSIgc3R5bGU9InN0cm9rZTojMTgxODE4O3N0cm9rZS13aWR0aDowLjU7IiB3aWR0aD0iNjgiIHg9IjEzNyIgeT0iMjQ0Ljk1MzEiLz48dGV4dCBmaWxsPSIjMDAwMDAwIiBmb250LWZhbWlseT0ic2Fucy1zZXJpZiIgZm9udC1zaXplPSIxMiIgbGVuZ3RoQWRqdXN0PSJzcGFjaW5nIiB0ZXh0TGVuZ3RoPSI0OCIgeD0iMTQ3IiB5PSIyNjYuMjk2OSI+JiMyNTM1MTsmIzI2NjMxOyYjMzczMjc7JiMyMTI3MDs8L3RleHQ+PHBvbHlnb24gZmlsbD0iI0YxRjFGMSIgcG9pbnRzPSIxNDMuNSwyOTcuNzk2OSwxOTguNSwyOTcuNzk2OSwyMTAuNSwzMDkuNzk2OSwxOTguNSwzMjEuNzk2OSwxNDMuNSwzMjEuNzk2OSwxMzEuNSwzMDkuNzk2OSwxNDMuNSwyOTcuNzk2OSIgc3R5bGU9InN0cm9rZTojMTgxODE4O3N0cm9rZS13aWR0aDowLjU7Ii8+PHRleHQgZmlsbD0iIzAwMDAwMCIgZm9udC1mYW1pbHk9InNhbnMtc2VyaWYiIGZvbnQtc2l6ZT0iMTEiIGxlbmd0aEFkanVzdD0ic3BhY2luZyIgdGV4dExlbmd0aD0iNTUiIHg9IjE0My41IiB5PSIzMTQuMzA4NiI+JiMzMzI1ODsmIzIxMTYwOyYjMjEyNzA7JiMzNTc4MDsmIzIwMjE1OzwvdGV4dD48dGV4dCBmaWxsPSIjMDAwMDAwIiBmb250LWZhbWlseT0ic2Fucy1zZXJpZiIgZm9udC1zaXplPSIxMSIgbGVuZ3RoQWRqdXN0PSJzcGFjaW5nIiB0ZXh0TGVuZ3RoPSIxMSIgeD0iMTIwLjUiIHk9IjMwOC40MjE5Ij4mIzI2MTU5OzwvdGV4dD48dGV4dCBmaWxsPSIjMDAwMDAwIiBmb250LWZhbWlseT0ic2Fucy1zZXJpZiIgZm9udC1zaXplPSIxMSIgbGVuZ3RoQWRqdXN0PSJzcGFjaW5nIiB0ZXh0TGVuZ3RoPSIxMSIgeD0iMjEwLjUiIHk9IjMwOC40MjE5Ij4mIzIxNTQyOzwvdGV4dD48cmVjdCBmaWxsPSIjRjFGMUYxIiBoZWlnaHQ9IjMyLjg0MzgiIHJ4PSIxMi41IiByeT0iMTIuNSIgc3R5bGU9InN0cm9rZTojMTgxODE4O3N0cm9rZS13aWR0aDowLjU7IiB3aWR0aD0iOTIiIHg9Ijc1IiB5PSIzMzEuNzk2OSIvPjx0ZXh0IGZpbGw9IiMwMDAwMDAiIGZvbnQtZmFtaWx5PSJzYW5zLXNlcmlmIiBmb250LXNpemU9IjEyIiBsZW5ndGhBZGp1c3Q9InNwYWNpbmciIHRleHRMZW5ndGg9IjcyIiB4PSI4NSIgeT0iMzUzLjE0MDYiPiYjMjYyMzQ7JiMzMzAyMTsmIzMxNjM5OyYjMjc4NjE7JiMyNTkwMzsmIzI1NzQ1OzwvdGV4dD48cmVjdCBmaWxsPSIjRjFGMUYxIiBoZWlnaHQ9IjMyLjg0MzgiIHJ4PSIxMi41IiByeT0iMTIuNSIgc3R5bGU9InN0cm9rZTojMTgxODE4O3N0cm9rZS13aWR0aDowLjU7IiB3aWR0aD0iNjgiIHg9IjE4NyIgeT0iMzMxLjc5NjkiLz48dGV4dCBmaWxsPSIjMDAwMDAwIiBmb250LWZhbWlseT0ic2Fucy1zZXJpZiIgZm9udC1zaXplPSIxMiIgbGVuZ3RoQWRqdXN0PSJzcGFjaW5nIiB0ZXh0TGVuZ3RoPSI0OCIgeD0iMTk3IiB5PSIzNTMuMTQwNiI+JiMyMDE1NDsmIzI0MDM3OyYjMzU3ODA7JiMyMDIxNTs8L3RleHQ+PHBvbHlnb24gZmlsbD0iI0YxRjFGMSIgcG9pbnRzPSIxNzEsMzcwLjY0MDYsMTgzLDM4Mi42NDA2LDE3MSwzOTQuNjQwNiwxNTksMzgyLjY0MDYsMTcxLDM3MC42NDA2IiBzdHlsZT0ic3Ryb2tlOiMxODE4MTg7c3Ryb2tlLXdpZHRoOjAuNTsiLz48cmVjdCBmaWxsPSIjRjFGMUYxIiBoZWlnaHQ9IjMyLjg0MzgiIHJ4PSIxMi41IiByeT0iMTIuNSIgc3R5bGU9InN0cm9rZTojMTgxODE4O3N0cm9rZS13aWR0aDowLjU7IiB3aWR0aD0iNjgiIHg9IjEzNyIgeT0iNDE0LjY0MDYiLz48dGV4dCBmaWxsPSIjMDAwMDAwIiBmb250LWZhbWlseT0ic2Fucy1zZXJpZiIgZm9udC1zaXplPSIxMiIgbGVuZ3RoQWRqdXN0PSJzcGFjaW5nIiB0ZXh0TGVuZ3RoPSI0OCIgeD0iMTQ3IiB5PSI0MzUuOTg0NCI+JiMzOTA0NjsmIzIyNDk1OyYjMjQ0NzE7JiMyMDk5ODs8L3RleHQ+PHJlY3QgZmlsbD0iI0YxRjFGMSIgaGVpZ2h0PSIzMi44NDM4IiByeD0iMTIuNSIgcnk9IjEyLjUiIHN0eWxlPSJzdHJva2U6IzE4MTgxODtzdHJva2Utd2lkdGg6MC41OyIgd2lkdGg9IjY4IiB4PSIxMzciIHk9IjUxNS40ODQ0Ii8+PHRleHQgZmlsbD0iIzAwMDAwMCIgZm9udC1mYW1pbHk9InNhbnMtc2VyaWYiIGZvbnQtc2l6ZT0iMTIiIGxlbmd0aEFkanVzdD0ic3BhY2luZyIgdGV4dExlbmd0aD0iNDgiIHg9IjE0NyIgeT0iNTM2LjgyODEiPiYjMjAyNDg7JiMyMTI3MDsmIzI0MzE0OyYjMzU3NTg7PC90ZXh0Pjxwb2x5Z29uIGZpbGw9IiNGMUYxRjEiIHBvaW50cz0iMTQ5LDQ2Ny40ODQ0LDE5Myw0NjcuNDg0NCwyMDUsNDc5LjQ4NDQsMTkzLDQ5MS40ODQ0LDE0OSw0OTEuNDg0NCwxMzcsNDc5LjQ4NDQsMTQ5LDQ2Ny40ODQ0IiBzdHlsZT0ic3Ryb2tlOiMxODE4MTg7c3Ryb2tlLXdpZHRoOjAuNTsiLz48dGV4dCBmaWxsPSIjMDAwMDAwIiBmb250LWZhbWlseT0ic2Fucy1zZXJpZiIgZm9udC1zaXplPSIxMSIgbGVuZ3RoQWRqdXN0PSJzcGFjaW5nIiB0ZXh0TGVuZ3RoPSIxMSIgeD0iMTc1IiB5PSI1MDEuODgyOCI+JiMyNjE1OTs8L3RleHQ+PHRleHQgZmlsbD0iIzAwMDAwMCIgZm9udC1mYW1pbHk9InNhbnMtc2VyaWYiIGZvbnQtc2l6ZT0iMTEiIGxlbmd0aEFkanVzdD0ic3BhY2luZyIgdGV4dExlbmd0aD0iNDQiIHg9IjE0OSIgeT0iNDgzLjk5NjEiPiYjMjUzNTE7JiMyNjYzMTsmIzIwMjQ4OyYjMjEyNzA7PC90ZXh0Pjx0ZXh0IGZpbGw9IiMwMDAwMDAiIGZvbnQtZmFtaWx5PSJzYW5zLXNlcmlmIiBmb250LXNpemU9IjExIiBsZW5ndGhBZGp1c3Q9InNwYWNpbmciIHRleHRMZW5ndGg9IjExIiB4PSIyMDUiIHk9IjQ3OC4xMDk0Ij4mIzIxNTQyOzwvdGV4dD48cG9seWdvbiBmaWxsPSIjRjFGMUYxIiBwb2ludHM9IjE3MSw1NjguMzI4MSwxODMsNTgwLjMyODEsMTcxLDU5Mi4zMjgxLDE1OSw1ODAuMzI4MSwxNzEsNTY4LjMyODEiIHN0eWxlPSJzdHJva2U6IzE4MTgxODtzdHJva2Utd2lkdGg6MC41OyIvPjxyZWN0IGZpbGw9IiNGMUYxRjEiIGhlaWdodD0iMzIuODQzOCIgcng9IjEyLjUiIHJ5PSIxMi41IiBzdHlsZT0ic3Ryb2tlOiMxODE4MTg7c3Ryb2tlLXdpZHRoOjAuNTsiIHdpZHRoPSIxNDAiIHg9IjEwMSIgeT0iNjEyLjMyODEiLz48dGV4dCBmaWxsPSIjMDAwMDAwIiBmb250LWZhbWlseT0ic2Fucy1zZXJpZiIgZm9udC1zaXplPSIxMiIgbGVuZ3RoQWRqdXN0PSJzcGFjaW5nIiB0ZXh0TGVuZ3RoPSIxMjAiIHg9IjExMSIgeT0iNjMzLjY3MTkiPiYjMjg3ODM7JiMyMjYxMjsmIzMwMDA1OyYjMjEzNzg7JiMzMjUwODsmIzIxNTEyOyYjMjUzNTE7JiMyNTk2ODsmIzI0NDcxOyYjMjA5OTg7PC90ZXh0PjxyZWN0IGZpbGw9IiNGMUYxRjEiIGhlaWdodD0iMzIuODQzOCIgcng9IjEyLjUiIHJ5PSIxMi41IiBzdHlsZT0ic3Ryb2tlOiMxODE4MTg7c3Ryb2tlLXdpZHRoOjAuNTsiIHdpZHRoPSI2OCIgeD0iMTM3IiB5PSI3MTMuMTcxOSIvPjx0ZXh0IGZpbGw9IiMwMDAwMDAiIGZvbnQtZmFtaWx5PSJzYW5zLXNlcmlmIiBmb250LXNpemU9IjEyIiBsZW5ndGhBZGp1c3Q9InNwYWNpbmciIHRleHRMZW5ndGg9IjQ4IiB4PSIxNDciIHk9IjczNC41MTU2Ij4mIzIxNTc4OyYjMzU2ODY7JiMyMDQ0OTsmIzI0Njg3OzwvdGV4dD48cG9seWdvbiBmaWxsPSIjRjFGMUYxIiBwb2ludHM9IjE0OSw2NjUuMTcxOSwxOTMsNjY1LjE3MTksMjA1LDY3Ny4xNzE5LDE5Myw2ODkuMTcxOSwxNDksNjg5LjE3MTksMTM3LDY3Ny4xNzE5LDE0OSw2NjUuMTcxOSIgc3R5bGU9InN0cm9rZTojMTgxODE4O3N0cm9rZS13aWR0aDowLjU7Ii8+PHRleHQgZmlsbD0iIzAwMDAwMCIgZm9udC1mYW1pbHk9InNhbnMtc2VyaWYiIGZvbnQtc2l6ZT0iMTEiIGxlbmd0aEFkanVzdD0ic3BhY2luZyIgdGV4dExlbmd0aD0iMTEiIHg9IjE3NSIgeT0iNjk5LjU3MDMiPiYjMjYxNTk7PC90ZXh0Pjx0ZXh0IGZpbGw9IiMwMDAwMDAiIGZvbnQtZmFtaWx5PSJzYW5zLXNlcmlmIiBmb250LXNpemU9IjExIiBsZW5ndGhBZGp1c3Q9InNwYWNpbmciIHRleHRMZW5ndGg9IjQ0IiB4PSIxNDkiIHk9IjY4MS42ODM2Ij4mIzE5OTgxOyYjMzMzOTE7JiMyNTM1MTsmIzI2NjMxOzwvdGV4dD48dGV4dCBmaWxsPSIjMDAwMDAwIiBmb250LWZhbWlseT0ic2Fucy1zZXJpZiIgZm9udC1zaXplPSIxMSIgbGVuZ3RoQWRqdXN0PSJzcGFjaW5nIiB0ZXh0TGVuZ3RoPSIxMSIgeD0iMjA1IiB5PSI2NzUuNzk2OSI+JiMyMTU0Mjs8L3RleHQ+PHBvbHlnb24gZmlsbD0iI0YxRjFGMSIgcG9pbnRzPSIxNzEsNzY2LjAxNTYsMTgzLDc3OC4wMTU2LDE3MSw3OTAuMDE1NiwxNTksNzc4LjAxNTYsMTcxLDc2Ni4wMTU2IiBzdHlsZT0ic3Ryb2tlOiMxODE4MTg7c3Ryb2tlLXdpZHRoOjAuNTsiLz48cmVjdCBmaWxsPSIjRjFGMUYxIiBoZWlnaHQ9IjMyLjg0MzgiIHJ4PSIxMi41IiByeT0iMTIuNSIgc3R5bGU9InN0cm9rZTojMTgxODE4O3N0cm9rZS13aWR0aDowLjU7IiB3aWR0aD0iNjgiIHg9IjEzNyIgeT0iODU4LjAxNTYiLz48dGV4dCBmaWxsPSIjMDAwMDAwIiBmb250LWZhbWlseT0ic2Fucy1zZXJpZiIgZm9udC1zaXplPSIxMiIgbGVuZ3RoQWRqdXN0PSJzcGFjaW5nIiB0ZXh0TGVuZ3RoPSI0OCIgeD0iMTQ3IiB5PSI4NzkuMzU5NCI+JiMyMjI3MDsmIzM0OTIwOyYjMjA5OTg7JiMyNjUxMjs8L3RleHQ+PHBvbHlnb24gZmlsbD0iI0YxRjFGMSIgcG9pbnRzPSIxNDksODEwLjAxNTYsMTkzLDgxMC4wMTU2LDIwNSw4MjIuMDE1NiwxOTMsODM0LjAxNTYsMTQ5LDgzNC4wMTU2LDEzNyw4MjIuMDE1NiwxNDksODEwLjAxNTYiIHN0eWxlPSJzdHJva2U6IzE4MTgxODtzdHJva2Utd2lkdGg6MC41OyIvPjx0ZXh0IGZpbGw9IiMwMDAwMDAiIGZvbnQtZmFtaWx5PSJzYW5zLXNlcmlmIiBmb250LXNpemU9IjExIiBsZW5ndGhBZGp1c3Q9InNwYWNpbmciIHRleHRMZW5ndGg9IjExIiB4PSIxNzUiIHk9Ijg0NC40MTQxIj4mIzI2MTU5OzwvdGV4dD48dGV4dCBmaWxsPSIjMDAwMDAwIiBmb250LWZhbWlseT0ic2Fucy1zZXJpZiIgZm9udC1zaXplPSIxMSIgbGVuZ3RoQWRqdXN0PSJzcGFjaW5nIiB0ZXh0TGVuZ3RoPSI0NCIgeD0iMTQ5IiB5PSI4MjYuNTI3MyI+JiMyMjI3MDsmIzM0OTIwOyYjMjA5OTg7JiMyNjUxMjs8L3RleHQ+PHRleHQgZmlsbD0iIzAwMDAwMCIgZm9udC1mYW1pbHk9InNhbnMtc2VyaWYiIGZvbnQtc2l6ZT0iMTEiIGxlbmd0aEFkanVzdD0ic3BhY2luZyIgdGV4dExlbmd0aD0iMTEiIHg9IjIwNSIgeT0iODIwLjY0MDYiPiYjMjE1NDI7PC90ZXh0Pjxwb2x5Z29uIGZpbGw9IiNGMUYxRjEiIHBvaW50cz0iMTcxLDkxMC44NTk0LDE4Myw5MjIuODU5NCwxNzEsOTM0Ljg1OTQsMTU5LDkyMi44NTk0LDE3MSw5MTAuODU5NCIgc3R5bGU9InN0cm9rZTojMTgxODE4O3N0cm9rZS13aWR0aDowLjU7Ii8+PHJlY3QgZmlsbD0iI0YxRjFGMSIgaGVpZ2h0PSIzMi44NDM4IiByeD0iMTIuNSIgcnk9IjEyLjUiIHN0eWxlPSJzdHJva2U6IzE4MTgxODtzdHJva2Utd2lkdGg6MC41OyIgd2lkdGg9IjY4IiB4PSIxMzciIHk9IjEwMDIuODU5NCIvPjx0ZXh0IGZpbGw9IiMwMDAwMDAiIGZvbnQtZmFtaWx5PSJzYW5zLXNlcmlmIiBmb250LXNpemU9IjEyIiBsZW5ndGhBZGp1c3Q9InNwYWNpbmciIHRleHRMZW5ndGg9IjQ4IiB4PSIxNDciIHk9IjEwMjQuMjAzMSI+JiMyNjEwMjsmIzM4Mzg4OyYjMjYzNTQ7JiMzMjQ0Nzs8L3RleHQ+PHBvbHlnb24gZmlsbD0iI0YxRjFGMSIgcG9pbnRzPSIxMzgsOTU0Ljg1OTQsMjA0LDk1NC44NTk0LDIxNiw5NjYuODU5NCwyMDQsOTc4Ljg1OTQsMTM4LDk3OC44NTk0LDEyNiw5NjYuODU5NCwxMzgsOTU0Ljg1OTQiIHN0eWxlPSJzdHJva2U6IzE4MTgxODtzdHJva2Utd2lkdGg6MC41OyIvPjx0ZXh0IGZpbGw9IiMwMDAwMDAiIGZvbnQtZmFtaWx5PSJzYW5zLXNlcmlmIiBmb250LXNpemU9IjExIiBsZW5ndGhBZGp1c3Q9InNwYWNpbmciIHRleHRMZW5ndGg9IjExIiB4PSIxNzUiIHk9Ijk4OS4yNTc4Ij4mIzI2MTU5OzwvdGV4dD48dGV4dCBmaWxsPSIjMDAwMDAwIiBmb250LWZhbWlseT0ic2Fucy1zZXJpZiIgZm9udC1zaXplPSIxMSIgbGVuZ3RoQWRqdXN0PSJzcGFjaW5nIiB0ZXh0TGVuZ3RoPSI2NiIgeD0iMTM4IiB5PSI5NzEuMzcxMSI+JiMyNTM1MTsmIzI2NjMxOyYjMjYxMDI7JiMzODM4ODsmIzI2MzU0OyYjMzI0NDc7PC90ZXh0Pjx0ZXh0IGZpbGw9IiMwMDAwMDAiIGZvbnQtZmFtaWx5PSJzYW5zLXNlcmlmIiBmb250LXNpemU9IjExIiBsZW5ndGhBZGp1c3Q9InNwYWNpbmciIHRleHRMZW5ndGg9IjExIiB4PSIyMTYiIHk9Ijk2NS40ODQ0Ij4mIzIxNTQyOzwvdGV4dD48cG9seWdvbiBmaWxsPSIjRjFGMUYxIiBwb2ludHM9IjE3MSwxMDU1LjcwMzEsMTgzLDEwNjcuNzAzMSwxNzEsMTA3OS43MDMxLDE1OSwxMDY3LjcwMzEsMTcxLDEwNTUuNzAzMSIgc3R5bGU9InN0cm9rZTojMTgxODE4O3N0cm9rZS13aWR0aDowLjU7Ii8+PGxpbmUgc3R5bGU9InN0cm9rZTojMDAwMDAwO3N0cm9rZS13aWR0aDoxLjU7IiB4MT0iNjkiIHgyPSI2OSIgeTE9IjExIiB5Mj0iMTE3Mi41NDY5Ii8+PGxpbmUgc3R5bGU9InN0cm9rZTojMDAwMDAwO3N0cm9rZS13aWR0aDoxLjU7IiB4MT0iMjU5IiB4Mj0iMjU5IiB5MT0iMTEiIHkyPSIxMTcyLjU0NjkiLz48bGluZSBzdHlsZT0ic3Ryb2tlOiMxODE4MTg7c3Ryb2tlLXdpZHRoOjEuMDsiIHgxPSI0MyIgeDI9IjQzIiB5MT0iNTUuMjY1NiIgeTI9Ijc1LjI2NTYiLz48cG9seWdvbiBmaWxsPSIjMTgxODE4IiBwb2ludHM9IjM5LDY1LjI2NTYsNDMsNzUuMjY1Niw0Nyw2NS4yNjU2LDQzLDY5LjI2NTYiIHN0eWxlPSJzdHJva2U6IzE4MTgxODtzdHJva2Utd2lkdGg6MS4wOyIvPjxsaW5lIHN0eWxlPSJzdHJva2U6IzE4MTgxODtzdHJva2Utd2lkdGg6MS4wOyIgeDE9IjQzIiB4Mj0iNDMiIHkxPSIxMTMyLjU0NjkiIHkyPSIxMTUyLjU0NjkiLz48cG9seWdvbiBmaWxsPSIjMTgxODE4IiBwb2ludHM9IjM5LDExNDIuNTQ2OSw0MywxMTUyLjU0NjksNDcsMTE0Mi41NDY5LDQzLDExNDYuNTQ2OSIgc3R5bGU9InN0cm9rZTojMTgxODE4O3N0cm9rZS13aWR0aDoxLjA7Ii8+PGxpbmUgc3R5bGU9InN0cm9rZTojMTgxODE4O3N0cm9rZS13aWR0aDoxLjA7IiB4MT0iMTM3IiB4Mj0iMTI3IiB5MT0iMTQwLjEwOTQiIHkyPSIxNDAuMTA5NCIvPjxsaW5lIHN0eWxlPSJzdHJva2U6IzE4MTgxODtzdHJva2Utd2lkdGg6MS4wOyIgeDE9IjEyNyIgeDI9IjEyNyIgeTE9IjE0MC4xMDk0IiB5Mj0iMTYyLjEwOTQiLz48cG9seWdvbiBmaWxsPSIjMTgxODE4IiBwb2ludHM9IjEyMywxNTIuMTA5NCwxMjcsMTYyLjEwOTQsMTMxLDE1Mi4xMDk0LDEyNywxNTYuMTA5NCIgc3R5bGU9InN0cm9rZTojMTgxODE4O3N0cm9rZS13aWR0aDoxLjA7Ii8+PGxpbmUgc3R5bGU9InN0cm9rZTojMTgxODE4O3N0cm9rZS13aWR0aDoxLjA7IiB4MT0iMjA1IiB4Mj0iMjE1IiB5MT0iMTQwLjEwOTQiIHkyPSIxNDAuMTA5NCIvPjxsaW5lIHN0eWxlPSJzdHJva2U6IzE4MTgxODtzdHJva2Utd2lkdGg6MS4wOyIgeDE9IjIxNSIgeDI9IjIxNSIgeTE9IjE0MC4xMDk0IiB5Mj0iMTYyLjEwOTQiLz48cG9seWdvbiBmaWxsPSIjMTgxODE4IiBwb2ludHM9IjIxMSwxNTIuMTA5NCwyMTUsMTYyLjEwOTQsMjE5LDE1Mi4xMDk0LDIxNSwxNTYuMTA5NCIgc3R5bGU9InN0cm9rZTojMTgxODE4O3N0cm9rZS13aWR0aDoxLjA7Ii8+PGxpbmUgc3R5bGU9InN0cm9rZTojMTgxODE4O3N0cm9rZS13aWR0aDoxLjA7IiB4MT0iMTI3IiB4Mj0iMTI3IiB5MT0iMTk0Ljk1MzEiIHkyPSIyMTIuOTUzMSIvPjxsaW5lIHN0eWxlPSJzdHJva2U6IzE4MTgxODtzdHJva2Utd2lkdGg6MS4wOyIgeDE9IjEyNyIgeDI9IjE1OSIgeTE9IjIxMi45NTMxIiB5Mj0iMjEyLjk1MzEiLz48cG9seWdvbiBmaWxsPSIjMTgxODE4IiBwb2ludHM9IjE0OSwyMDguOTUzMSwxNTksMjEyLjk1MzEsMTQ5LDIxNi45NTMxLDE1MywyMTIuOTUzMSIgc3R5bGU9InN0cm9rZTojMTgxODE4O3N0cm9rZS13aWR0aDoxLjA7Ii8+PGxpbmUgc3R5bGU9InN0cm9rZTojMTgxODE4O3N0cm9rZS13aWR0aDoxLjA7IiB4MT0iMjE1IiB4Mj0iMjE1IiB5MT0iMTk0Ljk1MzEiIHkyPSIyMTIuOTUzMSIvPjxsaW5lIHN0eWxlPSJzdHJva2U6IzE4MTgxODtzdHJva2Utd2lkdGg6MS4wOyIgeDE9IjIxNSIgeDI9IjE4MyIgeTE9IjIxMi45NTMxIiB5Mj0iMjEyLjk1MzEiLz48cG9seWdvbiBmaWxsPSIjMTgxODE4IiBwb2ludHM9IjE5MywyMDguOTUzMSwxODMsMjEyLjk1MzEsMTkzLDIxNi45NTMxLDE4OSwyMTIuOTUzMSIgc3R5bGU9InN0cm9rZTojMTgxODE4O3N0cm9rZS13aWR0aDoxLjA7Ii8+PGxpbmUgc3R5bGU9InN0cm9rZTojMTgxODE4O3N0cm9rZS13aWR0aDoxLjA7IiB4MT0iMTcxIiB4Mj0iMTcxIiB5MT0iMjI0Ljk1MzEiIHkyPSIyNDQuOTUzMSIvPjxwb2x5Z29uIGZpbGw9IiMxODE4MTgiIHBvaW50cz0iMTY3LDIzNC45NTMxLDE3MSwyNDQuOTUzMSwxNzUsMjM0Ljk1MzEsMTcxLDIzOC45NTMxIiBzdHlsZT0ic3Ryb2tlOiMxODE4MTg7c3Ryb2tlLXdpZHRoOjEuMDsiLz48bGluZSBzdHlsZT0ic3Ryb2tlOiMxODE4MTg7c3Ryb2tlLXdpZHRoOjEuMDsiIHgxPSIxMzEuNSIgeDI9IjEyMSIgeTE9IjMwOS43OTY5IiB5Mj0iMzA5Ljc5NjkiLz48bGluZSBzdHlsZT0ic3Ryb2tlOiMxODE4MTg7c3Ryb2tlLXdpZHRoOjEuMDsiIHgxPSIxMjEiIHgyPSIxMjEiIHkxPSIzMDkuNzk2OSIgeTI9IjMzMS43OTY5Ii8+PHBvbHlnb24gZmlsbD0iIzE4MTgxOCIgcG9pbnRzPSIxMTcsMzIxLjc5NjksMTIxLDMzMS43OTY5LDEyNSwzMjEuNzk2OSwxMjEsMzI1Ljc5NjkiIHN0eWxlPSJzdHJva2U6IzE4MTgxODtzdHJva2Utd2lkdGg6MS4wOyIvPjxsaW5lIHN0eWxlPSJzdHJva2U6IzE4MTgxODtzdHJva2Utd2lkdGg6MS4wOyIgeDE9IjIxMC41IiB4Mj0iMjIxIiB5MT0iMzA5Ljc5NjkiIHkyPSIzMDkuNzk2OSIvPjxsaW5lIHN0eWxlPSJzdHJva2U6IzE4MTgxODtzdHJva2Utd2lkdGg6MS4wOyIgeDE9IjIyMSIgeDI9IjIyMSIgeTE9IjMwOS43OTY5IiB5Mj0iMzMxLjc5NjkiLz48cG9seWdvbiBmaWxsPSIjMTgxODE4IiBwb2ludHM9IjIxNywzMjEuNzk2OSwyMjEsMzMxLjc5NjksMjI1LDMyMS43OTY5LDIyMSwzMjUuNzk2OSIgc3R5bGU9InN0cm9rZTojMTgxODE4O3N0cm9rZS13aWR0aDoxLjA7Ii8+PGxpbmUgc3R5bGU9InN0cm9rZTojMTgxODE4O3N0cm9rZS13aWR0aDoxLjA7IiB4MT0iMTIxIiB4Mj0iMTIxIiB5MT0iMzY0LjY0MDYiIHkyPSIzODIuNjQwNiIvPjxsaW5lIHN0eWxlPSJzdHJva2U6IzE4MTgxODtzdHJva2Utd2lkdGg6MS4wOyIgeDE9IjEyMSIgeDI9IjE1OSIgeTE9IjM4Mi42NDA2IiB5Mj0iMzgyLjY0MDYiLz48cG9seWdvbiBmaWxsPSIjMTgxODE4IiBwb2ludHM9IjE0OSwzNzguNjQwNiwxNTksMzgyLjY0MDYsMTQ5LDM4Ni42NDA2LDE1MywzODIuNjQwNiIgc3R5bGU9InN0cm9rZTojMTgxODE4O3N0cm9rZS13aWR0aDoxLjA7Ii8+PGxpbmUgc3R5bGU9InN0cm9rZTojMTgxODE4O3N0cm9rZS13aWR0aDoxLjA7IiB4MT0iMjIxIiB4Mj0iMjIxIiB5MT0iMzY0LjY0MDYiIHkyPSIzODIuNjQwNiIvPjxsaW5lIHN0eWxlPSJzdHJva2U6IzE4MTgxODtzdHJva2Utd2lkdGg6MS4wOyIgeDE9IjIyMSIgeDI9IjE4MyIgeTE9IjM4Mi42NDA2IiB5Mj0iMzgyLjY0MDYiLz48cG9seWdvbiBmaWxsPSIjMTgxODE4IiBwb2ludHM9IjE5MywzNzguNjQwNiwxODMsMzgyLjY0MDYsMTkzLDM4Ni42NDA2LDE4OSwzODIuNjQwNiIgc3R5bGU9InN0cm9rZTojMTgxODE4O3N0cm9rZS13aWR0aDoxLjA7Ii8+PGxpbmUgc3R5bGU9InN0cm9rZTojMTgxODE4O3N0cm9rZS13aWR0aDoxLjA7IiB4MT0iMTcxIiB4Mj0iMTcxIiB5MT0iMjc3Ljc5NjkiIHkyPSIyOTcuNzk2OSIvPjxwb2x5Z29uIGZpbGw9IiMxODE4MTgiIHBvaW50cz0iMTY3LDI4Ny43OTY5LDE3MSwyOTcuNzk2OSwxNzUsMjg3Ljc5NjksMTcxLDI5MS43OTY5IiBzdHlsZT0ic3Ryb2tlOiMxODE4MTg7c3Ryb2tlLXdpZHRoOjEuMDsiLz48bGluZSBzdHlsZT0ic3Ryb2tlOiMxODE4MTg7c3Ryb2tlLXdpZHRoOjEuMDsiIHgxPSIxNzEiIHgyPSIxNzEiIHkxPSIzOTQuNjQwNiIgeTI9IjQxNC42NDA2Ii8+PHBvbHlnb24gZmlsbD0iIzE4MTgxOCIgcG9pbnRzPSIxNjcsNDA0LjY0MDYsMTcxLDQxNC42NDA2LDE3NSw0MDQuNjQwNiwxNzEsNDA4LjY0MDYiIHN0eWxlPSJzdHJva2U6IzE4MTgxODtzdHJva2Utd2lkdGg6MS4wOyIvPjxsaW5lIHN0eWxlPSJzdHJva2U6IzE4MTgxODtzdHJva2Utd2lkdGg6MS4wOyIgeDE9IjE3MSIgeDI9IjE3MSIgeTE9IjQ5MS40ODQ0IiB5Mj0iNTE1LjQ4NDQiLz48cG9seWdvbiBmaWxsPSIjMTgxODE4IiBwb2ludHM9IjE2Nyw1MDUuNDg0NCwxNzEsNTE1LjQ4NDQsMTc1LDUwNS40ODQ0LDE3MSw1MDkuNDg0NCIgc3R5bGU9InN0cm9rZTojMTgxODE4O3N0cm9rZS13aWR0aDoxLjA7Ii8+PGxpbmUgc3R5bGU9InN0cm9rZTojMTgxODE4O3N0cm9rZS13aWR0aDoxLjA7IiB4MT0iMjA1IiB4Mj0iMjE3IiB5MT0iNDc5LjQ4NDQiIHkyPSI0NzkuNDg0NCIvPjxwb2x5Z29uIGZpbGw9IiMxODE4MTgiIHBvaW50cz0iMjEzLDUyMS45MDYzLDIxNyw1MzEuOTA2MywyMjEsNTIxLjkwNjMsMjE3LDUyNS45MDYzIiBzdHlsZT0ic3Ryb2tlOiMxODE4MTg7c3Ryb2tlLXdpZHRoOjEuMDsiLz48bGluZSBzdHlsZT0ic3Ryb2tlOiMxODE4MTg7c3Ryb2tlLXdpZHRoOjEuMDsiIHgxPSIyMTciIHgyPSIyMTciIHkxPSI0NzkuNDg0NCIgeTI9IjU4MC4zMjgxIi8+PGxpbmUgc3R5bGU9InN0cm9rZTojMTgxODE4O3N0cm9rZS13aWR0aDoxLjA7IiB4MT0iMjE3IiB4Mj0iMTgzIiB5MT0iNTgwLjMyODEiIHkyPSI1ODAuMzI4MSIvPjxwb2x5Z29uIGZpbGw9IiMxODE4MTgiIHBvaW50cz0iMTkzLDU3Ni4zMjgxLDE4Myw1ODAuMzI4MSwxOTMsNTg0LjMyODEsMTg5LDU4MC4zMjgxIiBzdHlsZT0ic3Ryb2tlOiMxODE4MTg7c3Ryb2tlLXdpZHRoOjEuMDsiLz48bGluZSBzdHlsZT0ic3Ryb2tlOiMxODE4MTg7c3Ryb2tlLXdpZHRoOjEuMDsiIHgxPSIxNzEiIHgyPSIxNzEiIHkxPSI1NDguMzI4MSIgeTI9IjU2OC4zMjgxIi8+PHBvbHlnb24gZmlsbD0iIzE4MTgxOCIgcG9pbnRzPSIxNjcsNTU4LjMyODEsMTcxLDU2OC4zMjgxLDE3NSw1NTguMzI4MSwxNzEsNTYyLjMyODEiIHN0eWxlPSJzdHJva2U6IzE4MTgxODtzdHJva2Utd2lkdGg6MS4wOyIvPjxsaW5lIHN0eWxlPSJzdHJva2U6IzE4MTgxODtzdHJva2Utd2lkdGg6MS4wOyIgeDE9IjE3MSIgeDI9IjE3MSIgeTE9IjQ0Ny40ODQ0IiB5Mj0iNDY3LjQ4NDQiLz48cG9seWdvbiBmaWxsPSIjMTgxODE4IiBwb2ludHM9IjE2Nyw0NTcuNDg0NCwxNzEsNDY3LjQ4NDQsMTc1LDQ1Ny40ODQ0LDE3MSw0NjEuNDg0NCIgc3R5bGU9InN0cm9rZTojMTgxODE4O3N0cm9rZS13aWR0aDoxLjA7Ii8+PGxpbmUgc3R5bGU9InN0cm9rZTojMTgxODE4O3N0cm9rZS13aWR0aDoxLjA7IiB4MT0iMTcxIiB4Mj0iMTcxIiB5MT0iNTkyLjMyODEiIHkyPSI2MTIuMzI4MSIvPjxwb2x5Z29uIGZpbGw9IiMxODE4MTgiIHBvaW50cz0iMTY3LDYwMi4zMjgxLDE3MSw2MTIuMzI4MSwxNzUsNjAyLjMyODEsMTcxLDYwNi4zMjgxIiBzdHlsZT0ic3Ryb2tlOiMxODE4MTg7c3Ryb2tlLXdpZHRoOjEuMDsiLz48bGluZSBzdHlsZT0ic3Ryb2tlOiMxODE4MTg7c3Ryb2tlLXdpZHRoOjEuMDsiIHgxPSIxNzEiIHgyPSIxNzEiIHkxPSI2ODkuMTcxOSIgeTI9IjcxMy4xNzE5Ii8+PHBvbHlnb24gZmlsbD0iIzE4MTgxOCIgcG9pbnRzPSIxNjcsNzAzLjE3MTksMTcxLDcxMy4xNzE5LDE3NSw3MDMuMTcxOSwxNzEsNzA3LjE3MTkiIHN0eWxlPSJzdHJva2U6IzE4MTgxODtzdHJva2Utd2lkdGg6MS4wOyIvPjxsaW5lIHN0eWxlPSJzdHJva2U6IzE4MTgxODtzdHJva2Utd2lkdGg6MS4wOyIgeDE9IjIwNSIgeDI9IjIxNyIgeTE9IjY3Ny4xNzE5IiB5Mj0iNjc3LjE3MTkiLz48cG9seWdvbiBmaWxsPSIjMTgxODE4IiBwb2ludHM9IjIxMyw3MTkuNTkzOCwyMTcsNzI5LjU5MzgsMjIxLDcxOS41OTM4LDIxNyw3MjMuNTkzOCIgc3R5bGU9InN0cm9rZTojMTgxODE4O3N0cm9rZS13aWR0aDoxLjA7Ii8+PGxpbmUgc3R5bGU9InN0cm9rZTojMTgxODE4O3N0cm9rZS13aWR0aDoxLjA7IiB4MT0iMjE3IiB4Mj0iMjE3IiB5MT0iNjc3LjE3MTkiIHkyPSI3NzguMDE1NiIvPjxsaW5lIHN0eWxlPSJzdHJva2U6IzE4MTgxODtzdHJva2Utd2lkdGg6MS4wOyIgeDE9IjIxNyIgeDI9IjE4MyIgeTE9Ijc3OC4wMTU2IiB5Mj0iNzc4LjAxNTYiLz48cG9seWdvbiBmaWxsPSIjMTgxODE4IiBwb2ludHM9IjE5Myw3NzQuMDE1NiwxODMsNzc4LjAxNTYsMTkzLDc4Mi4wMTU2LDE4OSw3NzguMDE1NiIgc3R5bGU9InN0cm9rZTojMTgxODE4O3N0cm9rZS13aWR0aDoxLjA7Ii8+PGxpbmUgc3R5bGU9InN0cm9rZTojMTgxODE4O3N0cm9rZS13aWR0aDoxLjA7IiB4MT0iMTcxIiB4Mj0iMTcxIiB5MT0iNzQ2LjAxNTYiIHkyPSI3NjYuMDE1NiIvPjxwb2x5Z29uIGZpbGw9IiMxODE4MTgiIHBvaW50cz0iMTY3LDc1Ni4wMTU2LDE3MSw3NjYuMDE1NiwxNzUsNzU2LjAxNTYsMTcxLDc2MC4wMTU2IiBzdHlsZT0ic3Ryb2tlOiMxODE4MTg7c3Ryb2tlLXdpZHRoOjEuMDsiLz48bGluZSBzdHlsZT0ic3Ryb2tlOiMxODE4MTg7c3Ryb2tlLXdpZHRoOjEuMDsiIHgxPSIxNzEiIHgyPSIxNzEiIHkxPSI2NDUuMTcxOSIgeTI9IjY2NS4xNzE5Ii8+PHBvbHlnb24gZmlsbD0iIzE4MTgxOCIgcG9pbnRzPSIxNjcsNjU1LjE3MTksMTcxLDY2NS4xNzE5LDE3NSw2NTUuMTcxOSwxNzEsNjU5LjE3MTkiIHN0eWxlPSJzdHJva2U6IzE4MTgxODtzdHJva2Utd2lkdGg6MS4wOyIvPjxsaW5lIHN0eWxlPSJzdHJva2U6IzE4MTgxODtzdHJva2Utd2lkdGg6MS4wOyIgeDE9IjE3MSIgeDI9IjE3MSIgeTE9IjgzNC4wMTU2IiB5Mj0iODU4LjAxNTYiLz48cG9seWdvbiBmaWxsPSIjMTgxODE4IiBwb2ludHM9IjE2Nyw4NDguMDE1NiwxNzEsODU4LjAxNTYsMTc1LDg0OC4wMTU2LDE3MSw4NTIuMDE1NiIgc3R5bGU9InN0cm9rZTojMTgxODE4O3N0cm9rZS13aWR0aDoxLjA7Ii8+PGxpbmUgc3R5bGU9InN0cm9rZTojMTgxODE4O3N0cm9rZS13aWR0aDoxLjA7IiB4MT0iMjA1IiB4Mj0iMjE3IiB5MT0iODIyLjAxNTYiIHkyPSI4MjIuMDE1NiIvPjxwb2x5Z29uIGZpbGw9IiMxODE4MTgiIHBvaW50cz0iMjEzLDg2NC40Mzc1LDIxNyw4NzQuNDM3NSwyMjEsODY0LjQzNzUsMjE3LDg2OC40Mzc1IiBzdHlsZT0ic3Ryb2tlOiMxODE4MTg7c3Ryb2tlLXdpZHRoOjEuMDsiLz48bGluZSBzdHlsZT0ic3Ryb2tlOiMxODE4MTg7c3Ryb2tlLXdpZHRoOjEuMDsiIHgxPSIyMTciIHgyPSIyMTciIHkxPSI4MjIuMDE1NiIgeTI9IjkyMi44NTk0Ii8+PGxpbmUgc3R5bGU9InN0cm9rZTojMTgxODE4O3N0cm9rZS13aWR0aDoxLjA7IiB4MT0iMjE3IiB4Mj0iMTgzIiB5MT0iOTIyLjg1OTQiIHkyPSI5MjIuODU5NCIvPjxwb2x5Z29uIGZpbGw9IiMxODE4MTgiIHBvaW50cz0iMTkzLDkxOC44NTk0LDE4Myw5MjIuODU5NCwxOTMsOTI2Ljg1OTQsMTg5LDkyMi44NTk0IiBzdHlsZT0ic3Ryb2tlOiMxODE4MTg7c3Ryb2tlLXdpZHRoOjEuMDsiLz48bGluZSBzdHlsZT0ic3Ryb2tlOiMxODE4MTg7c3Ryb2tlLXdpZHRoOjEuMDsiIHgxPSIxNzEiIHgyPSIxNzEiIHkxPSI4OTAuODU5NCIgeTI9IjkxMC44NTk0Ii8+PHBvbHlnb24gZmlsbD0iIzE4MTgxOCIgcG9pbnRzPSIxNjcsOTAwLjg1OTQsMTcxLDkxMC44NTk0LDE3NSw5MDAuODU5NCwxNzEsOTA0Ljg1OTQiIHN0eWxlPSJzdHJva2U6IzE4MTgxODtzdHJva2Utd2lkdGg6MS4wOyIvPjxsaW5lIHN0eWxlPSJzdHJva2U6IzE4MTgxODtzdHJva2Utd2lkdGg6MS4wOyIgeDE9IjE3MSIgeDI9IjE3MSIgeTE9Ijc5MC4wMTU2IiB5Mj0iODEwLjAxNTYiLz48cG9seWdvbiBmaWxsPSIjMTgxODE4IiBwb2ludHM9IjE2Nyw4MDAuMDE1NiwxNzEsODEwLjAxNTYsMTc1LDgwMC4wMTU2LDE3MSw4MDQuMDE1NiIgc3R5bGU9InN0cm9rZTojMTgxODE4O3N0cm9rZS13aWR0aDoxLjA7Ii8+PGxpbmUgc3R5bGU9InN0cm9rZTojMTgxODE4O3N0cm9rZS13aWR0aDoxLjA7IiB4MT0iMTcxIiB4Mj0iMTcxIiB5MT0iOTc4Ljg1OTQiIHkyPSIxMDAyLjg1OTQiLz48cG9seWdvbiBmaWxsPSIjMTgxODE4IiBwb2ludHM9IjE2Nyw5OTIuODU5NCwxNzEsMTAwMi44NTk0LDE3NSw5OTIuODU5NCwxNzEsOTk2Ljg1OTQiIHN0eWxlPSJzdHJva2U6IzE4MTgxODtzdHJva2Utd2lkdGg6MS4wOyIvPjxsaW5lIHN0eWxlPSJzdHJva2U6IzE4MTgxODtzdHJva2Utd2lkdGg6MS4wOyIgeDE9IjIxNiIgeDI9IjIyOCIgeTE9Ijk2Ni44NTk0IiB5Mj0iOTY2Ljg1OTQiLz48cG9seWdvbiBmaWxsPSIjMTgxODE4IiBwb2ludHM9IjIyNCwxMDA5LjI4MTMsMjI4LDEwMTkuMjgxMywyMzIsMTAwOS4yODEzLDIyOCwxMDEzLjI4MTMiIHN0eWxlPSJzdHJva2U6IzE4MTgxODtzdHJva2Utd2lkdGg6MS4wOyIvPjxsaW5lIHN0eWxlPSJzdHJva2U6IzE4MTgxODtzdHJva2Utd2lkdGg6MS4wOyIgeDE9IjIyOCIgeDI9IjIyOCIgeTE9Ijk2Ni44NTk0IiB5Mj0iMTA2Ny43MDMxIi8+PGxpbmUgc3R5bGU9InN0cm9rZTojMTgxODE4O3N0cm9rZS13aWR0aDoxLjA7IiB4MT0iMjI4IiB4Mj0iMTgzIiB5MT0iMTA2Ny43MDMxIiB5Mj0iMTA2Ny43MDMxIi8+PHBvbHlnb24gZmlsbD0iIzE4MTgxOCIgcG9pbnRzPSIxOTMsMTA2My43MDMxLDE4MywxMDY3LjcwMzEsMTkzLDEwNzEuNzAzMSwxODksMTA2Ny43MDMxIiBzdHlsZT0ic3Ryb2tlOiMxODE4MTg7c3Ryb2tlLXdpZHRoOjEuMDsiLz48bGluZSBzdHlsZT0ic3Ryb2tlOiMxODE4MTg7c3Ryb2tlLXdpZHRoOjEuMDsiIHgxPSIxNzEiIHgyPSIxNzEiIHkxPSIxMDM1LjcwMzEiIHkyPSIxMDU1LjcwMzEiLz48cG9seWdvbiBmaWxsPSIjMTgxODE4IiBwb2ludHM9IjE2NywxMDQ1LjcwMzEsMTcxLDEwNTUuNzAzMSwxNzUsMTA0NS43MDMxLDE3MSwxMDQ5LjcwMzEiIHN0eWxlPSJzdHJva2U6IzE4MTgxODtzdHJva2Utd2lkdGg6MS4wOyIvPjxsaW5lIHN0eWxlPSJzdHJva2U6IzE4MTgxODtzdHJva2Utd2lkdGg6MS4wOyIgeDE9IjE3MSIgeDI9IjE3MSIgeTE9IjkzNC44NTk0IiB5Mj0iOTU0Ljg1OTQiLz48cG9seWdvbiBmaWxsPSIjMTgxODE4IiBwb2ludHM9IjE2Nyw5NDQuODU5NCwxNzEsOTU0Ljg1OTQsMTc1LDk0NC44NTk0LDE3MSw5NDguODU5NCIgc3R5bGU9InN0cm9rZTojMTgxODE4O3N0cm9rZS13aWR0aDoxLjA7Ii8+PGxpbmUgc3R5bGU9InN0cm9rZTojMTgxODE4O3N0cm9rZS13aWR0aDoxLjA7IiB4MT0iNDMiIHgyPSI0MyIgeTE9IjEwOC4xMDk0IiB5Mj0iMTEzLjEwOTQiLz48bGluZSBzdHlsZT0ic3Ryb2tlOiMxODE4MTg7c3Ryb2tlLXdpZHRoOjEuMDsiIHgxPSI0MyIgeDI9IjE3MSIgeTE9IjExMy4xMDk0IiB5Mj0iMTEzLjEwOTQiLz48bGluZSBzdHlsZT0ic3Ryb2tlOiMxODE4MTg7c3Ryb2tlLXdpZHRoOjEuMDsiIHgxPSIxNzEiIHgyPSIxNzEiIHkxPSIxMTMuMTA5NCIgeTI9IjEyOC4xMDk0Ii8+PHBvbHlnb24gZmlsbD0iIzE4MTgxOCIgcG9pbnRzPSIxNjcsMTE4LjEwOTQsMTcxLDEyOC4xMDk0LDE3NSwxMTguMTA5NCwxNzEsMTIyLjEwOTQiIHN0eWxlPSJzdHJva2U6IzE4MTgxODtzdHJva2Utd2lkdGg6MS4wOyIvPjxsaW5lIHN0eWxlPSJzdHJva2U6IzE4MTgxODtzdHJva2Utd2lkdGg6MS4wOyIgeDE9IjE3MSIgeDI9IjE3MSIgeTE9IjEwNzkuNzAzMSIgeTI9IjEwODQuNzAzMSIvPjxsaW5lIHN0eWxlPSJzdHJva2U6IzE4MTgxODtzdHJva2Utd2lkdGg6MS4wOyIgeDE9IjE3MSIgeDI9IjQzIiB5MT0iMTA4NC43MDMxIiB5Mj0iMTA4NC43MDMxIi8+PGxpbmUgc3R5bGU9InN0cm9rZTojMTgxODE4O3N0cm9rZS13aWR0aDoxLjA7IiB4MT0iNDMiIHgyPSI0MyIgeTE9IjEwODQuNzAzMSIgeTI9IjEwOTkuNzAzMSIvPjxwb2x5Z29uIGZpbGw9IiMxODE4MTgiIHBvaW50cz0iMzksMTA4OS43MDMxLDQzLDEwOTkuNzAzMSw0NywxMDg5LjcwMzEsNDMsMTA5My43MDMxIiBzdHlsZT0ic3Ryb2tlOiMxODE4MTg7c3Ryb2tlLXdpZHRoOjEuMDsiLz48dGV4dCBmaWxsPSIjMDAwMDAwIiBmb250LWZhbWlseT0ic2Fucy1zZXJpZiIgZm9udC1zaXplPSIxOCIgbGVuZ3RoQWRqdXN0PSJzcGFjaW5nIiB0ZXh0TGVuZ3RoPSIzNiIgeD0iMjQiIHk9IjI4LjAxNTYiPiYjMjk5OTI7JiMyNTE0Mzs8L3RleHQ+PHRleHQgZmlsbD0iIzAwMDAwMCIgZm9udC1mYW1pbHk9InNhbnMtc2VyaWYiIGZvbnQtc2l6ZT0iMTgiIGxlbmd0aEFkanVzdD0ic3BhY2luZyIgdGV4dExlbmd0aD0iMzYiIHg9IjE0NiIgeT0iMjguMDE1NiI+JiMzMTk5NTsmIzMyNDc5OzwvdGV4dD48IS0tU1JDPVtUUEJESmk5MDU0UnRWT2VrdUhOV1FLbWlhU0ltNDlQVDUzTGo4SVdqUU1jSEhBbkhSNFhlM1FXYkt0dlVmbFZFejJyaTdLazB3N0JrbFR5dm9QVUhnVU1aN2liMml0THNySDhnVDFKM25ndUFDYnQ2RDl4OEdocWNialpSVzdLTWVCX1dTNXVNTW5USUdvcEhtQUU2MmdQUjVZaE9xXzE5dXZFZzg1cXM5UjY0ZW8xTDdaV3pFcWJNaXVJR1BFVFhFeW5FNmtWck1mNUJqSnhxWGJMa3FjUkd6UkNkMnMtSkUyZmF3OFF2UGFKT3BPTzYzWXZqajQ4U2M4S0NaNmRrODBJWUx2eFNFejlkNUlPSnMzZ1dnenAxaFNkUXBKSjcwWnczY0IwV0U0Ql9pY1d4MUMtWXJZVlNOekR1M09RVWktcHRHdGdva2NFVGEza0V3TTFzc05vd2gtMktkZVRYbDZNVWR4N21xSlc5N3NwLTJOQ2RFYi1meXU3WjFJTXhhX2VFRGR5V3ZFOGRMNTk1ME90eURGV0RdLS0+PC9nPjwvc3ZnPg==;" vertex="1" parent="1">
            <mxGeometry x="40" y="-890" width="710" height="3002.28" as="geometry" />
          </mxCell>
        </UserObject>
        <UserObject label="" plantUmlData="{&#xa;  &quot;data&quot;: &quot;@startuml\ntitle 指标优化流程\n\n|用户|\nstart\n:登录;\n\n|系统|\nif (是否存在指标历史数据？) then (是)\n:获取历史数据;\nelse (否)\n:提示用户输入初始数据;\n:创建新的指标数据文件;\nendif\n:数据预处理;\nif (是否有不良指标？) then (是)\n:生成告警信息;\n:提示用户处理不良指标;\nelse (否)\n:运行优化算法;\n:生成指标优化建议;\n:提示用户优化结果;\nendif\n:更新指标数据;\n:保存指标数据;\n|用户|\n:注销;\nstop\n@enduml&quot;,&#xa;  &quot;format&quot;: &quot;svg&quot;&#xa;}" id="lj0ikvdqPGdOUn9qGZUp-5">
          <mxCell style="shape=image;noLabel=1;verticalAlign=top;aspect=fixed;imageAspect=0;image=data:image/svg+xml,PD94bWwgdmVyc2lvbj0iMS4wIiBlbmNvZGluZz0idXMtYXNjaWkiIHN0YW5kYWxvbmU9Im5vIj8+PHN2ZyB4bWxucz0iaHR0cDovL3d3dy53My5vcmcvMjAwMC9zdmciIHhtbG5zOnhsaW5rPSJodHRwOi8vd3d3LnczLm9yZy8xOTk5L3hsaW5rIiBjb250ZW50U3R5bGVUeXBlPSJ0ZXh0L2NzcyIgaGVpZ2h0PSI4MDFweCIgcHJlc2VydmVBc3BlY3RSYXRpbz0ibm9uZSIgc3R5bGU9IndpZHRoOjM5N3B4O2hlaWdodDo4MDFweDtiYWNrZ3JvdW5kOiNGRkZGRkY7IiB2ZXJzaW9uPSIxLjEiIHZpZXdCb3g9IjAgMCAzOTcgODAxIiB3aWR0aD0iMzk3cHgiIHpvb21BbmRQYW49Im1hZ25pZnkiPjxkZWZzLz48Zz48dGV4dCBmaWxsPSIjMDAwMDAwIiBmb250LWZhbWlseT0ic2Fucy1zZXJpZiIgZm9udC1zaXplPSIxNCIgZm9udC13ZWlnaHQ9ImJvbGQiIGxlbmd0aEFkanVzdD0ic3BhY2luZyIgdGV4dExlbmd0aD0iODQiIHg9IjE1NSIgeT0iMzMuMjM0NCI+JiMyNTM1MTsmIzI2NjMxOyYjMjAyNDg7JiMyMTI3MDsmIzI3OTY5OyYjMzEyNDM7PC90ZXh0PjxyZWN0IGZpbGw9Im5vbmUiIGhlaWdodD0iMTkuMjY1NiIgc3R5bGU9InN0cm9rZTpub25lO3N0cm9rZS13aWR0aDoxLjA7IiB3aWR0aD0iMzY0IiB4PSIxNSIgeT0iNDYuOTg0NCIvPjxlbGxpcHNlIGN4PSI0MyIgY3k9IjgxLjI1IiBmaWxsPSIjMjIyMjIyIiByeD0iMTAiIHJ5PSIxMCIgc3R5bGU9InN0cm9rZTojMjIyMjIyO3N0cm9rZS13aWR0aDoxLjA7Ii8+PHJlY3QgZmlsbD0iI0YxRjFGMSIgaGVpZ2h0PSIzMi44NDM4IiByeD0iMTIuNSIgcnk9IjEyLjUiIHN0eWxlPSJzdHJva2U6IzE4MTgxODtzdHJva2Utd2lkdGg6MC41OyIgd2lkdGg9IjQ0IiB4PSIyMSIgeT0iMTExLjI1Ii8+PHRleHQgZmlsbD0iIzAwMDAwMCIgZm9udC1mYW1pbHk9InNhbnMtc2VyaWYiIGZvbnQtc2l6ZT0iMTIiIGxlbmd0aEFkanVzdD0ic3BhY2luZyIgdGV4dExlbmd0aD0iMjQiIHg9IjMxIiB5PSIxMzIuNTkzOCI+JiMzMDMzMTsmIzI0NDA1OzwvdGV4dD48cmVjdCBmaWxsPSIjRjFGMUYxIiBoZWlnaHQ9IjMyLjg0MzgiIHJ4PSIxMi41IiByeT0iMTIuNSIgc3R5bGU9InN0cm9rZTojMTgxODE4O3N0cm9rZS13aWR0aDowLjU7IiB3aWR0aD0iNDQiIHg9IjIxIiB5PSI3MTQuODQzOCIvPjx0ZXh0IGZpbGw9IiMwMDAwMDAiIGZvbnQtZmFtaWx5PSJzYW5zLXNlcmlmIiBmb250LXNpemU9IjEyIiBsZW5ndGhBZGp1c3Q9InNwYWNpbmciIHRleHRMZW5ndGg9IjI0IiB4PSIzMSIgeT0iNzM2LjE4NzUiPiYjMjc4ODA7JiMzODE0NDs8L3RleHQ+PGVsbGlwc2UgY3g9IjQzIiBjeT0iNzc4LjY4NzUiIGZpbGw9Im5vbmUiIHJ4PSIxMSIgcnk9IjExIiBzdHlsZT0ic3Ryb2tlOiMyMjIyMjI7c3Ryb2tlLXdpZHRoOjEuMDsiLz48ZWxsaXBzZSBjeD0iNDMiIGN5PSI3NzguNjg3NSIgZmlsbD0iIzIyMjIyMiIgcng9IjYiIHJ5PSI2IiBzdHlsZT0ic3Ryb2tlOiMxMTExMTE7c3Ryb2tlLXdpZHRoOjEuMDsiLz48bGluZSBzdHlsZT0ic3Ryb2tlOiMwMDAwMDA7c3Ryb2tlLXdpZHRoOjEuNTsiIHgxPSIxNSIgeDI9IjE1IiB5MT0iNDYuOTg0NCIgeTI9Ijc4OS42ODc1Ii8+PHBvbHlnb24gZmlsbD0iI0YxRjFGMSIgcG9pbnRzPSIxNTguNSwxNjQuMDkzOCwyNzkuNSwxNjQuMDkzOCwyOTEuNSwxNzYuMDkzOCwyNzkuNSwxODguMDkzOCwxNTguNSwxODguMDkzOCwxNDYuNSwxNzYuMDkzOCwxNTguNSwxNjQuMDkzOCIgc3R5bGU9InN0cm9rZTojMTgxODE4O3N0cm9rZS13aWR0aDowLjU7Ii8+PHRleHQgZmlsbD0iIzAwMDAwMCIgZm9udC1mYW1pbHk9InNhbnMtc2VyaWYiIGZvbnQtc2l6ZT0iMTEiIGxlbmd0aEFkanVzdD0ic3BhY2luZyIgdGV4dExlbmd0aD0iMTIxIiB4PSIxNTguNSIgeT0iMTgwLjYwNTUiPiYjMjYxNTk7JiMyMTU0MjsmIzIzMzg0OyYjMjIzMTI7JiMyNTM1MTsmIzI2NjMxOyYjMjEzODI7JiMyMTQ5MDsmIzI1OTY4OyYjMjU0NTQ7JiM2NTMxMTs8L3RleHQ+PHRleHQgZmlsbD0iIzAwMDAwMCIgZm9udC1mYW1pbHk9InNhbnMtc2VyaWYiIGZvbnQtc2l6ZT0iMTEiIGxlbmd0aEFkanVzdD0ic3BhY2luZyIgdGV4dExlbmd0aD0iMTEiIHg9IjEzNS41IiB5PSIxNzQuNzE4OCI+JiMyNjE1OTs8L3RleHQ+PHRleHQgZmlsbD0iIzAwMDAwMCIgZm9udC1mYW1pbHk9InNhbnMtc2VyaWYiIGZvbnQtc2l6ZT0iMTEiIGxlbmd0aEFkanVzdD0ic3BhY2luZyIgdGV4dExlbmd0aD0iMTEiIHg9IjI5MS41IiB5PSIxNzQuNzE4OCI+JiMyMTU0Mjs8L3RleHQ+PHJlY3QgZmlsbD0iI0YxRjFGMSIgaGVpZ2h0PSIzMi44NDM4IiByeD0iMTIuNSIgcnk9IjEyLjUiIHN0eWxlPSJzdHJva2U6IzE4MTgxODtzdHJva2Utd2lkdGg6MC41OyIgd2lkdGg9IjkyIiB4PSI5MC41IiB5PSIxOTguMDkzOCIvPjx0ZXh0IGZpbGw9IiMwMDAwMDAiIGZvbnQtZmFtaWx5PSJzYW5zLXNlcmlmIiBmb250LXNpemU9IjEyIiBsZW5ndGhBZGp1c3Q9InNwYWNpbmciIHRleHRMZW5ndGg9IjcyIiB4PSIxMDAuNSIgeT0iMjE5LjQzNzUiPiYjMzM3MTk7JiMyMTQ2MjsmIzIxMzgyOyYjMjE0OTA7JiMyNTk2ODsmIzI1NDU0OzwvdGV4dD48cmVjdCBmaWxsPSIjRjFGMUYxIiBoZWlnaHQ9IjMyLjg0MzgiIHJ4PSIxMi41IiByeT0iMTIuNSIgc3R5bGU9InN0cm9rZTojMTgxODE4O3N0cm9rZS13aWR0aDowLjU7IiB3aWR0aD0iMTQwIiB4PSIyMzEuNSIgeT0iMTk4LjA5MzgiLz48dGV4dCBmaWxsPSIjMDAwMDAwIiBmb250LWZhbWlseT0ic2Fucy1zZXJpZiIgZm9udC1zaXplPSIxMiIgbGVuZ3RoQWRqdXN0PSJzcGFjaW5nIiB0ZXh0TGVuZ3RoPSIxMjAiIHg9IjI0MS41IiB5PSIyMTkuNDM3NSI+JiMyNTU1MjsmIzMxMDM0OyYjMjk5OTI7JiMyNTE0MzsmIzM2NzU1OyYjMjA4Mzc7JiMyMTAyMTsmIzIyOTg3OyYjMjU5Njg7JiMyNTQ1NDs8L3RleHQ+PHJlY3QgZmlsbD0iI0YxRjFGMSIgaGVpZ2h0PSIzMi44NDM4IiByeD0iMTIuNSIgcnk9IjEyLjUiIHN0eWxlPSJzdHJva2U6IzE4MTgxODtzdHJva2Utd2lkdGg6MC41OyIgd2lkdGg9IjE0MCIgeD0iMjMxLjUiIHk9IjI1MC45Mzc1Ii8+PHRleHQgZmlsbD0iIzAwMDAwMCIgZm9udC1mYW1pbHk9InNhbnMtc2VyaWYiIGZvbnQtc2l6ZT0iMTIiIGxlbmd0aEFkanVzdD0ic3BhY2luZyIgdGV4dExlbmd0aD0iMTIwIiB4PSIyNDEuNSIgeT0iMjcyLjI4MTMiPiYjMjEwMTk7JiMyNDMxNDsmIzI2MDMyOyYjMzAzNDA7JiMyNTM1MTsmIzI2NjMxOyYjMjU5Njg7JiMyNTQ1NDsmIzI1OTkxOyYjMjAyMTQ7PC90ZXh0Pjxwb2x5Z29uIGZpbGw9IiNGMUYxRjEiIHBvaW50cz0iMjE5LDI4OS43ODEzLDIzMSwzMDEuNzgxMywyMTksMzEzLjc4MTMsMjA3LDMwMS43ODEzLDIxOSwyODkuNzgxMyIgc3R5bGU9InN0cm9rZTojMTgxODE4O3N0cm9rZS13aWR0aDowLjU7Ii8+PHJlY3QgZmlsbD0iI0YxRjFGMSIgaGVpZ2h0PSIzMi44NDM4IiByeD0iMTIuNSIgcnk9IjEyLjUiIHN0eWxlPSJzdHJva2U6IzE4MTgxODtzdHJva2Utd2lkdGg6MC41OyIgd2lkdGg9IjgwIiB4PSIxNzkiIHk9IjMzMy43ODEzIi8+PHRleHQgZmlsbD0iIzAwMDAwMCIgZm9udC1mYW1pbHk9InNhbnMtc2VyaWYiIGZvbnQtc2l6ZT0iMTIiIGxlbmd0aEFkanVzdD0ic3BhY2luZyIgdGV4dExlbmd0aD0iNjAiIHg9IjE4OSIgeT0iMzU1LjEyNSI+JiMyNTk2ODsmIzI1NDU0OyYjMzkwNDQ7JiMyMjc4ODsmIzI5NzAyOzwvdGV4dD48cG9seWdvbiBmaWxsPSIjRjFGMUYxIiBwb2ludHM9IjE3NSwzODYuNjI1LDI2MywzODYuNjI1LDI3NSwzOTguNjI1LDI2Myw0MTAuNjI1LDE3NSw0MTAuNjI1LDE2MywzOTguNjI1LDE3NSwzODYuNjI1IiBzdHlsZT0ic3Ryb2tlOiMxODE4MTg7c3Ryb2tlLXdpZHRoOjAuNTsiLz48dGV4dCBmaWxsPSIjMDAwMDAwIiBmb250LWZhbWlseT0ic2Fucy1zZXJpZiIgZm9udC1zaXplPSIxMSIgbGVuZ3RoQWRqdXN0PSJzcGFjaW5nIiB0ZXh0TGVuZ3RoPSI4OCIgeD0iMTc1IiB5PSI0MDMuMTM2NyI+JiMyNjE1OTsmIzIxNTQyOyYjMjYzNzc7JiMxOTk4MTsmIzMzMzkxOyYjMjUzNTE7JiMyNjYzMTsmIzY1MzExOzwvdGV4dD48dGV4dCBmaWxsPSIjMDAwMDAwIiBmb250LWZhbWlseT0ic2Fucy1zZXJpZiIgZm9udC1zaXplPSIxMSIgbGVuZ3RoQWRqdXN0PSJzcGFjaW5nIiB0ZXh0TGVuZ3RoPSIxMSIgeD0iMTUyIiB5PSIzOTcuMjUiPiYjMjYxNTk7PC90ZXh0Pjx0ZXh0IGZpbGw9IiMwMDAwMDAiIGZvbnQtZmFtaWx5PSJzYW5zLXNlcmlmIiBmb250LXNpemU9IjExIiBsZW5ndGhBZGp1c3Q9InNwYWNpbmciIHRleHRMZW5ndGg9IjExIiB4PSIyNzUiIHk9IjM5Ny4yNSI+JiMyMTU0Mjs8L3RleHQ+PHJlY3QgZmlsbD0iI0YxRjFGMSIgaGVpZ2h0PSIzMi44NDM4IiByeD0iMTIuNSIgcnk9IjEyLjUiIHN0eWxlPSJzdHJva2U6IzE4MTgxODtzdHJva2Utd2lkdGg6MC41OyIgd2lkdGg9IjkyIiB4PSI5OSIgeT0iNDIwLjYyNSIvPjx0ZXh0IGZpbGw9IiMwMDAwMDAiIGZvbnQtZmFtaWx5PSJzYW5zLXNlcmlmIiBmb250LXNpemU9IjEyIiBsZW5ndGhBZGp1c3Q9InNwYWNpbmciIHRleHRMZW5ndGg9IjcyIiB4PSIxMDkiIHk9IjQ0MS45Njg4Ij4mIzI5OTgzOyYjMjUxMDQ7JiMyMTU3ODsmIzM1Njg2OyYjMjA0NDk7JiMyNDY4Nzs8L3RleHQ+PHJlY3QgZmlsbD0iI0YxRjFGMSIgaGVpZ2h0PSIzMi44NDM4IiByeD0iMTIuNSIgcnk9IjEyLjUiIHN0eWxlPSJzdHJva2U6IzE4MTgxODtzdHJva2Utd2lkdGg6MC41OyIgd2lkdGg9IjE0MCIgeD0iNzUiIHk9IjQ3My40Njg4Ii8+PHRleHQgZmlsbD0iIzAwMDAwMCIgZm9udC1mYW1pbHk9InNhbnMtc2VyaWYiIGZvbnQtc2l6ZT0iMTIiIGxlbmd0aEFkanVzdD0ic3BhY2luZyIgdGV4dExlbmd0aD0iMTIwIiB4PSI4NSIgeT0iNDk0LjgxMjUiPiYjMjU1NTI7JiMzMTAzNDsmIzI5OTkyOyYjMjUxNDM7JiMyMjc4ODsmIzI5NzAyOyYjMTk5ODE7JiMzMzM5MTsmIzI1MzUxOyYjMjY2MzE7PC90ZXh0PjxyZWN0IGZpbGw9IiNGMUYxRjEiIGhlaWdodD0iMzIuODQzOCIgcng9IjEyLjUiIHJ5PSIxMi41IiBzdHlsZT0ic3Ryb2tlOiMxODE4MTg7c3Ryb2tlLXdpZHRoOjAuNTsiIHdpZHRoPSI5MiIgeD0iMjQ3IiB5PSI0MjAuNjI1Ii8+PHRleHQgZmlsbD0iIzAwMDAwMCIgZm9udC1mYW1pbHk9InNhbnMtc2VyaWYiIGZvbnQtc2l6ZT0iMTIiIGxlbmd0aEFkanVzdD0ic3BhY2luZyIgdGV4dExlbmd0aD0iNzIiIHg9IjI1NyIgeT0iNDQxLjk2ODgiPiYjMzY4MTY7JiMzNDg5MjsmIzIwMjQ4OyYjMjEyNzA7JiMzMTYzOTsmIzI3ODYxOzwvdGV4dD48cmVjdCBmaWxsPSIjRjFGMUYxIiBoZWlnaHQ9IjMyLjg0MzgiIHJ4PSIxMi41IiByeT0iMTIuNSIgc3R5bGU9InN0cm9rZTojMTgxODE4O3N0cm9rZS13aWR0aDowLjU7IiB3aWR0aD0iMTE2IiB4PSIyMzUiIHk9IjQ3My40Njg4Ii8+PHRleHQgZmlsbD0iIzAwMDAwMCIgZm9udC1mYW1pbHk9InNhbnMtc2VyaWYiIGZvbnQtc2l6ZT0iMTIiIGxlbmd0aEFkanVzdD0ic3BhY2luZyIgdGV4dExlbmd0aD0iOTYiIHg9IjI0NSIgeT0iNDk0LjgxMjUiPiYjMjk5ODM7JiMyNTEwNDsmIzI1MzUxOyYjMjY2MzE7JiMyMDI0ODsmIzIxMjcwOyYjMjQzMTQ7JiMzNTc1ODs8L3RleHQ+PHJlY3QgZmlsbD0iI0YxRjFGMSIgaGVpZ2h0PSIzMi44NDM4IiByeD0iMTIuNSIgcnk9IjEyLjUiIHN0eWxlPSJzdHJva2U6IzE4MTgxODtzdHJva2Utd2lkdGg6MC41OyIgd2lkdGg9IjExNiIgeD0iMjM1IiB5PSI1MjYuMzEyNSIvPjx0ZXh0IGZpbGw9IiMwMDAwMDAiIGZvbnQtZmFtaWx5PSJzYW5zLXNlcmlmIiBmb250LXNpemU9IjEyIiBsZW5ndGhBZGp1c3Q9InNwYWNpbmciIHRleHRMZW5ndGg9Ijk2IiB4PSIyNDUiIHk9IjU0Ny42NTYzIj4mIzI1NTUyOyYjMzEwMzQ7JiMyOTk5MjsmIzI1MTQzOyYjMjAyNDg7JiMyMTI3MDsmIzMyNDY3OyYjMjY1MjQ7PC90ZXh0Pjxwb2x5Z29uIGZpbGw9IiNGMUYxRjEiIHBvaW50cz0iMjE5LDU2NS4xNTYzLDIzMSw1NzcuMTU2MywyMTksNTg5LjE1NjMsMjA3LDU3Ny4xNTYzLDIxOSw1NjUuMTU2MyIgc3R5bGU9InN0cm9rZTojMTgxODE4O3N0cm9rZS13aWR0aDowLjU7Ii8+PHJlY3QgZmlsbD0iI0YxRjFGMSIgaGVpZ2h0PSIzMi44NDM4IiByeD0iMTIuNSIgcnk9IjEyLjUiIHN0eWxlPSJzdHJva2U6IzE4MTgxODtzdHJva2Utd2lkdGg6MC41OyIgd2lkdGg9IjkyIiB4PSIxNzMiIHk9IjYwOS4xNTYzIi8+PHRleHQgZmlsbD0iIzAwMDAwMCIgZm9udC1mYW1pbHk9InNhbnMtc2VyaWYiIGZvbnQtc2l6ZT0iMTIiIGxlbmd0aEFkanVzdD0ic3BhY2luZyIgdGV4dExlbmd0aD0iNzIiIHg9IjE4MyIgeT0iNjMwLjUiPiYjMjYzNTY7JiMyNjAzMjsmIzI1MzUxOyYjMjY2MzE7JiMyNTk2ODsmIzI1NDU0OzwvdGV4dD48cmVjdCBmaWxsPSIjRjFGMUYxIiBoZWlnaHQ9IjMyLjg0MzgiIHJ4PSIxMi41IiByeT0iMTIuNSIgc3R5bGU9InN0cm9rZTojMTgxODE4O3N0cm9rZS13aWR0aDowLjU7IiB3aWR0aD0iOTIiIHg9IjE3MyIgeT0iNjYyIi8+PHRleHQgZmlsbD0iIzAwMDAwMCIgZm9udC1mYW1pbHk9InNhbnMtc2VyaWYiIGZvbnQtc2l6ZT0iMTIiIGxlbmd0aEFkanVzdD0ic3BhY2luZyIgdGV4dExlbmd0aD0iNzIiIHg9IjE4MyIgeT0iNjgzLjM0MzgiPiYjMjA0NDU7JiMyMzM4NDsmIzI1MzUxOyYjMjY2MzE7JiMyNTk2ODsmIzI1NDU0OzwvdGV4dD48bGluZSBzdHlsZT0ic3Ryb2tlOiMwMDAwMDA7c3Ryb2tlLXdpZHRoOjEuNTsiIHgxPSI2OSIgeDI9IjY5IiB5MT0iNDYuOTg0NCIgeTI9Ijc4OS42ODc1Ii8+PGxpbmUgc3R5bGU9InN0cm9rZTojMDAwMDAwO3N0cm9rZS13aWR0aDoxLjU7IiB4MT0iMzc1LjUiIHgyPSIzNzUuNSIgeTE9IjQ2Ljk4NDQiIHkyPSI3ODkuNjg3NSIvPjxsaW5lIHN0eWxlPSJzdHJva2U6IzE4MTgxODtzdHJva2Utd2lkdGg6MS4wOyIgeDE9IjQzIiB4Mj0iNDMiIHkxPSI5MS4yNSIgeTI9IjExMS4yNSIvPjxwb2x5Z29uIGZpbGw9IiMxODE4MTgiIHBvaW50cz0iMzksMTAxLjI1LDQzLDExMS4yNSw0NywxMDEuMjUsNDMsMTA1LjI1IiBzdHlsZT0ic3Ryb2tlOiMxODE4MTg7c3Ryb2tlLXdpZHRoOjEuMDsiLz48bGluZSBzdHlsZT0ic3Ryb2tlOiMxODE4MTg7c3Ryb2tlLXdpZHRoOjEuMDsiIHgxPSI0MyIgeDI9IjQzIiB5MT0iNzQ3LjY4NzUiIHkyPSI3NjcuNjg3NSIvPjxwb2x5Z29uIGZpbGw9IiMxODE4MTgiIHBvaW50cz0iMzksNzU3LjY4NzUsNDMsNzY3LjY4NzUsNDcsNzU3LjY4NzUsNDMsNzYxLjY4NzUiIHN0eWxlPSJzdHJva2U6IzE4MTgxODtzdHJva2Utd2lkdGg6MS4wOyIvPjxsaW5lIHN0eWxlPSJzdHJva2U6IzE4MTgxODtzdHJva2Utd2lkdGg6MS4wOyIgeDE9IjMwMS41IiB4Mj0iMzAxLjUiIHkxPSIyMzAuOTM3NSIgeTI9IjI1MC45Mzc1Ii8+PHBvbHlnb24gZmlsbD0iIzE4MTgxOCIgcG9pbnRzPSIyOTcuNSwyNDAuOTM3NSwzMDEuNSwyNTAuOTM3NSwzMDUuNSwyNDAuOTM3NSwzMDEuNSwyNDQuOTM3NSIgc3R5bGU9InN0cm9rZTojMTgxODE4O3N0cm9rZS13aWR0aDoxLjA7Ii8+PGxpbmUgc3R5bGU9InN0cm9rZTojMTgxODE4O3N0cm9rZS13aWR0aDoxLjA7IiB4MT0iMTQ2LjUiIHgyPSIxMzYuNSIgeTE9IjE3Ni4wOTM4IiB5Mj0iMTc2LjA5MzgiLz48bGluZSBzdHlsZT0ic3Ryb2tlOiMxODE4MTg7c3Ryb2tlLXdpZHRoOjEuMDsiIHgxPSIxMzYuNSIgeDI9IjEzNi41IiB5MT0iMTc2LjA5MzgiIHkyPSIxOTguMDkzOCIvPjxwb2x5Z29uIGZpbGw9IiMxODE4MTgiIHBvaW50cz0iMTMyLjUsMTg4LjA5MzgsMTM2LjUsMTk4LjA5MzgsMTQwLjUsMTg4LjA5MzgsMTM2LjUsMTkyLjA5MzgiIHN0eWxlPSJzdHJva2U6IzE4MTgxODtzdHJva2Utd2lkdGg6MS4wOyIvPjxsaW5lIHN0eWxlPSJzdHJva2U6IzE4MTgxODtzdHJva2Utd2lkdGg6MS4wOyIgeDE9IjI5MS41IiB4Mj0iMzAxLjUiIHkxPSIxNzYuMDkzOCIgeTI9IjE3Ni4wOTM4Ii8+PGxpbmUgc3R5bGU9InN0cm9rZTojMTgxODE4O3N0cm9rZS13aWR0aDoxLjA7IiB4MT0iMzAxLjUiIHgyPSIzMDEuNSIgeTE9IjE3Ni4wOTM4IiB5Mj0iMTk4LjA5MzgiLz48cG9seWdvbiBmaWxsPSIjMTgxODE4IiBwb2ludHM9IjI5Ny41LDE4OC4wOTM4LDMwMS41LDE5OC4wOTM4LDMwNS41LDE4OC4wOTM4LDMwMS41LDE5Mi4wOTM4IiBzdHlsZT0ic3Ryb2tlOiMxODE4MTg7c3Ryb2tlLXdpZHRoOjEuMDsiLz48bGluZSBzdHlsZT0ic3Ryb2tlOiMxODE4MTg7c3Ryb2tlLXdpZHRoOjEuMDsiIHgxPSIxMzYuNSIgeDI9IjEzNi41IiB5MT0iMjMwLjkzNzUiIHkyPSIzMDEuNzgxMyIvPjxsaW5lIHN0eWxlPSJzdHJva2U6IzE4MTgxODtzdHJva2Utd2lkdGg6MS4wOyIgeDE9IjEzNi41IiB4Mj0iMjA3IiB5MT0iMzAxLjc4MTMiIHkyPSIzMDEuNzgxMyIvPjxwb2x5Z29uIGZpbGw9IiMxODE4MTgiIHBvaW50cz0iMTk3LDI5Ny43ODEzLDIwNywzMDEuNzgxMywxOTcsMzA1Ljc4MTMsMjAxLDMwMS43ODEzIiBzdHlsZT0ic3Ryb2tlOiMxODE4MTg7c3Ryb2tlLXdpZHRoOjEuMDsiLz48bGluZSBzdHlsZT0ic3Ryb2tlOiMxODE4MTg7c3Ryb2tlLXdpZHRoOjEuMDsiIHgxPSIzMDEuNSIgeDI9IjMwMS41IiB5MT0iMjgzLjc4MTMiIHkyPSIzMDEuNzgxMyIvPjxsaW5lIHN0eWxlPSJzdHJva2U6IzE4MTgxODtzdHJva2Utd2lkdGg6MS4wOyIgeDE9IjMwMS41IiB4Mj0iMjMxIiB5MT0iMzAxLjc4MTMiIHkyPSIzMDEuNzgxMyIvPjxwb2x5Z29uIGZpbGw9IiMxODE4MTgiIHBvaW50cz0iMjQxLDI5Ny43ODEzLDIzMSwzMDEuNzgxMywyNDEsMzA1Ljc4MTMsMjM3LDMwMS43ODEzIiBzdHlsZT0ic3Ryb2tlOiMxODE4MTg7c3Ryb2tlLXdpZHRoOjEuMDsiLz48bGluZSBzdHlsZT0ic3Ryb2tlOiMxODE4MTg7c3Ryb2tlLXdpZHRoOjEuMDsiIHgxPSIyMTkiIHgyPSIyMTkiIHkxPSIzMTMuNzgxMyIgeTI9IjMzMy43ODEzIi8+PHBvbHlnb24gZmlsbD0iIzE4MTgxOCIgcG9pbnRzPSIyMTUsMzIzLjc4MTMsMjE5LDMzMy43ODEzLDIyMywzMjMuNzgxMywyMTksMzI3Ljc4MTMiIHN0eWxlPSJzdHJva2U6IzE4MTgxODtzdHJva2Utd2lkdGg6MS4wOyIvPjxsaW5lIHN0eWxlPSJzdHJva2U6IzE4MTgxODtzdHJva2Utd2lkdGg6MS4wOyIgeDE9IjE0NSIgeDI9IjE0NSIgeTE9IjQ1My40Njg4IiB5Mj0iNDczLjQ2ODgiLz48cG9seWdvbiBmaWxsPSIjMTgxODE4IiBwb2ludHM9IjE0MSw0NjMuNDY4OCwxNDUsNDczLjQ2ODgsMTQ5LDQ2My40Njg4LDE0NSw0NjcuNDY4OCIgc3R5bGU9InN0cm9rZTojMTgxODE4O3N0cm9rZS13aWR0aDoxLjA7Ii8+PGxpbmUgc3R5bGU9InN0cm9rZTojMTgxODE4O3N0cm9rZS13aWR0aDoxLjA7IiB4MT0iMjkzIiB4Mj0iMjkzIiB5MT0iNDUzLjQ2ODgiIHkyPSI0NzMuNDY4OCIvPjxwb2x5Z29uIGZpbGw9IiMxODE4MTgiIHBvaW50cz0iMjg5LDQ2My40Njg4LDI5Myw0NzMuNDY4OCwyOTcsNDYzLjQ2ODgsMjkzLDQ2Ny40Njg4IiBzdHlsZT0ic3Ryb2tlOiMxODE4MTg7c3Ryb2tlLXdpZHRoOjEuMDsiLz48bGluZSBzdHlsZT0ic3Ryb2tlOiMxODE4MTg7c3Ryb2tlLXdpZHRoOjEuMDsiIHgxPSIyOTMiIHgyPSIyOTMiIHkxPSI1MDYuMzEyNSIgeTI9IjUyNi4zMTI1Ii8+PHBvbHlnb24gZmlsbD0iIzE4MTgxOCIgcG9pbnRzPSIyODksNTE2LjMxMjUsMjkzLDUyNi4zMTI1LDI5Nyw1MTYuMzEyNSwyOTMsNTIwLjMxMjUiIHN0eWxlPSJzdHJva2U6IzE4MTgxODtzdHJva2Utd2lkdGg6MS4wOyIvPjxsaW5lIHN0eWxlPSJzdHJva2U6IzE4MTgxODtzdHJva2Utd2lkdGg6MS4wOyIgeDE9IjE2MyIgeDI9IjE0NSIgeTE9IjM5OC42MjUiIHkyPSIzOTguNjI1Ii8+PGxpbmUgc3R5bGU9InN0cm9rZTojMTgxODE4O3N0cm9rZS13aWR0aDoxLjA7IiB4MT0iMTQ1IiB4Mj0iMTQ1IiB5MT0iMzk4LjYyNSIgeTI9IjQyMC42MjUiLz48cG9seWdvbiBmaWxsPSIjMTgxODE4IiBwb2ludHM9IjE0MSw0MTAuNjI1LDE0NSw0MjAuNjI1LDE0OSw0MTAuNjI1LDE0NSw0MTQuNjI1IiBzdHlsZT0ic3Ryb2tlOiMxODE4MTg7c3Ryb2tlLXdpZHRoOjEuMDsiLz48bGluZSBzdHlsZT0ic3Ryb2tlOiMxODE4MTg7c3Ryb2tlLXdpZHRoOjEuMDsiIHgxPSIyNzUiIHgyPSIyOTMiIHkxPSIzOTguNjI1IiB5Mj0iMzk4LjYyNSIvPjxsaW5lIHN0eWxlPSJzdHJva2U6IzE4MTgxODtzdHJva2Utd2lkdGg6MS4wOyIgeDE9IjI5MyIgeDI9IjI5MyIgeTE9IjM5OC42MjUiIHkyPSI0MjAuNjI1Ii8+PHBvbHlnb24gZmlsbD0iIzE4MTgxOCIgcG9pbnRzPSIyODksNDEwLjYyNSwyOTMsNDIwLjYyNSwyOTcsNDEwLjYyNSwyOTMsNDE0LjYyNSIgc3R5bGU9InN0cm9rZTojMTgxODE4O3N0cm9rZS13aWR0aDoxLjA7Ii8+PGxpbmUgc3R5bGU9InN0cm9rZTojMTgxODE4O3N0cm9rZS13aWR0aDoxLjA7IiB4MT0iMTQ1IiB4Mj0iMTQ1IiB5MT0iNTA2LjMxMjUiIHkyPSI1NzcuMTU2MyIvPjxsaW5lIHN0eWxlPSJzdHJva2U6IzE4MTgxODtzdHJva2Utd2lkdGg6MS4wOyIgeDE9IjE0NSIgeDI9IjIwNyIgeTE9IjU3Ny4xNTYzIiB5Mj0iNTc3LjE1NjMiLz48cG9seWdvbiBmaWxsPSIjMTgxODE4IiBwb2ludHM9IjE5Nyw1NzMuMTU2MywyMDcsNTc3LjE1NjMsMTk3LDU4MS4xNTYzLDIwMSw1NzcuMTU2MyIgc3R5bGU9InN0cm9rZTojMTgxODE4O3N0cm9rZS13aWR0aDoxLjA7Ii8+PGxpbmUgc3R5bGU9InN0cm9rZTojMTgxODE4O3N0cm9rZS13aWR0aDoxLjA7IiB4MT0iMjkzIiB4Mj0iMjkzIiB5MT0iNTU5LjE1NjMiIHkyPSI1NzcuMTU2MyIvPjxsaW5lIHN0eWxlPSJzdHJva2U6IzE4MTgxODtzdHJva2Utd2lkdGg6MS4wOyIgeDE9IjI5MyIgeDI9IjIzMSIgeTE9IjU3Ny4xNTYzIiB5Mj0iNTc3LjE1NjMiLz48cG9seWdvbiBmaWxsPSIjMTgxODE4IiBwb2ludHM9IjI0MSw1NzMuMTU2MywyMzEsNTc3LjE1NjMsMjQxLDU4MS4xNTYzLDIzNyw1NzcuMTU2MyIgc3R5bGU9InN0cm9rZTojMTgxODE4O3N0cm9rZS13aWR0aDoxLjA7Ii8+PGxpbmUgc3R5bGU9InN0cm9rZTojMTgxODE4O3N0cm9rZS13aWR0aDoxLjA7IiB4MT0iMjE5IiB4Mj0iMjE5IiB5MT0iMzY2LjYyNSIgeTI9IjM4Ni42MjUiLz48cG9seWdvbiBmaWxsPSIjMTgxODE4IiBwb2ludHM9IjIxNSwzNzYuNjI1LDIxOSwzODYuNjI1LDIyMywzNzYuNjI1LDIxOSwzODAuNjI1IiBzdHlsZT0ic3Ryb2tlOiMxODE4MTg7c3Ryb2tlLXdpZHRoOjEuMDsiLz48bGluZSBzdHlsZT0ic3Ryb2tlOiMxODE4MTg7c3Ryb2tlLXdpZHRoOjEuMDsiIHgxPSIyMTkiIHgyPSIyMTkiIHkxPSI1ODkuMTU2MyIgeTI9IjYwOS4xNTYzIi8+PHBvbHlnb24gZmlsbD0iIzE4MTgxOCIgcG9pbnRzPSIyMTUsNTk5LjE1NjMsMjE5LDYwOS4xNTYzLDIyMyw1OTkuMTU2MywyMTksNjAzLjE1NjMiIHN0eWxlPSJzdHJva2U6IzE4MTgxODtzdHJva2Utd2lkdGg6MS4wOyIvPjxsaW5lIHN0eWxlPSJzdHJva2U6IzE4MTgxODtzdHJva2Utd2lkdGg6MS4wOyIgeDE9IjIxOSIgeDI9IjIxOSIgeTE9IjY0MiIgeTI9IjY2MiIvPjxwb2x5Z29uIGZpbGw9IiMxODE4MTgiIHBvaW50cz0iMjE1LDY1MiwyMTksNjYyLDIyMyw2NTIsMjE5LDY1NiIgc3R5bGU9InN0cm9rZTojMTgxODE4O3N0cm9rZS13aWR0aDoxLjA7Ii8+PGxpbmUgc3R5bGU9InN0cm9rZTojMTgxODE4O3N0cm9rZS13aWR0aDoxLjA7IiB4MT0iNDMiIHgyPSI0MyIgeTE9IjE0NC4wOTM4IiB5Mj0iMTQ5LjA5MzgiLz48bGluZSBzdHlsZT0ic3Ryb2tlOiMxODE4MTg7c3Ryb2tlLXdpZHRoOjEuMDsiIHgxPSI0MyIgeDI9IjIxOSIgeTE9IjE0OS4wOTM4IiB5Mj0iMTQ5LjA5MzgiLz48bGluZSBzdHlsZT0ic3Ryb2tlOiMxODE4MTg7c3Ryb2tlLXdpZHRoOjEuMDsiIHgxPSIyMTkiIHgyPSIyMTkiIHkxPSIxNDkuMDkzOCIgeTI9IjE2NC4wOTM4Ii8+PHBvbHlnb24gZmlsbD0iIzE4MTgxOCIgcG9pbnRzPSIyMTUsMTU0LjA5MzgsMjE5LDE2NC4wOTM4LDIyMywxNTQuMDkzOCwyMTksMTU4LjA5MzgiIHN0eWxlPSJzdHJva2U6IzE4MTgxODtzdHJva2Utd2lkdGg6MS4wOyIvPjxsaW5lIHN0eWxlPSJzdHJva2U6IzE4MTgxODtzdHJva2Utd2lkdGg6MS4wOyIgeDE9IjIxOSIgeDI9IjIxOSIgeTE9IjY5NC44NDM4IiB5Mj0iNjk5Ljg0MzgiLz48bGluZSBzdHlsZT0ic3Ryb2tlOiMxODE4MTg7c3Ryb2tlLXdpZHRoOjEuMDsiIHgxPSIyMTkiIHgyPSI0MyIgeTE9IjY5OS44NDM4IiB5Mj0iNjk5Ljg0MzgiLz48bGluZSBzdHlsZT0ic3Ryb2tlOiMxODE4MTg7c3Ryb2tlLXdpZHRoOjEuMDsiIHgxPSI0MyIgeDI9IjQzIiB5MT0iNjk5Ljg0MzgiIHkyPSI3MTQuODQzOCIvPjxwb2x5Z29uIGZpbGw9IiMxODE4MTgiIHBvaW50cz0iMzksNzA0Ljg0MzgsNDMsNzE0Ljg0MzgsNDcsNzA0Ljg0MzgsNDMsNzA4Ljg0MzgiIHN0eWxlPSJzdHJva2U6IzE4MTgxODtzdHJva2Utd2lkdGg6MS4wOyIvPjx0ZXh0IGZpbGw9IiMwMDAwMDAiIGZvbnQtZmFtaWx5PSJzYW5zLXNlcmlmIiBmb250LXNpemU9IjE4IiBsZW5ndGhBZGp1c3Q9InNwYWNpbmciIHRleHRMZW5ndGg9IjM2IiB4PSIyNCIgeT0iNjQiPiYjMjk5OTI7JiMyNTE0Mzs8L3RleHQ+PHRleHQgZmlsbD0iIzAwMDAwMCIgZm9udC1mYW1pbHk9InNhbnMtc2VyaWYiIGZvbnQtc2l6ZT0iMTgiIGxlbmd0aEFkanVzdD0ic3BhY2luZyIgdGV4dExlbmd0aD0iMzYiIHg9IjIwNC4yNSIgeT0iNjQiPiYjMzE5OTU7JiMzMjQ3OTs8L3RleHQ+PCEtLVNSQz1bUFA3REppOUc0OE50em9jd1g1VGVkeVI0NGZpR0REOGIycWFnQlY5TjBySUtPaUtXVGFEQjFDTEdqMl9KY05qUC1HZlVrUVlqUmNWY1YzRmRaQXhmSExOMmZlYnRQaDhQR0RGMXZvaHI2dUhLUUN6N1FyS1hQVnRXTDJTb2xPeFdoUXp5REhPSFpSbUFxR2ZJM1dTWHM1RU8zUzNyMUdOUURVV3lPTi1FaFUxWnUtS2JfS1dqeEdScEg2Umo1TklTejhYMnI2OVBiTkFTbWxsT2lVYmFCSlFwem93U0Z1MHJXaVY2endtQ3JYMllESmZwVWNFOFZRQTVaZmI0Qm5uTUVqR0FkQkNoUmt5RGMxWktoWWNmTXo2ajl3eWpMVy01X0QtOWpFVVhQU0ZiMVBqRGF0WUNyTDM5dFlNR1FLUk0wdWpqRGN3QUM2Ym1YR2lVc2Z3UXBmZFJPNDdtWHhyTkhMc3lUTl9EMzlWU1NEZWpMb05uWUFVVUJWd3lKQ1E1bC1zVEFWbnRub1VWXS0tPjwvZz48L3N2Zz4=;" vertex="1" parent="1">
            <mxGeometry x="860" y="750" width="397" height="801" as="geometry" />
          </mxCell>
        </UserObject>
        <UserObject label="" plantUmlData="{&#xa;  &quot;data&quot;: &quot;@startuml\n|用户|\nstart\n:登录系统;\n:进入指标优化模块;\n:选择指标;\n|系统|\n:展示指标基本信息;\n:展示指标历史趋势;\n:展示指标所属领域的平均值;\n:展示指标在当前时间段内的异常数据;\n:根据用户需求提供指标优化建议;\n|用户|\n:查看指标优化建议;\n:确认是否采纳建议;\nif (采纳建议?) then (是)\n  |系统|\n  :执行优化操作;\n  :生成优化结果;\n  :展示优化结果;\nelse (否)\n  |用户|\n  :退出指标优化模块;\nendif\n:退出系统;\nstop\n@enduml\n&quot;,&#xa;  &quot;format&quot;: &quot;svg&quot;&#xa;}" id="lj0ikvdqPGdOUn9qGZUp-6">
          <mxCell style="shape=image;noLabel=1;verticalAlign=top;aspect=fixed;imageAspect=0;image=data:image/svg+xml,PD94bWwgdmVyc2lvbj0iMS4wIiBlbmNvZGluZz0idXMtYXNjaWkiIHN0YW5kYWxvbmU9Im5vIj8+PHN2ZyB4bWxucz0iaHR0cDovL3d3dy53My5vcmcvMjAwMC9zdmciIHhtbG5zOnhsaW5rPSJodHRwOi8vd3d3LnczLm9yZy8xOTk5L3hsaW5rIiBjb250ZW50U3R5bGVUeXBlPSJ0ZXh0L2NzcyIgaGVpZ2h0PSI5MjdweCIgcHJlc2VydmVBc3BlY3RSYXRpbz0ibm9uZSIgc3R5bGU9IndpZHRoOjQ0OHB4O2hlaWdodDo5MjdweDtiYWNrZ3JvdW5kOiNGRkZGRkY7IiB2ZXJzaW9uPSIxLjEiIHZpZXdCb3g9IjAgMCA0NDggOTI3IiB3aWR0aD0iNDQ4cHgiIHpvb21BbmRQYW49Im1hZ25pZnkiPjxkZWZzLz48Zz48cmVjdCBmaWxsPSJub25lIiBoZWlnaHQ9IjE5LjI2NTYiIHN0eWxlPSJzdHJva2U6bm9uZTtzdHJva2Utd2lkdGg6MS4wOyIgd2lkdGg9IjQxNS41IiB4PSIxNSIgeT0iMTEiLz48ZWxsaXBzZSBjeD0iNzkiIGN5PSI0NS4yNjU2IiBmaWxsPSIjMjIyMjIyIiByeD0iMTAiIHJ5PSIxMCIgc3R5bGU9InN0cm9rZTojMjIyMjIyO3N0cm9rZS13aWR0aDoxLjA7Ii8+PHJlY3QgZmlsbD0iI0YxRjFGMSIgaGVpZ2h0PSIzMi44NDM4IiByeD0iMTIuNSIgcnk9IjEyLjUiIHN0eWxlPSJzdHJva2U6IzE4MTgxODtzdHJva2Utd2lkdGg6MC41OyIgd2lkdGg9IjY4IiB4PSI0NSIgeT0iNzUuMjY1NiIvPjx0ZXh0IGZpbGw9IiMwMDAwMDAiIGZvbnQtZmFtaWx5PSJzYW5zLXNlcmlmIiBmb250LXNpemU9IjEyIiBsZW5ndGhBZGp1c3Q9InNwYWNpbmciIHRleHRMZW5ndGg9IjQ4IiB4PSI1NSIgeT0iOTYuNjA5NCI+JiMzMDMzMTsmIzI0NDA1OyYjMzE5OTU7JiMzMjQ3OTs8L3RleHQ+PHJlY3QgZmlsbD0iI0YxRjFGMSIgaGVpZ2h0PSIzMi44NDM4IiByeD0iMTIuNSIgcnk9IjEyLjUiIHN0eWxlPSJzdHJva2U6IzE4MTgxODtzdHJva2Utd2lkdGg6MC41OyIgd2lkdGg9IjExNiIgeD0iMjEiIHk9IjEyOC4xMDk0Ii8+PHRleHQgZmlsbD0iIzAwMDAwMCIgZm9udC1mYW1pbHk9InNhbnMtc2VyaWYiIGZvbnQtc2l6ZT0iMTIiIGxlbmd0aEFkanVzdD0ic3BhY2luZyIgdGV4dExlbmd0aD0iOTYiIHg9IjMxIiB5PSIxNDkuNDUzMSI+JiMzNjgyNzsmIzIwODM3OyYjMjUzNTE7JiMyNjYzMTsmIzIwMjQ4OyYjMjEyNzA7JiMyNzE2OTsmIzIyMzU5OzwvdGV4dD48cmVjdCBmaWxsPSIjRjFGMUYxIiBoZWlnaHQ9IjMyLjg0MzgiIHJ4PSIxMi41IiByeT0iMTIuNSIgc3R5bGU9InN0cm9rZTojMTgxODE4O3N0cm9rZS13aWR0aDowLjU7IiB3aWR0aD0iNjgiIHg9IjQ1IiB5PSIxODAuOTUzMSIvPjx0ZXh0IGZpbGw9IiMwMDAwMDAiIGZvbnQtZmFtaWx5PSJzYW5zLXNlcmlmIiBmb250LXNpemU9IjEyIiBsZW5ndGhBZGp1c3Q9InNwYWNpbmciIHRleHRMZW5ndGg9IjQ4IiB4PSI1NSIgeT0iMjAyLjI5NjkiPiYjMzY4NzM7JiMyNTMyMTsmIzI1MzUxOyYjMjY2MzE7PC90ZXh0PjxyZWN0IGZpbGw9IiNGMUYxRjEiIGhlaWdodD0iMzIuODQzOCIgcng9IjEyLjUiIHJ5PSIxMi41IiBzdHlsZT0ic3Ryb2tlOiMxODE4MTg7c3Ryb2tlLXdpZHRoOjAuNTsiIHdpZHRoPSIxMTYiIHg9IjIxIiB5PSI0OTguMDE1NiIvPjx0ZXh0IGZpbGw9IiMwMDAwMDAiIGZvbnQtZmFtaWx5PSJzYW5zLXNlcmlmIiBmb250LXNpemU9IjEyIiBsZW5ndGhBZGp1c3Q9InNwYWNpbmciIHRleHRMZW5ndGg9Ijk2IiB4PSIzMSIgeT0iNTE5LjM1OTQiPiYjMjY1OTc7JiMzMDQ3NTsmIzI1MzUxOyYjMjY2MzE7JiMyMDI0ODsmIzIxMjcwOyYjMjQzMTQ7JiMzNTc1ODs8L3RleHQ+PHJlY3QgZmlsbD0iI0YxRjFGMSIgaGVpZ2h0PSIzMi44NDM4IiByeD0iMTIuNSIgcnk9IjEyLjUiIHN0eWxlPSJzdHJva2U6IzE4MTgxODtzdHJva2Utd2lkdGg6MC41OyIgd2lkdGg9IjExNiIgeD0iMjEiIHk9IjU1MC44NTk0Ii8+PHRleHQgZmlsbD0iIzAwMDAwMCIgZm9udC1mYW1pbHk9InNhbnMtc2VyaWYiIGZvbnQtc2l6ZT0iMTIiIGxlbmd0aEFkanVzdD0ic3BhY2luZyIgdGV4dExlbmd0aD0iOTYiIHg9IjMxIiB5PSI1NzIuMjAzMSI+JiMzMDgzMDsmIzM1NzQ4OyYjMjYxNTk7JiMyMTU0MjsmIzM3MzE5OyYjMzI0MzU7JiMyNDMxNDsmIzM1NzU4OzwvdGV4dD48cG9seWdvbiBmaWxsPSIjRjFGMUYxIiBwb2ludHM9IjU0LDYwMy43MDMxLDEwNCw2MDMuNzAzMSwxMTYsNjE1LjcwMzEsMTA0LDYyNy43MDMxLDU0LDYyNy43MDMxLDQyLDYxNS43MDMxLDU0LDYwMy43MDMxIiBzdHlsZT0ic3Ryb2tlOiMxODE4MTg7c3Ryb2tlLXdpZHRoOjAuNTsiLz48dGV4dCBmaWxsPSIjMDAwMDAwIiBmb250LWZhbWlseT0ic2Fucy1zZXJpZiIgZm9udC1zaXplPSIxMSIgbGVuZ3RoQWRqdXN0PSJzcGFjaW5nIiB0ZXh0TGVuZ3RoPSI1MCIgeD0iNTQiIHk9IjYyMC4yMTQ4Ij4mIzM3MzE5OyYjMzI0MzU7JiMyNDMxNDsmIzM1NzU4Oz88L3RleHQ+PHRleHQgZmlsbD0iIzAwMDAwMCIgZm9udC1mYW1pbHk9InNhbnMtc2VyaWYiIGZvbnQtc2l6ZT0iMTEiIGxlbmd0aEFkanVzdD0ic3BhY2luZyIgdGV4dExlbmd0aD0iMTEiIHg9IjMxIiB5PSI2MTQuMzI4MSI+JiMyNjE1OTs8L3RleHQ+PHRleHQgZmlsbD0iIzAwMDAwMCIgZm9udC1mYW1pbHk9InNhbnMtc2VyaWYiIGZvbnQtc2l6ZT0iMTEiIGxlbmd0aEFkanVzdD0ic3BhY2luZyIgdGV4dExlbmd0aD0iMTEiIHg9IjExNiIgeT0iNjE0LjMyODEiPiYjMjE1NDI7PC90ZXh0PjxyZWN0IGZpbGw9IiNGMUYxRjEiIGhlaWdodD0iMzIuODQzOCIgcng9IjEyLjUiIHJ5PSIxMi41IiBzdHlsZT0ic3Ryb2tlOiMxODE4MTg7c3Ryb2tlLXdpZHRoOjAuNTsiIHdpZHRoPSIxMTYiIHg9IjgzIiB5PSI2NDcuNzAzMSIvPjx0ZXh0IGZpbGw9IiMwMDAwMDAiIGZvbnQtZmFtaWx5PSJzYW5zLXNlcmlmIiBmb250LXNpemU9IjEyIiBsZW5ndGhBZGp1c3Q9InNwYWNpbmciIHRleHRMZW5ndGg9Ijk2IiB4PSI5MyIgeT0iNjY5LjA0NjkiPiYjMzY4NjQ7JiMyMDk4NjsmIzI1MzUxOyYjMjY2MzE7JiMyMDI0ODsmIzIxMjcwOyYjMjcxNjk7JiMyMjM1OTs8L3RleHQ+PHBvbHlnb24gZmlsbD0iI0YxRjFGMSIgcG9pbnRzPSI3OSw3OTYuMjM0NCw5MSw4MDguMjM0NCw3OSw4MjAuMjM0NCw2Nyw4MDguMjM0NCw3OSw3OTYuMjM0NCIgc3R5bGU9InN0cm9rZTojMTgxODE4O3N0cm9rZS13aWR0aDowLjU7Ii8+PHJlY3QgZmlsbD0iI0YxRjFGMSIgaGVpZ2h0PSIzMi44NDM4IiByeD0iMTIuNSIgcnk9IjEyLjUiIHN0eWxlPSJzdHJva2U6IzE4MTgxODtzdHJva2Utd2lkdGg6MC41OyIgd2lkdGg9IjY4IiB4PSI0NSIgeT0iODQwLjIzNDQiLz48dGV4dCBmaWxsPSIjMDAwMDAwIiBmb250LWZhbWlseT0ic2Fucy1zZXJpZiIgZm9udC1zaXplPSIxMiIgbGVuZ3RoQWRqdXN0PSJzcGFjaW5nIiB0ZXh0TGVuZ3RoPSI0OCIgeD0iNTUiIHk9Ijg2MS41NzgxIj4mIzM2ODY0OyYjMjA5ODY7JiMzMTk5NTsmIzMyNDc5OzwvdGV4dD48ZWxsaXBzZSBjeD0iNzkiIGN5PSI5MDQuMDc4MSIgZmlsbD0ibm9uZSIgcng9IjExIiByeT0iMTEiIHN0eWxlPSJzdHJva2U6IzIyMjIyMjtzdHJva2Utd2lkdGg6MS4wOyIvPjxlbGxpcHNlIGN4PSI3OSIgY3k9IjkwNC4wNzgxIiBmaWxsPSIjMjIyMjIyIiByeD0iNiIgcnk9IjYiIHN0eWxlPSJzdHJva2U6IzExMTExMTtzdHJva2Utd2lkdGg6MS4wOyIvPjxsaW5lIHN0eWxlPSJzdHJva2U6IzAwMDAwMDtzdHJva2Utd2lkdGg6MS41OyIgeDE9IjE1IiB4Mj0iMTUiIHkxPSIxMSIgeTI9IjkxNS4wNzgxIi8+PHJlY3QgZmlsbD0iI0YxRjFGMSIgaGVpZ2h0PSIzMi44NDM4IiByeD0iMTIuNSIgcnk9IjEyLjUiIHN0eWxlPSJzdHJva2U6IzE4MTgxODtzdHJva2Utd2lkdGg6MC41OyIgd2lkdGg9IjExNiIgeD0iMjU5IiB5PSIyMzMuNzk2OSIvPjx0ZXh0IGZpbGw9IiMwMDAwMDAiIGZvbnQtZmFtaWx5PSJzYW5zLXNlcmlmIiBmb250LXNpemU9IjEyIiBsZW5ndGhBZGp1c3Q9InNwYWNpbmciIHRleHRMZW5ndGg9Ijk2IiB4PSIyNjkiIHk9IjI1NS4xNDA2Ij4mIzIzNjM3OyYjMzEwMzQ7JiMyNTM1MTsmIzI2NjMxOyYjMjI1MjI7JiMyNjQxMjsmIzIwNDQ5OyYjMjQ2ODc7PC90ZXh0PjxyZWN0IGZpbGw9IiNGMUYxRjEiIGhlaWdodD0iMzIuODQzOCIgcng9IjEyLjUiIHJ5PSIxMi41IiBzdHlsZT0ic3Ryb2tlOiMxODE4MTg7c3Ryb2tlLXdpZHRoOjAuNTsiIHdpZHRoPSIxMTYiIHg9IjI1OSIgeT0iMjg2LjY0MDYiLz48dGV4dCBmaWxsPSIjMDAwMDAwIiBmb250LWZhbWlseT0ic2Fucy1zZXJpZiIgZm9udC1zaXplPSIxMiIgbGVuZ3RoQWRqdXN0PSJzcGFjaW5nIiB0ZXh0TGVuZ3RoPSI5NiIgeD0iMjY5IiB5PSIzMDcuOTg0NCI+JiMyMzYzNzsmIzMxMDM0OyYjMjUzNTE7JiMyNjYzMTsmIzIxMzgyOyYjMjE0OTA7JiMzNjIzNTsmIzIxMTgzOzwvdGV4dD48cmVjdCBmaWxsPSIjRjFGMUYxIiBoZWlnaHQ9IjMyLjg0MzgiIHJ4PSIxMi41IiByeT0iMTIuNSIgc3R5bGU9InN0cm9rZTojMTgxODE4O3N0cm9rZS13aWR0aDowLjU7IiB3aWR0aD0iMTY0IiB4PSIyMzUiIHk9IjMzOS40ODQ0Ii8+PHRleHQgZmlsbD0iIzAwMDAwMCIgZm9udC1mYW1pbHk9InNhbnMtc2VyaWYiIGZvbnQtc2l6ZT0iMTIiIGxlbmd0aEFkanVzdD0ic3BhY2luZyIgdGV4dExlbmd0aD0iMTQ0IiB4PSIyNDUiIHk9IjM2MC44MjgxIj4mIzIzNjM3OyYjMzEwMzQ7JiMyNTM1MTsmIzI2NjMxOyYjMjUxNTI7JiMyMzY0NjsmIzM5MDQ2OyYjMjI0OTU7JiMzMDM0MDsmIzI0MTc5OyYjMjIzNDM7JiMyMDU0MDs8L3RleHQ+PHJlY3QgZmlsbD0iI0YxRjFGMSIgaGVpZ2h0PSIzMi44NDM4IiByeD0iMTIuNSIgcnk9IjEyLjUiIHN0eWxlPSJzdHJva2U6IzE4MTgxODtzdHJva2Utd2lkdGg6MC41OyIgd2lkdGg9IjIxMiIgeD0iMjExIiB5PSIzOTIuMzI4MSIvPjx0ZXh0IGZpbGw9IiMwMDAwMDAiIGZvbnQtZmFtaWx5PSJzYW5zLXNlcmlmIiBmb250LXNpemU9IjEyIiBsZW5ndGhBZGp1c3Q9InNwYWNpbmciIHRleHRMZW5ndGg9IjE5MiIgeD0iMjIxIiB5PSI0MTMuNjcxOSI+JiMyMzYzNzsmIzMxMDM0OyYjMjUzNTE7JiMyNjYzMTsmIzIyMzEyOyYjMjQ0MDM7JiMyMTA2OTsmIzI2MTAyOyYjMzgzODg7JiMyNzU3MzsmIzIwODY5OyYjMzAzNDA7JiMyNDMyMjsmIzI0MTIwOyYjMjU5Njg7JiMyNTQ1NDs8L3RleHQ+PHJlY3QgZmlsbD0iI0YxRjFGMSIgaGVpZ2h0PSIzMi44NDM4IiByeD0iMTIuNSIgcnk9IjEyLjUiIHN0eWxlPSJzdHJva2U6IzE4MTgxODtzdHJva2Utd2lkdGg6MC41OyIgd2lkdGg9IjE4OCIgeD0iMjIzIiB5PSI0NDUuMTcxOSIvPjx0ZXh0IGZpbGw9IiMwMDAwMDAiIGZvbnQtZmFtaWx5PSJzYW5zLXNlcmlmIiBmb250LXNpemU9IjEyIiBsZW5ndGhBZGp1c3Q9InNwYWNpbmciIHRleHRMZW5ndGg9IjE2OCIgeD0iMjMzIiB5PSI0NjYuNTE1NiI+JiMyNjY4MTsmIzI1NDU0OyYjMjk5OTI7JiMyNTE0MzsmIzM4NjU2OyYjMjc3MTQ7JiMyNTU1MjsmIzIwMzc5OyYjMjUzNTE7JiMyNjYzMTsmIzIwMjQ4OyYjMjEyNzA7JiMyNDMxNDsmIzM1NzU4OzwvdGV4dD48cmVjdCBmaWxsPSIjRjFGMUYxIiBoZWlnaHQ9IjMyLjg0MzgiIHJ4PSIxMi41IiByeT0iMTIuNSIgc3R5bGU9InN0cm9rZTojMTgxODE4O3N0cm9rZS13aWR0aDowLjU7IiB3aWR0aD0iOTIiIHg9IjIwOSIgeT0iNjQ3LjcwMzEiLz48dGV4dCBmaWxsPSIjMDAwMDAwIiBmb250LWZhbWlseT0ic2Fucy1zZXJpZiIgZm9udC1zaXplPSIxMiIgbGVuZ3RoQWRqdXN0PSJzcGFjaW5nIiB0ZXh0TGVuZ3RoPSI3MiIgeD0iMjE5IiB5PSI2NjkuMDQ2OSI+JiMyNTE5MTsmIzM0ODkyOyYjMjAyNDg7JiMyMTI3MDsmIzI1ODA1OyYjMjAzMTY7PC90ZXh0PjxyZWN0IGZpbGw9IiNGMUYxRjEiIGhlaWdodD0iMzIuODQzOCIgcng9IjEyLjUiIHJ5PSIxMi41IiBzdHlsZT0ic3Ryb2tlOiMxODE4MTg7c3Ryb2tlLXdpZHRoOjAuNTsiIHdpZHRoPSI5MiIgeD0iMjA5IiB5PSI3MDAuNTQ2OSIvPjx0ZXh0IGZpbGw9IiMwMDAwMDAiIGZvbnQtZmFtaWx5PSJzYW5zLXNlcmlmIiBmb250LXNpemU9IjEyIiBsZW5ndGhBZGp1c3Q9InNwYWNpbmciIHRleHRMZW5ndGg9IjcyIiB4PSIyMTkiIHk9IjcyMS44OTA2Ij4mIzI5OTgzOyYjMjUxMDQ7JiMyMDI0ODsmIzIxMjcwOyYjMzI0Njc7JiMyNjUyNDs8L3RleHQ+PHJlY3QgZmlsbD0iI0YxRjFGMSIgaGVpZ2h0PSIzMi44NDM4IiByeD0iMTIuNSIgcnk9IjEyLjUiIHN0eWxlPSJzdHJva2U6IzE4MTgxODtzdHJva2Utd2lkdGg6MC41OyIgd2lkdGg9IjkyIiB4PSIyMDkiIHk9Ijc1My4zOTA2Ii8+PHRleHQgZmlsbD0iIzAwMDAwMCIgZm9udC1mYW1pbHk9InNhbnMtc2VyaWYiIGZvbnQtc2l6ZT0iMTIiIGxlbmd0aEFkanVzdD0ic3BhY2luZyIgdGV4dExlbmd0aD0iNzIiIHg9IjIxOSIgeT0iNzc0LjczNDQiPiYjMjM2Mzc7JiMzMTAzNDsmIzIwMjQ4OyYjMjEyNzA7JiMzMjQ2NzsmIzI2NTI0OzwvdGV4dD48bGluZSBzdHlsZT0ic3Ryb2tlOiMwMDAwMDA7c3Ryb2tlLXdpZHRoOjEuNTsiIHgxPSIyMDMiIHgyPSIyMDMiIHkxPSIxMSIgeTI9IjkxNS4wNzgxIi8+PGxpbmUgc3R5bGU9InN0cm9rZTojMDAwMDAwO3N0cm9rZS13aWR0aDoxLjU7IiB4MT0iNDI3IiB4Mj0iNDI3IiB5MT0iMTEiIHkyPSI5MTUuMDc4MSIvPjxsaW5lIHN0eWxlPSJzdHJva2U6IzE4MTgxODtzdHJva2Utd2lkdGg6MS4wOyIgeDE9Ijc5IiB4Mj0iNzkiIHkxPSI1NS4yNjU2IiB5Mj0iNzUuMjY1NiIvPjxwb2x5Z29uIGZpbGw9IiMxODE4MTgiIHBvaW50cz0iNzUsNjUuMjY1Niw3OSw3NS4yNjU2LDgzLDY1LjI2NTYsNzksNjkuMjY1NiIgc3R5bGU9InN0cm9rZTojMTgxODE4O3N0cm9rZS13aWR0aDoxLjA7Ii8+PGxpbmUgc3R5bGU9InN0cm9rZTojMTgxODE4O3N0cm9rZS13aWR0aDoxLjA7IiB4MT0iNzkiIHgyPSI3OSIgeTE9IjEwOC4xMDk0IiB5Mj0iMTI4LjEwOTQiLz48cG9seWdvbiBmaWxsPSIjMTgxODE4IiBwb2ludHM9Ijc1LDExOC4xMDk0LDc5LDEyOC4xMDk0LDgzLDExOC4xMDk0LDc5LDEyMi4xMDk0IiBzdHlsZT0ic3Ryb2tlOiMxODE4MTg7c3Ryb2tlLXdpZHRoOjEuMDsiLz48bGluZSBzdHlsZT0ic3Ryb2tlOiMxODE4MTg7c3Ryb2tlLXdpZHRoOjEuMDsiIHgxPSI3OSIgeDI9Ijc5IiB5MT0iMTYwLjk1MzEiIHkyPSIxODAuOTUzMSIvPjxwb2x5Z29uIGZpbGw9IiMxODE4MTgiIHBvaW50cz0iNzUsMTcwLjk1MzEsNzksMTgwLjk1MzEsODMsMTcwLjk1MzEsNzksMTc0Ljk1MzEiIHN0eWxlPSJzdHJva2U6IzE4MTgxODtzdHJva2Utd2lkdGg6MS4wOyIvPjxsaW5lIHN0eWxlPSJzdHJva2U6IzE4MTgxODtzdHJva2Utd2lkdGg6MS4wOyIgeDE9Ijc5IiB4Mj0iNzkiIHkxPSI1MzAuODU5NCIgeTI9IjU1MC44NTk0Ii8+PHBvbHlnb24gZmlsbD0iIzE4MTgxOCIgcG9pbnRzPSI3NSw1NDAuODU5NCw3OSw1NTAuODU5NCw4Myw1NDAuODU5NCw3OSw1NDQuODU5NCIgc3R5bGU9InN0cm9rZTojMTgxODE4O3N0cm9rZS13aWR0aDoxLjA7Ii8+PGxpbmUgc3R5bGU9InN0cm9rZTojMTgxODE4O3N0cm9rZS13aWR0aDoxLjA7IiB4MT0iMTE2IiB4Mj0iMTQxIiB5MT0iNjE1LjcwMzEiIHkyPSI2MTUuNzAzMSIvPjxsaW5lIHN0eWxlPSJzdHJva2U6IzE4MTgxODtzdHJva2Utd2lkdGg6MS4wOyIgeDE9IjE0MSIgeDI9IjE0MSIgeTE9IjYxNS43MDMxIiB5Mj0iNjQ3LjcwMzEiLz48cG9seWdvbiBmaWxsPSIjMTgxODE4IiBwb2ludHM9IjEzNyw2MzcuNzAzMSwxNDEsNjQ3LjcwMzEsMTQ1LDYzNy43MDMxLDE0MSw2NDEuNzAzMSIgc3R5bGU9InN0cm9rZTojMTgxODE4O3N0cm9rZS13aWR0aDoxLjA7Ii8+PGxpbmUgc3R5bGU9InN0cm9rZTojMTgxODE4O3N0cm9rZS13aWR0aDoxLjA7IiB4MT0iMTQxIiB4Mj0iMTQxIiB5MT0iNjgwLjU0NjkiIHkyPSI4MDguMjM0NCIvPjxsaW5lIHN0eWxlPSJzdHJva2U6IzE4MTgxODtzdHJva2Utd2lkdGg6MS4wOyIgeDE9IjE0MSIgeDI9IjkxIiB5MT0iODA4LjIzNDQiIHkyPSI4MDguMjM0NCIvPjxwb2x5Z29uIGZpbGw9IiMxODE4MTgiIHBvaW50cz0iMTAxLDgwNC4yMzQ0LDkxLDgwOC4yMzQ0LDEwMSw4MTIuMjM0NCw5Nyw4MDguMjM0NCIgc3R5bGU9InN0cm9rZTojMTgxODE4O3N0cm9rZS13aWR0aDoxLjA7Ii8+PGxpbmUgc3R5bGU9InN0cm9rZTojMTgxODE4O3N0cm9rZS13aWR0aDoxLjA7IiB4MT0iNzkiIHgyPSI3OSIgeTE9IjU4My43MDMxIiB5Mj0iNjAzLjcwMzEiLz48cG9seWdvbiBmaWxsPSIjMTgxODE4IiBwb2ludHM9Ijc1LDU5My43MDMxLDc5LDYwMy43MDMxLDgzLDU5My43MDMxLDc5LDU5Ny43MDMxIiBzdHlsZT0ic3Ryb2tlOiMxODE4MTg7c3Ryb2tlLXdpZHRoOjEuMDsiLz48bGluZSBzdHlsZT0ic3Ryb2tlOiMxODE4MTg7c3Ryb2tlLXdpZHRoOjEuMDsiIHgxPSI3OSIgeDI9Ijc5IiB5MT0iODIwLjIzNDQiIHkyPSI4NDAuMjM0NCIvPjxwb2x5Z29uIGZpbGw9IiMxODE4MTgiIHBvaW50cz0iNzUsODMwLjIzNDQsNzksODQwLjIzNDQsODMsODMwLjIzNDQsNzksODM0LjIzNDQiIHN0eWxlPSJzdHJva2U6IzE4MTgxODtzdHJva2Utd2lkdGg6MS4wOyIvPjxsaW5lIHN0eWxlPSJzdHJva2U6IzE4MTgxODtzdHJva2Utd2lkdGg6MS4wOyIgeDE9Ijc5IiB4Mj0iNzkiIHkxPSI4NzMuMDc4MSIgeTI9Ijg5My4wNzgxIi8+PHBvbHlnb24gZmlsbD0iIzE4MTgxOCIgcG9pbnRzPSI3NSw4ODMuMDc4MSw3OSw4OTMuMDc4MSw4Myw4ODMuMDc4MSw3OSw4ODcuMDc4MSIgc3R5bGU9InN0cm9rZTojMTgxODE4O3N0cm9rZS13aWR0aDoxLjA7Ii8+PGxpbmUgc3R5bGU9InN0cm9rZTojMTgxODE4O3N0cm9rZS13aWR0aDoxLjA7IiB4MT0iMzE3IiB4Mj0iMzE3IiB5MT0iMjY2LjY0MDYiIHkyPSIyODYuNjQwNiIvPjxwb2x5Z29uIGZpbGw9IiMxODE4MTgiIHBvaW50cz0iMzEzLDI3Ni42NDA2LDMxNywyODYuNjQwNiwzMjEsMjc2LjY0MDYsMzE3LDI4MC42NDA2IiBzdHlsZT0ic3Ryb2tlOiMxODE4MTg7c3Ryb2tlLXdpZHRoOjEuMDsiLz48bGluZSBzdHlsZT0ic3Ryb2tlOiMxODE4MTg7c3Ryb2tlLXdpZHRoOjEuMDsiIHgxPSIzMTciIHgyPSIzMTciIHkxPSIzMTkuNDg0NCIgeTI9IjMzOS40ODQ0Ii8+PHBvbHlnb24gZmlsbD0iIzE4MTgxOCIgcG9pbnRzPSIzMTMsMzI5LjQ4NDQsMzE3LDMzOS40ODQ0LDMyMSwzMjkuNDg0NCwzMTcsMzMzLjQ4NDQiIHN0eWxlPSJzdHJva2U6IzE4MTgxODtzdHJva2Utd2lkdGg6MS4wOyIvPjxsaW5lIHN0eWxlPSJzdHJva2U6IzE4MTgxODtzdHJva2Utd2lkdGg6MS4wOyIgeDE9IjMxNyIgeDI9IjMxNyIgeTE9IjM3Mi4zMjgxIiB5Mj0iMzkyLjMyODEiLz48cG9seWdvbiBmaWxsPSIjMTgxODE4IiBwb2ludHM9IjMxMywzODIuMzI4MSwzMTcsMzkyLjMyODEsMzIxLDM4Mi4zMjgxLDMxNywzODYuMzI4MSIgc3R5bGU9InN0cm9rZTojMTgxODE4O3N0cm9rZS13aWR0aDoxLjA7Ii8+PGxpbmUgc3R5bGU9InN0cm9rZTojMTgxODE4O3N0cm9rZS13aWR0aDoxLjA7IiB4MT0iMzE3IiB4Mj0iMzE3IiB5MT0iNDI1LjE3MTkiIHkyPSI0NDUuMTcxOSIvPjxwb2x5Z29uIGZpbGw9IiMxODE4MTgiIHBvaW50cz0iMzEzLDQzNS4xNzE5LDMxNyw0NDUuMTcxOSwzMjEsNDM1LjE3MTksMzE3LDQzOS4xNzE5IiBzdHlsZT0ic3Ryb2tlOiMxODE4MTg7c3Ryb2tlLXdpZHRoOjEuMDsiLz48bGluZSBzdHlsZT0ic3Ryb2tlOiMxODE4MTg7c3Ryb2tlLXdpZHRoOjEuMDsiIHgxPSIyNTUiIHgyPSIyNTUiIHkxPSI2ODAuNTQ2OSIgeTI9IjcwMC41NDY5Ii8+PHBvbHlnb24gZmlsbD0iIzE4MTgxOCIgcG9pbnRzPSIyNTEsNjkwLjU0NjksMjU1LDcwMC41NDY5LDI1OSw2OTAuNTQ2OSwyNTUsNjk0LjU0NjkiIHN0eWxlPSJzdHJva2U6IzE4MTgxODtzdHJva2Utd2lkdGg6MS4wOyIvPjxsaW5lIHN0eWxlPSJzdHJva2U6IzE4MTgxODtzdHJva2Utd2lkdGg6MS4wOyIgeDE9IjI1NSIgeDI9IjI1NSIgeTE9IjczMy4zOTA2IiB5Mj0iNzUzLjM5MDYiLz48cG9seWdvbiBmaWxsPSIjMTgxODE4IiBwb2ludHM9IjI1MSw3NDMuMzkwNiwyNTUsNzUzLjM5MDYsMjU5LDc0My4zOTA2LDI1NSw3NDcuMzkwNiIgc3R5bGU9InN0cm9rZTojMTgxODE4O3N0cm9rZS13aWR0aDoxLjA7Ii8+PGxpbmUgc3R5bGU9InN0cm9rZTojMTgxODE4O3N0cm9rZS13aWR0aDoxLjA7IiB4MT0iNzkiIHgyPSI3OSIgeTE9IjIxMy43OTY5IiB5Mj0iMjE4Ljc5NjkiLz48bGluZSBzdHlsZT0ic3Ryb2tlOiMxODE4MTg7c3Ryb2tlLXdpZHRoOjEuMDsiIHgxPSI3OSIgeDI9IjMxNyIgeTE9IjIxOC43OTY5IiB5Mj0iMjE4Ljc5NjkiLz48bGluZSBzdHlsZT0ic3Ryb2tlOiMxODE4MTg7c3Ryb2tlLXdpZHRoOjEuMDsiIHgxPSIzMTciIHgyPSIzMTciIHkxPSIyMTguNzk2OSIgeTI9IjIzMy43OTY5Ii8+PHBvbHlnb24gZmlsbD0iIzE4MTgxOCIgcG9pbnRzPSIzMTMsMjIzLjc5NjksMzE3LDIzMy43OTY5LDMyMSwyMjMuNzk2OSwzMTcsMjI3Ljc5NjkiIHN0eWxlPSJzdHJva2U6IzE4MTgxODtzdHJva2Utd2lkdGg6MS4wOyIvPjxsaW5lIHN0eWxlPSJzdHJva2U6IzE4MTgxODtzdHJva2Utd2lkdGg6MS4wOyIgeDE9IjMxNyIgeDI9IjMxNyIgeTE9IjQ3OC4wMTU2IiB5Mj0iNDgzLjAxNTYiLz48bGluZSBzdHlsZT0ic3Ryb2tlOiMxODE4MTg7c3Ryb2tlLXdpZHRoOjEuMDsiIHgxPSIzMTciIHgyPSI3OSIgeTE9IjQ4My4wMTU2IiB5Mj0iNDgzLjAxNTYiLz48bGluZSBzdHlsZT0ic3Ryb2tlOiMxODE4MTg7c3Ryb2tlLXdpZHRoOjEuMDsiIHgxPSI3OSIgeDI9Ijc5IiB5MT0iNDgzLjAxNTYiIHkyPSI0OTguMDE1NiIvPjxwb2x5Z29uIGZpbGw9IiMxODE4MTgiIHBvaW50cz0iNzUsNDg4LjAxNTYsNzksNDk4LjAxNTYsODMsNDg4LjAxNTYsNzksNDkyLjAxNTYiIHN0eWxlPSJzdHJva2U6IzE4MTgxODtzdHJva2Utd2lkdGg6MS4wOyIvPjxsaW5lIHN0eWxlPSJzdHJva2U6IzE4MTgxODtzdHJva2Utd2lkdGg6MS4wOyIgeDE9IjQyIiB4Mj0iMzAiIHkxPSI2MTUuNzAzMSIgeTI9IjYxNS43MDMxIi8+PGxpbmUgc3R5bGU9InN0cm9rZTojMTgxODE4O3N0cm9rZS13aWR0aDoxLjA7IiB4MT0iMzAiIHgyPSIzMCIgeTE9IjYxNS43MDMxIiB5Mj0iNjMzLjcwMzEiLz48bGluZSBzdHlsZT0ic3Ryb2tlOiMxODE4MTg7c3Ryb2tlLXdpZHRoOjEuMDsiIHgxPSIzMCIgeDI9IjI1NSIgeTE9IjYzMy43MDMxIiB5Mj0iNjMzLjcwMzEiLz48bGluZSBzdHlsZT0ic3Ryb2tlOiMxODE4MTg7c3Ryb2tlLXdpZHRoOjEuMDsiIHgxPSIyNTUiIHgyPSIyNTUiIHkxPSI2MzMuNzAzMSIgeTI9IjY0Ny43MDMxIi8+PHBvbHlnb24gZmlsbD0iIzE4MTgxOCIgcG9pbnRzPSIyNTEsNjM3LjcwMzEsMjU1LDY0Ny43MDMxLDI1OSw2MzcuNzAzMSwyNTUsNjQxLjcwMzEiIHN0eWxlPSJzdHJva2U6IzE4MTgxODtzdHJva2Utd2lkdGg6MS4wOyIvPjxsaW5lIHN0eWxlPSJzdHJva2U6IzE4MTgxODtzdHJva2Utd2lkdGg6MS4wOyIgeDE9IjI1NSIgeDI9IjI1NSIgeTE9Ijc4Ni4yMzQ0IiB5Mj0iNzkwLjIzNDQiLz48bGluZSBzdHlsZT0ic3Ryb2tlOiMxODE4MTg7c3Ryb2tlLXdpZHRoOjEuMDsiIHgxPSIyNTUiIHgyPSI0OSIgeTE9Ijc5MC4yMzQ0IiB5Mj0iNzkwLjIzNDQiLz48bGluZSBzdHlsZT0ic3Ryb2tlOiMxODE4MTg7c3Ryb2tlLXdpZHRoOjEuMDsiIHgxPSI0OSIgeDI9IjQ5IiB5MT0iNzkwLjIzNDQiIHkyPSI4MDguMjM0NCIvPjxsaW5lIHN0eWxlPSJzdHJva2U6IzE4MTgxODtzdHJva2Utd2lkdGg6MS4wOyIgeDE9IjQ5IiB4Mj0iNjciIHkxPSI4MDguMjM0NCIgeTI9IjgwOC4yMzQ0Ii8+PHBvbHlnb24gZmlsbD0iIzE4MTgxOCIgcG9pbnRzPSI1Nyw4MDQuMjM0NCw2Nyw4MDguMjM0NCw1Nyw4MTIuMjM0NCw2MSw4MDguMjM0NCIgc3R5bGU9InN0cm9rZTojMTgxODE4O3N0cm9rZS13aWR0aDoxLjA7Ii8+PHRleHQgZmlsbD0iIzAwMDAwMCIgZm9udC1mYW1pbHk9InNhbnMtc2VyaWYiIGZvbnQtc2l6ZT0iMTgiIGxlbmd0aEFkanVzdD0ic3BhY2luZyIgdGV4dExlbmd0aD0iMzYiIHg9IjkxIiB5PSIyOC4wMTU2Ij4mIzI5OTkyOyYjMjUxNDM7PC90ZXh0Pjx0ZXh0IGZpbGw9IiMwMDAwMDAiIGZvbnQtZmFtaWx5PSJzYW5zLXNlcmlmIiBmb250LXNpemU9IjE4IiBsZW5ndGhBZGp1c3Q9InNwYWNpbmciIHRleHRMZW5ndGg9IjM2IiB4PSIyOTciIHk9IjI4LjAxNTYiPiYjMzE5OTU7JiMzMjQ3OTs8L3RleHQ+PCEtLVNSQz1bUlA1MUppOUc0OFJ0eG5IbDJMVGU1dng1bjE5OTMxaFJQSFVMMkFLMkdXODhJZzdLVzY5WVllMFlqNjBscXZkTnRpQUlMbW1JVGZGbF9zU29fdXBBY2NDaVZRajRMYXdsNUlBbUhteXNCSlJ0YzZVOUgwWnpCWEg2TUQ1bmUwVmgzYkdVUzZuM2huckJhTVBXLU9yQjhiNXZZcWU0Y0JST3FFS1NCMVZEenkydHlNT1k3YVp0SFFaRG1hS1B4bG0zMkdxRGZsdGVrR1lNblB2a09KTTdkV3hRLWQyMkVPUEQwdW1nalhUSC1uRVRCb1dNamx2cjdmUEJSN3JXck9iUlNCMkEybnVwQ1pNU3ZoNU0zdHd3LXc3MFNxRjdzUVA4aFk2V0RNOWMtUFg3T0JPSkVhRmlKQTMtNGthd1MtU3hBUGtYZ05yb2FnUkFrUElaZ1RZUzlmSi03T2JJME90TnFBdWFEc3JLV3VxZlJaNWhNYllnU3lveTFsT3Z2aGRfTy1iMmJjV2dOZUFGSlpRRnBQNmNXVXVVVXZnS0V5amNJNkJPRkxiTUJnei0wRzAwXS0tPjwvZz48L3N2Zz4=;" vertex="1" parent="1">
            <mxGeometry x="980" y="-370" width="448" height="927" as="geometry" />
          </mxCell>
        </UserObject>
        <UserObject label="" plantUmlData="{&#xa;  &quot;data&quot;: &quot;@startuml\ntitle 指标优化流程\n\n|User|\nstart\n:登录系统;\n|System|\nif (登录成功?) then (是)\n  :查询所有指标;\n  |User|\n  :选择要评价的指标;\n  :进行评价操作;\n  |User|\n  :提交评价结果;\n  |System|\n  :计算指标得分;\n  :更新指标得分;\n  :生成指标报告;\n  |User|\n  :查看指标报告;\n  |System|\n  if (指标报告存在?) then (是)\n    :生成指标优化建议;\n  else (否)\n    :不生成指标优化建议;\n  endif\n  :显示指标优化建议;\n  |User|\n  if (继续评价指标?) then (是)\n    :进行下一个指标的评价;\n    |System| -&gt; |User|\n  else (否)\n    :退出系统;\n    |User| -&gt; end\n  endif\nelse (否)\n  :退出系统;\n  |User| -&gt; end\nendif\n@enduml\n&quot;,&#xa;  &quot;format&quot;: &quot;svg&quot;&#xa;}" id="lj0ikvdqPGdOUn9qGZUp-8">
          <mxCell style="shape=image;noLabel=1;verticalAlign=top;aspect=fixed;imageAspect=0;image=data:image/svg+xml,PD94bWwgdmVyc2lvbj0iMS4wIiBlbmNvZGluZz0idXMtYXNjaWkiIHN0YW5kYWxvbmU9Im5vIj8+PHN2ZyB4bWxucz0iaHR0cDovL3d3dy53My5vcmcvMjAwMC9zdmciIHhtbG5zOnhsaW5rPSJodHRwOi8vd3d3LnczLm9yZy8xOTk5L3hsaW5rIiBjb250ZW50U3R5bGVUeXBlPSJ0ZXh0L2NzcyIgaGVpZ2h0PSI1NDdweCIgcHJlc2VydmVBc3BlY3RSYXRpbz0ibm9uZSIgc3R5bGU9IndpZHRoOjIyNnB4O2hlaWdodDo1NDdweDtiYWNrZ3JvdW5kOiMwMDAwMDA7IiB2ZXJzaW9uPSIxLjEiIHZpZXdCb3g9IjAgMCAyMjYgNTQ3IiB3aWR0aD0iMjI2cHgiIHpvb21BbmRQYW49Im1hZ25pZnkiPjxkZWZzLz48Zz48cmVjdCBmaWxsPSIjMDUwNjA3IiBoZWlnaHQ9IjEiIHN0eWxlPSJzdHJva2U6IzA1MDYwNztzdHJva2Utd2lkdGg6MS4wOyIgd2lkdGg9IjEiIHg9IjAiIHk9IjAiLz48dGV4dCBmaWxsPSIjMzNGRjAyIiBmb250LWZhbWlseT0ic2Fucy1zZXJpZiIgZm9udC1zaXplPSIxMiIgZm9udC1zdHlsZT0iaXRhbGljIiBmb250LXdlaWdodD0iYm9sZCIgbGVuZ3RoQWRqdXN0PSJzcGFjaW5nIiB0ZXh0TGVuZ3RoPSIxNDAiIHg9IjUiIHk9IjE3Ij5QbGFudFVNTCAxLjIwMjMuNmJldGExPC90ZXh0PjxyZWN0IGZpbGw9IiMzM0ZGMDIiIGhlaWdodD0iMTkuOTg0NCIgc3R5bGU9InN0cm9rZTojMzNGRjAyO3N0cm9rZS13aWR0aDoxLjA7IiB3aWR0aD0iMjE0IiB4PSI1IiB5PSIyNS44NDM4Ii8+PHRleHQgZmlsbD0iIzAwMDAwMCIgZm9udC1mYW1pbHk9InNhbnMtc2VyaWYiIGZvbnQtc2l6ZT0iMTQiIGZvbnQtd2VpZ2h0PSJib2xkIiBsZW5ndGhBZGp1c3Q9InNwYWNpbmciIHRleHRMZW5ndGg9IjE3MSIgeD0iNiIgeT0iNDAuODQzOCI+W0Zyb20gc3RyaW5nIChsaW5lIDMxKSBdPC90ZXh0Pjx0ZXh0IGZpbGw9IiMzM0ZGMDIiIGZvbnQtZmFtaWx5PSJzYW5zLXNlcmlmIiBmb250LXNpemU9IjE0IiBmb250LXdlaWdodD0iYm9sZCIgbGVuZ3RoQWRqdXN0PSJzcGFjaW5nIiB0ZXh0TGVuZ3RoPSI3IiB4PSI1IiB5PSI1OS44MjgxIj4mIzE2MDs8L3RleHQ+PHRleHQgZmlsbD0iIzMzRkYwMiIgZm9udC1mYW1pbHk9InNhbnMtc2VyaWYiIGZvbnQtc2l6ZT0iMTQiIGZvbnQtd2VpZ2h0PSJib2xkIiBsZW5ndGhBZGp1c3Q9InNwYWNpbmciIHRleHRMZW5ndGg9IjY0IiB4PSI1IiB5PSI3NC44MTI1Ij5Ac3RhcnR1bWw8L3RleHQ+PHRleHQgZmlsbD0iIzMzRkYwMiIgZm9udC1mYW1pbHk9InNhbnMtc2VyaWYiIGZvbnQtc2l6ZT0iMTQiIGZvbnQtd2VpZ2h0PSJib2xkIiBsZW5ndGhBZGp1c3Q9InNwYWNpbmciIHRleHRMZW5ndGg9IjEyNiIgeD0iNSIgeT0iODkuNzk2OSI+dGl0bGUgJiMyNTM1MTsmIzI2NjMxOyYjMjAyNDg7JiMyMTI3MDsmIzI3OTY5OyYjMzEyNDM7PC90ZXh0Pjx0ZXh0IGZpbGw9IiMzM0ZGMDIiIGZvbnQtZmFtaWx5PSJzYW5zLXNlcmlmIiBmb250LXNpemU9IjE0IiBmb250LXdlaWdodD0iYm9sZCIgbGVuZ3RoQWRqdXN0PSJzcGFjaW5nIiB0ZXh0TGVuZ3RoPSI3IiB4PSI1IiB5PSIxMDQuNzgxMyI+JiMxNjA7PC90ZXh0Pjx0ZXh0IGZpbGw9IiMzM0ZGMDIiIGZvbnQtZmFtaWx5PSJzYW5zLXNlcmlmIiBmb250LXNpemU9IjE0IiBmb250LXdlaWdodD0iYm9sZCIgbGVuZ3RoQWRqdXN0PSJzcGFjaW5nIiB0ZXh0TGVuZ3RoPSI0MiIgeD0iNSIgeT0iMTE5Ljc2NTYiPnxVc2VyfDwvdGV4dD48dGV4dCBmaWxsPSIjMzNGRjAyIiBmb250LWZhbWlseT0ic2Fucy1zZXJpZiIgZm9udC1zaXplPSIxNCIgZm9udC13ZWlnaHQ9ImJvbGQiIGxlbmd0aEFkanVzdD0ic3BhY2luZyIgdGV4dExlbmd0aD0iMzUiIHg9IjUiIHk9IjEzNC43NSI+c3RhcnQ8L3RleHQ+PHRleHQgZmlsbD0iIzMzRkYwMiIgZm9udC1mYW1pbHk9InNhbnMtc2VyaWYiIGZvbnQtc2l6ZT0iMTQiIGZvbnQtd2VpZ2h0PSJib2xkIiBsZW5ndGhBZGp1c3Q9InNwYWNpbmciIHRleHRMZW5ndGg9IjcxIiB4PSI1IiB5PSIxNDkuNzM0NCI+OiYjMzAzMzE7JiMyNDQwNTsmIzMxOTk1OyYjMzI0Nzk7OzwvdGV4dD48dGV4dCBmaWxsPSIjMzNGRjAyIiBmb250LWZhbWlseT0ic2Fucy1zZXJpZiIgZm9udC1zaXplPSIxNCIgZm9udC13ZWlnaHQ9ImJvbGQiIGxlbmd0aEFkanVzdD0ic3BhY2luZyIgdGV4dExlbmd0aD0iNTciIHg9IjUiIHk9IjE2NC43MTg4Ij58U3lzdGVtfDwvdGV4dD48dGV4dCBmaWxsPSIjMzNGRjAyIiBmb250LWZhbWlseT0ic2Fucy1zZXJpZiIgZm9udC1zaXplPSIxNCIgZm9udC13ZWlnaHQ9ImJvbGQiIGxlbmd0aEFkanVzdD0ic3BhY2luZyIgdGV4dExlbmd0aD0iMTcyIiB4PSI1IiB5PSIxNzkuNzAzMSI+aWYgKCYjMzAzMzE7JiMyNDQwNTsmIzI1MTA0OyYjMjExNTE7PykgdGhlbiAoJiMyNjE1OTspPC90ZXh0Pjx0ZXh0IGZpbGw9IiMzM0ZGMDIiIGZvbnQtZmFtaWx5PSJzYW5zLXNlcmlmIiBmb250LXNpemU9IjE0IiBmb250LXdlaWdodD0iYm9sZCIgbGVuZ3RoQWRqdXN0PSJzcGFjaW5nIiB0ZXh0TGVuZ3RoPSI5OSIgeD0iMTkiIHk9IjE5NC42ODc1Ij46JiMyNjU5NzsmIzM1ODEwOyYjMjUxNTI7JiMyNjM3NzsmIzI1MzUxOyYjMjY2MzE7OzwvdGV4dD48dGV4dCBmaWxsPSIjMzNGRjAyIiBmb250LWZhbWlseT0ic2Fucy1zZXJpZiIgZm9udC1zaXplPSIxNCIgZm9udC13ZWlnaHQ9ImJvbGQiIGxlbmd0aEFkanVzdD0ic3BhY2luZyIgdGV4dExlbmd0aD0iNDIiIHg9IjE5IiB5PSIyMDkuNjcxOSI+fFVzZXJ8PC90ZXh0Pjx0ZXh0IGZpbGw9IiMzM0ZGMDIiIGZvbnQtZmFtaWx5PSJzYW5zLXNlcmlmIiBmb250LXNpemU9IjE0IiBmb250LXdlaWdodD0iYm9sZCIgbGVuZ3RoQWRqdXN0PSJzcGFjaW5nIiB0ZXh0TGVuZ3RoPSIxMjciIHg9IjE5IiB5PSIyMjQuNjU2MyI+OiYjMzY4NzM7JiMyNTMyMTsmIzM1MjAxOyYjMzU3ODA7JiMyMDIxNTsmIzMwMzQwOyYjMjUzNTE7JiMyNjYzMTs7PC90ZXh0Pjx0ZXh0IGZpbGw9IiMzM0ZGMDIiIGZvbnQtZmFtaWx5PSJzYW5zLXNlcmlmIiBmb250LXNpemU9IjE0IiBmb250LXdlaWdodD0iYm9sZCIgbGVuZ3RoQWRqdXN0PSJzcGFjaW5nIiB0ZXh0TGVuZ3RoPSI5OSIgeD0iMTkiIHk9IjIzOS42NDA2Ij46JiMzNjgyNzsmIzM0ODkyOyYjMzU3ODA7JiMyMDIxNTsmIzI1ODA1OyYjMjAzMTY7OzwvdGV4dD48dGV4dCBmaWxsPSIjMzNGRjAyIiBmb250LWZhbWlseT0ic2Fucy1zZXJpZiIgZm9udC1zaXplPSIxNCIgZm9udC13ZWlnaHQ9ImJvbGQiIGxlbmd0aEFkanVzdD0ic3BhY2luZyIgdGV4dExlbmd0aD0iNDIiIHg9IjE5IiB5PSIyNTQuNjI1Ij58VXNlcnw8L3RleHQ+PHRleHQgZmlsbD0iIzMzRkYwMiIgZm9udC1mYW1pbHk9InNhbnMtc2VyaWYiIGZvbnQtc2l6ZT0iMTQiIGZvbnQtd2VpZ2h0PSJib2xkIiBsZW5ndGhBZGp1c3Q9InNwYWNpbmciIHRleHRMZW5ndGg9Ijk5IiB4PSIxOSIgeT0iMjY5LjYwOTQiPjomIzI1NTUyOyYjMjAxMzI7JiMzNTc4MDsmIzIwMjE1OyYjMzI0Njc7JiMyNjUyNDs7PC90ZXh0Pjx0ZXh0IGZpbGw9IiMzM0ZGMDIiIGZvbnQtZmFtaWx5PSJzYW5zLXNlcmlmIiBmb250LXNpemU9IjE0IiBmb250LXdlaWdodD0iYm9sZCIgbGVuZ3RoQWRqdXN0PSJzcGFjaW5nIiB0ZXh0TGVuZ3RoPSI1NyIgeD0iMTkiIHk9IjI4NC41OTM4Ij58U3lzdGVtfDwvdGV4dD48dGV4dCBmaWxsPSIjMzNGRjAyIiBmb250LWZhbWlseT0ic2Fucy1zZXJpZiIgZm9udC1zaXplPSIxNCIgZm9udC13ZWlnaHQ9ImJvbGQiIGxlbmd0aEFkanVzdD0ic3BhY2luZyIgdGV4dExlbmd0aD0iOTkiIHg9IjE5IiB5PSIyOTkuNTc4MSI+OiYjMzU3NDU7JiMzMTYzOTsmIzI1MzUxOyYjMjY2MzE7JiMyNDQ3MTsmIzIwOTk4Ozs8L3RleHQ+PHRleHQgZmlsbD0iIzMzRkYwMiIgZm9udC1mYW1pbHk9InNhbnMtc2VyaWYiIGZvbnQtc2l6ZT0iMTQiIGZvbnQtd2VpZ2h0PSJib2xkIiBsZW5ndGhBZGp1c3Q9InNwYWNpbmciIHRleHRMZW5ndGg9Ijk5IiB4PSIxOSIgeT0iMzE0LjU2MjUiPjomIzI2MzU2OyYjMjYwMzI7JiMyNTM1MTsmIzI2NjMxOyYjMjQ0NzE7JiMyMDk5ODs7PC90ZXh0Pjx0ZXh0IGZpbGw9IiMzM0ZGMDIiIGZvbnQtZmFtaWx5PSJzYW5zLXNlcmlmIiBmb250LXNpemU9IjE0IiBmb250LXdlaWdodD0iYm9sZCIgbGVuZ3RoQWRqdXN0PSJzcGFjaW5nIiB0ZXh0TGVuZ3RoPSI5OSIgeD0iMTkiIHk9IjMyOS41NDY5Ij46JiMyOTk4MzsmIzI1MTA0OyYjMjUzNTE7JiMyNjYzMTsmIzI1MjUzOyYjMjE1Nzg7OzwvdGV4dD48dGV4dCBmaWxsPSIjMzNGRjAyIiBmb250LWZhbWlseT0ic2Fucy1zZXJpZiIgZm9udC1zaXplPSIxNCIgZm9udC13ZWlnaHQ9ImJvbGQiIGxlbmd0aEFkanVzdD0ic3BhY2luZyIgdGV4dExlbmd0aD0iNDIiIHg9IjE5IiB5PSIzNDQuNTMxMyI+fFVzZXJ8PC90ZXh0Pjx0ZXh0IGZpbGw9IiMzM0ZGMDIiIGZvbnQtZmFtaWx5PSJzYW5zLXNlcmlmIiBmb250LXNpemU9IjE0IiBmb250LXdlaWdodD0iYm9sZCIgbGVuZ3RoQWRqdXN0PSJzcGFjaW5nIiB0ZXh0TGVuZ3RoPSI5OSIgeD0iMTkiIHk9IjM1OS41MTU2Ij46JiMyNjU5NzsmIzMwNDc1OyYjMjUzNTE7JiMyNjYzMTsmIzI1MjUzOyYjMjE1Nzg7OzwvdGV4dD48dGV4dCBmaWxsPSIjMzNGRjAyIiBmb250LWZhbWlseT0ic2Fucy1zZXJpZiIgZm9udC1zaXplPSIxNCIgZm9udC13ZWlnaHQ9ImJvbGQiIGxlbmd0aEFkanVzdD0ic3BhY2luZyIgdGV4dExlbmd0aD0iNTciIHg9IjE5IiB5PSIzNzQuNSI+fFN5c3RlbXw8L3RleHQ+PHRleHQgZmlsbD0iIzMzRkYwMiIgZm9udC1mYW1pbHk9InNhbnMtc2VyaWYiIGZvbnQtc2l6ZT0iMTQiIGZvbnQtd2VpZ2h0PSJib2xkIiBsZW5ndGhBZGp1c3Q9InNwYWNpbmciIHRleHRMZW5ndGg9IjIwMCIgeD0iMTkiIHk9IjM4OS40ODQ0Ij5pZiAoJiMyNTM1MTsmIzI2NjMxOyYjMjUyNTM7JiMyMTU3ODsmIzIzMzg0OyYjMjIzMTI7PykgdGhlbiAoJiMyNjE1OTspPC90ZXh0Pjx0ZXh0IGZpbGw9IiMzM0ZGMDIiIGZvbnQtZmFtaWx5PSJzYW5zLXNlcmlmIiBmb250LXNpemU9IjE0IiBmb250LXdlaWdodD0iYm9sZCIgbGVuZ3RoQWRqdXN0PSJzcGFjaW5nIiB0ZXh0TGVuZ3RoPSIxMjciIHg9IjMzIiB5PSI0MDQuNDY4OCI+OiYjMjk5ODM7JiMyNTEwNDsmIzI1MzUxOyYjMjY2MzE7JiMyMDI0ODsmIzIxMjcwOyYjMjQzMTQ7JiMzNTc1ODs7PC90ZXh0Pjx0ZXh0IGZpbGw9IiMzM0ZGMDIiIGZvbnQtZmFtaWx5PSJzYW5zLXNlcmlmIiBmb250LXNpemU9IjE0IiBmb250LXdlaWdodD0iYm9sZCIgbGVuZ3RoQWRqdXN0PSJzcGFjaW5nIiB0ZXh0TGVuZ3RoPSI2NSIgeD0iMTkiIHk9IjQxOS40NTMxIj5lbHNlICgmIzIxNTQyOyk8L3RleHQ+PHRleHQgZmlsbD0iIzMzRkYwMiIgZm9udC1mYW1pbHk9InNhbnMtc2VyaWYiIGZvbnQtc2l6ZT0iMTQiIGZvbnQtd2VpZ2h0PSJib2xkIiBsZW5ndGhBZGp1c3Q9InNwYWNpbmciIHRleHRMZW5ndGg9IjE0MSIgeD0iMzMiIHk9IjQzNC40Mzc1Ij46JiMxOTk4MTsmIzI5OTgzOyYjMjUxMDQ7JiMyNTM1MTsmIzI2NjMxOyYjMjAyNDg7JiMyMTI3MDsmIzI0MzE0OyYjMzU3NTg7OzwvdGV4dD48dGV4dCBmaWxsPSIjMzNGRjAyIiBmb250LWZhbWlseT0ic2Fucy1zZXJpZiIgZm9udC1zaXplPSIxNCIgZm9udC13ZWlnaHQ9ImJvbGQiIGxlbmd0aEFkanVzdD0ic3BhY2luZyIgdGV4dExlbmd0aD0iMzUiIHg9IjE5IiB5PSI0NDkuNDIxOSI+ZW5kaWY8L3RleHQ+PHRleHQgZmlsbD0iIzMzRkYwMiIgZm9udC1mYW1pbHk9InNhbnMtc2VyaWYiIGZvbnQtc2l6ZT0iMTQiIGZvbnQtd2VpZ2h0PSJib2xkIiBsZW5ndGhBZGp1c3Q9InNwYWNpbmciIHRleHRMZW5ndGg9IjEyNyIgeD0iMTkiIHk9IjQ2NC40MDYzIj46JiMyNjE3NDsmIzMxMDM0OyYjMjUzNTE7JiMyNjYzMTsmIzIwMjQ4OyYjMjEyNzA7JiMyNDMxNDsmIzM1NzU4Ozs8L3RleHQ+PHRleHQgZmlsbD0iIzMzRkYwMiIgZm9udC1mYW1pbHk9InNhbnMtc2VyaWYiIGZvbnQtc2l6ZT0iMTQiIGZvbnQtd2VpZ2h0PSJib2xkIiBsZW5ndGhBZGp1c3Q9InNwYWNpbmciIHRleHRMZW5ndGg9IjQyIiB4PSIxOSIgeT0iNDc5LjM5MDYiPnxVc2VyfDwvdGV4dD48dGV4dCBmaWxsPSIjMzNGRjAyIiBmb250LWZhbWlseT0ic2Fucy1zZXJpZiIgZm9udC1zaXplPSIxNCIgZm9udC13ZWlnaHQ9ImJvbGQiIGxlbmd0aEFkanVzdD0ic3BhY2luZyIgdGV4dExlbmd0aD0iMjAwIiB4PSIxOSIgeT0iNDk0LjM3NSI+aWYgKCYjMzI0ODc7JiMzMjQ5MzsmIzM1NzgwOyYjMjAyMTU7JiMyNTM1MTsmIzI2NjMxOz8pIHRoZW4gKCYjMjYxNTk7KTwvdGV4dD48dGV4dCBmaWxsPSIjMzNGRjAyIiBmb250LWZhbWlseT0ic2Fucy1zZXJpZiIgZm9udC1zaXplPSIxNCIgZm9udC13ZWlnaHQ9ImJvbGQiIGxlbmd0aEFkanVzdD0ic3BhY2luZyIgdGV4dExlbmd0aD0iMTU1IiB4PSIzMyIgeT0iNTA5LjM1OTQiPjomIzM2ODI3OyYjMzQ4OTI7JiMxOTk3OTsmIzE5OTY4OyYjMjAwMTA7JiMyNTM1MTsmIzI2NjMxOyYjMzAzNDA7JiMzNTc4MDsmIzIwMjE1Ozs8L3RleHQ+PHRleHQgZmlsbD0iIzMzRkYwMiIgZm9udC1mYW1pbHk9InNhbnMtc2VyaWYiIGZvbnQtc2l6ZT0iMTQiIGZvbnQtd2VpZ2h0PSJib2xkIiBsZW5ndGhBZGp1c3Q9InNwYWNpbmciIHRleHQtZGVjb3JhdGlvbj0id2F2eSB1bmRlcmxpbmUiIHRleHRMZW5ndGg9IjEyNyIgeD0iMzMiIHk9IjUyNC4zNDM4Ij58U3lzdGVtfCAtJmd0OyB8VXNlcnw8L3RleHQ+PHRleHQgZmlsbD0iI0ZGMDAwMCIgZm9udC1mYW1pbHk9InNhbnMtc2VyaWYiIGZvbnQtc2l6ZT0iMTQiIGZvbnQtd2VpZ2h0PSJib2xkIiBsZW5ndGhBZGp1c3Q9InNwYWNpbmciIHRleHRMZW5ndGg9IjkxIiB4PSIxMiIgeT0iNTM5LjMyODEiPlN5bnRheCBFcnJvcj88L3RleHQ+PCEtLVNSQz1bVkw5REppOTA1RHhGQU1POTJveTBZSHgyVTAwSklvSDE1aEdSYW92QUdhR2VIMG1BTEhlaDFYMURBMlBnUjNnMmJ2YnZLc3ZYRXJEMDJkN3hsaF90bFhhamhuS0szOHFnRjVSZmp5S1E3VldpeXg2OWE3d2FBWUtUZ1RmbklLQ1BWYVZPeDlRXzRxd1NCRDhGcHJMREVUREhGZVRKNGVCQjVnaXgxc2NpZElmNWQwOWhjYU9PUHkwUDFqQ2RnMWJXcnNIQURYcDd0WTYtQzZmV2xXSVpTWjJqS0ZCNXhvamhMWVJ1d0dOelhhSVd0UUdwVXJDQ0xvdGczczhiUVNFM245VkJIR3ZrZHhqVFFTZGNOTlB2OE9vWHptNlRqd3FubHQ3MkMtR093YURzTktfYUVLRGtjcmx1RVktZ3VvX0M5WFFwbnliSTRhY29UYVJ5bTdLWkZ3TVdBWlo1TWdFT0l4dGNsX0pZSUp1ZGpoRmNWRTNsOWdyazQwejZkWmNQbkJLQS1ldURQVlZLQ3diZEtFekx5aUJkYVJBaTgycWxudGx4d3VKYS1XbDNPNUxfLU5FNEo1MFpLUlp4d2U4RHRQUGdLb0NLbG0wMF0tLT48L2c+PC9zdmc+;" vertex="1" parent="1">
            <mxGeometry x="1510" y="280" width="785.01" height="1900" as="geometry" />
          </mxCell>
        </UserObject>
        <UserObject label="" plantUmlData="{&quot;data&quot;:&quot;@startuml\ntitle 指标评价流程\n\n|User|\nstart\n:登录系统;\n|System|\nif (登录成功?) then (是)\n  :查询所有指标;\n  |User|\n  :选择要评价的指标;\n  :进行评价操作;\n  |User|\n  :提交评价结果;\n  |System|\n  :计算指标得分;\n  :更新指标得分;\n  :生成指标报告;\n  |User|\n  :查看指标报告;\n  |System|\n  if (指标报告存在?) then (是)\n    :生成指标优化建议;\n  else (否)\n    :不生成指标优化建议;\n  endif\n  :显示指标优化建议;\n  |User|\n  if (继续评价指标?) then (是)\n    :进行下一个指标的评价;\n  else (否)\n    :退出系统;\n    |User|\n  endif\nelse (否)\n  :退出系统;\n  |User|\nendif\n@enduml\n&quot;,&quot;format&quot;:&quot;svg&quot;}" id="lj0ikvdqPGdOUn9qGZUp-10">
          <mxCell style="shape=image;noLabel=1;verticalAlign=top;aspect=fixed;imageAspect=0;image=data:image/svg+xml,PD94bWwgdmVyc2lvbj0iMS4wIiBlbmNvZGluZz0idXMtYXNjaWkiIHN0YW5kYWxvbmU9Im5vIj8+PHN2ZyB4bWxucz0iaHR0cDovL3d3dy53My5vcmcvMjAwMC9zdmciIHhtbG5zOnhsaW5rPSJodHRwOi8vd3d3LnczLm9yZy8xOTk5L3hsaW5rIiBjb250ZW50U3R5bGVUeXBlPSJ0ZXh0L2NzcyIgaGVpZ2h0PSI5NDNweCIgcHJlc2VydmVBc3BlY3RSYXRpbz0ibm9uZSIgc3R5bGU9IndpZHRoOjY3N3B4O2hlaWdodDo5NDNweDtiYWNrZ3JvdW5kOiNGRkZGRkY7IiB2ZXJzaW9uPSIxLjEiIHZpZXdCb3g9IjAgMCA2NzcgOTQzIiB3aWR0aD0iNjc3cHgiIHpvb21BbmRQYW49Im1hZ25pZnkiPjxkZWZzLz48Zz48dGV4dCBmaWxsPSIjMDAwMDAwIiBmb250LWZhbWlseT0ic2Fucy1zZXJpZiIgZm9udC1zaXplPSIxNCIgZm9udC13ZWlnaHQ9ImJvbGQiIGxlbmd0aEFkanVzdD0ic3BhY2luZyIgdGV4dExlbmd0aD0iODQiIHg9IjI5NS4yNSIgeT0iMzMuMjM0NCI+JiMyNTM1MTsmIzI2NjMxOyYjMzU3ODA7JiMyMDIxNTsmIzI3OTY5OyYjMzEyNDM7PC90ZXh0PjxyZWN0IGZpbGw9Im5vbmUiIGhlaWdodD0iMTkuMjY1NiIgc3R5bGU9InN0cm9rZTpub25lO3N0cm9rZS13aWR0aDoxLjA7IiB3aWR0aD0iNjQ0LjUiIHg9IjE1IiB5PSI0Ni45ODQ0Ii8+PGVsbGlwc2UgY3g9IjI1Mi41IiBjeT0iODEuMjUiIGZpbGw9IiMyMjIyMjIiIHJ4PSIxMCIgcnk9IjEwIiBzdHlsZT0ic3Ryb2tlOiMyMjIyMjI7c3Ryb2tlLXdpZHRoOjEuMDsiLz48cmVjdCBmaWxsPSIjRjFGMUYxIiBoZWlnaHQ9IjMyLjg0MzgiIHJ4PSIxMi41IiByeT0iMTIuNSIgc3R5bGU9InN0cm9rZTojMTgxODE4O3N0cm9rZS13aWR0aDowLjU7IiB3aWR0aD0iNjgiIHg9IjIxOC41IiB5PSIxMTEuMjUiLz48dGV4dCBmaWxsPSIjMDAwMDAwIiBmb250LWZhbWlseT0ic2Fucy1zZXJpZiIgZm9udC1zaXplPSIxMiIgbGVuZ3RoQWRqdXN0PSJzcGFjaW5nIiB0ZXh0TGVuZ3RoPSI0OCIgeD0iMjI4LjUiIHk9IjEzMi41OTM4Ij4mIzMwMzMxOyYjMjQ0MDU7JiMzMTk5NTsmIzMyNDc5OzwvdGV4dD48cmVjdCBmaWxsPSIjRjFGMUYxIiBoZWlnaHQ9IjMyLjg0MzgiIHJ4PSIxMi41IiByeT0iMTIuNSIgc3R5bGU9InN0cm9rZTojMTgxODE4O3N0cm9rZS13aWR0aDowLjU7IiB3aWR0aD0iMTE2IiB4PSI5NSIgeT0iMjYwLjkzNzUiLz48dGV4dCBmaWxsPSIjMDAwMDAwIiBmb250LWZhbWlseT0ic2Fucy1zZXJpZiIgZm9udC1zaXplPSIxMiIgbGVuZ3RoQWRqdXN0PSJzcGFjaW5nIiB0ZXh0TGVuZ3RoPSI5NiIgeD0iMTA1IiB5PSIyODIuMjgxMyI+JiMzNjg3MzsmIzI1MzIxOyYjMzUyMDE7JiMzNTc4MDsmIzIwMjE1OyYjMzAzNDA7JiMyNTM1MTsmIzI2NjMxOzwvdGV4dD48cmVjdCBmaWxsPSIjRjFGMUYxIiBoZWlnaHQ9IjMyLjg0MzgiIHJ4PSIxMi41IiByeT0iMTIuNSIgc3R5bGU9InN0cm9rZTojMTgxODE4O3N0cm9rZS13aWR0aDowLjU7IiB3aWR0aD0iOTIiIHg9IjEwNyIgeT0iMzEzLjc4MTMiLz48dGV4dCBmaWxsPSIjMDAwMDAwIiBmb250LWZhbWlseT0ic2Fucy1zZXJpZiIgZm9udC1zaXplPSIxMiIgbGVuZ3RoQWRqdXN0PSJzcGFjaW5nIiB0ZXh0TGVuZ3RoPSI3MiIgeD0iMTE3IiB5PSIzMzUuMTI1Ij4mIzM2ODI3OyYjMzQ4OTI7JiMzNTc4MDsmIzIwMjE1OyYjMjU4MDU7JiMyMDMxNjs8L3RleHQ+PHJlY3QgZmlsbD0iI0YxRjFGMSIgaGVpZ2h0PSIzMi44NDM4IiByeD0iMTIuNSIgcnk9IjEyLjUiIHN0eWxlPSJzdHJva2U6IzE4MTgxODtzdHJva2Utd2lkdGg6MC41OyIgd2lkdGg9IjkyIiB4PSIxMDciIHk9IjM2Ni42MjUiLz48dGV4dCBmaWxsPSIjMDAwMDAwIiBmb250LWZhbWlseT0ic2Fucy1zZXJpZiIgZm9udC1zaXplPSIxMiIgbGVuZ3RoQWRqdXN0PSJzcGFjaW5nIiB0ZXh0TGVuZ3RoPSI3MiIgeD0iMTE3IiB5PSIzODcuOTY4OCI+JiMyNTU1MjsmIzIwMTMyOyYjMzU3ODA7JiMyMDIxNTsmIzMyNDY3OyYjMjY1MjQ7PC90ZXh0PjxyZWN0IGZpbGw9IiNGMUYxRjEiIGhlaWdodD0iMzIuODQzOCIgcng9IjEyLjUiIHJ5PSIxMi41IiBzdHlsZT0ic3Ryb2tlOiMxODE4MTg7c3Ryb2tlLXdpZHRoOjAuNTsiIHdpZHRoPSI5MiIgeD0iMTA3IiB5PSI1NzgiLz48dGV4dCBmaWxsPSIjMDAwMDAwIiBmb250LWZhbWlseT0ic2Fucy1zZXJpZiIgZm9udC1zaXplPSIxMiIgbGVuZ3RoQWRqdXN0PSJzcGFjaW5nIiB0ZXh0TGVuZ3RoPSI3MiIgeD0iMTE3IiB5PSI1OTkuMzQzOCI+JiMyNjU5NzsmIzMwNDc1OyYjMjUzNTE7JiMyNjYzMTsmIzI1MjUzOyYjMjE1Nzg7PC90ZXh0Pjxwb2x5Z29uIGZpbGw9IiNGMUYxRjEiIHBvaW50cz0iMTE3LDgwMC41MzEzLDE4OSw4MDAuNTMxMywyMDEsODEyLjUzMTMsMTg5LDgyNC41MzEzLDExNyw4MjQuNTMxMywxMDUsODEyLjUzMTMsMTE3LDgwMC41MzEzIiBzdHlsZT0ic3Ryb2tlOiMxODE4MTg7c3Ryb2tlLXdpZHRoOjAuNTsiLz48dGV4dCBmaWxsPSIjMDAwMDAwIiBmb250LWZhbWlseT0ic2Fucy1zZXJpZiIgZm9udC1zaXplPSIxMSIgbGVuZ3RoQWRqdXN0PSJzcGFjaW5nIiB0ZXh0TGVuZ3RoPSI3MiIgeD0iMTE3IiB5PSI4MTcuMDQzIj4mIzMyNDg3OyYjMzI0OTM7JiMzNTc4MDsmIzIwMjE1OyYjMjUzNTE7JiMyNjYzMTs/PC90ZXh0Pjx0ZXh0IGZpbGw9IiMwMDAwMDAiIGZvbnQtZmFtaWx5PSJzYW5zLXNlcmlmIiBmb250LXNpemU9IjExIiBsZW5ndGhBZGp1c3Q9InNwYWNpbmciIHRleHRMZW5ndGg9IjExIiB4PSI5NCIgeT0iODExLjE1NjMiPiYjMjYxNTk7PC90ZXh0Pjx0ZXh0IGZpbGw9IiMwMDAwMDAiIGZvbnQtZmFtaWx5PSJzYW5zLXNlcmlmIiBmb250LXNpemU9IjExIiBsZW5ndGhBZGp1c3Q9InNwYWNpbmciIHRleHRMZW5ndGg9IjExIiB4PSIyMDEiIHk9IjgxMS4xNTYzIj4mIzIxNTQyOzwvdGV4dD48cmVjdCBmaWxsPSIjRjFGMUYxIiBoZWlnaHQ9IjMyLjg0MzgiIHJ4PSIxMi41IiByeT0iMTIuNSIgc3R5bGU9InN0cm9rZTojMTgxODE4O3N0cm9rZS13aWR0aDowLjU7IiB3aWR0aD0iMTQwIiB4PSIyMSIgeT0iODM0LjUzMTMiLz48dGV4dCBmaWxsPSIjMDAwMDAwIiBmb250LWZhbWlseT0ic2Fucy1zZXJpZiIgZm9udC1zaXplPSIxMiIgbGVuZ3RoQWRqdXN0PSJzcGFjaW5nIiB0ZXh0TGVuZ3RoPSIxMjAiIHg9IjMxIiB5PSI4NTUuODc1Ij4mIzM2ODI3OyYjMzQ4OTI7JiMxOTk3OTsmIzE5OTY4OyYjMjAwMTA7JiMyNTM1MTsmIzI2NjMxOyYjMzAzNDA7JiMzNTc4MDsmIzIwMjE1OzwvdGV4dD48cmVjdCBmaWxsPSIjRjFGMUYxIiBoZWlnaHQ9IjMyLjg0MzgiIHJ4PSIxMi41IiByeT0iMTIuNSIgc3R5bGU9InN0cm9rZTojMTgxODE4O3N0cm9rZS13aWR0aDowLjU7IiB3aWR0aD0iNjgiIHg9IjE4MSIgeT0iODM0LjUzMTMiLz48dGV4dCBmaWxsPSIjMDAwMDAwIiBmb250LWZhbWlseT0ic2Fucy1zZXJpZiIgZm9udC1zaXplPSIxMiIgbGVuZ3RoQWRqdXN0PSJzcGFjaW5nIiB0ZXh0TGVuZ3RoPSI0OCIgeD0iMTkxIiB5PSI4NTUuODc1Ij4mIzM2ODY0OyYjMjA5ODY7JiMzMTk5NTsmIzMyNDc5OzwvdGV4dD48cG9seWdvbiBmaWxsPSIjRjFGMUYxIiBwb2ludHM9IjE1Myw4NzMuMzc1LDE2NSw4ODUuMzc1LDE1Myw4OTcuMzc1LDE0MSw4ODUuMzc1LDE1Myw4NzMuMzc1IiBzdHlsZT0ic3Ryb2tlOiMxODE4MTg7c3Ryb2tlLXdpZHRoOjAuNTsiLz48cmVjdCBmaWxsPSIjRjFGMUYxIiBoZWlnaHQ9IjMyLjg0MzgiIHJ4PSIxMi41IiByeT0iMTIuNSIgc3R5bGU9InN0cm9rZTojMTgxODE4O3N0cm9rZS13aWR0aDowLjU7IiB3aWR0aD0iNjgiIHg9IjI5Ni41IiB5PSIyMDguMDkzOCIvPjx0ZXh0IGZpbGw9IiMwMDAwMDAiIGZvbnQtZmFtaWx5PSJzYW5zLXNlcmlmIiBmb250LXNpemU9IjEyIiBsZW5ndGhBZGp1c3Q9InNwYWNpbmciIHRleHRMZW5ndGg9IjQ4IiB4PSIzMDYuNSIgeT0iMjI5LjQzNzUiPiYjMzY4NjQ7JiMyMDk4NjsmIzMxOTk1OyYjMzI0Nzk7PC90ZXh0PjxsaW5lIHN0eWxlPSJzdHJva2U6IzAwMDAwMDtzdHJva2Utd2lkdGg6MS41OyIgeDE9IjE1IiB4Mj0iMTUiIHkxPSI0Ni45ODQ0IiB5Mj0iOTMxLjM3NSIvPjxwb2x5Z29uIGZpbGw9IiNGMUYxRjEiIHBvaW50cz0iNTc4LDE2NC4wOTM4LDYyOCwxNjQuMDkzOCw2NDAsMTc2LjA5MzgsNjI4LDE4OC4wOTM4LDU3OCwxODguMDkzOCw1NjYsMTc2LjA5MzgsNTc4LDE2NC4wOTM4IiBzdHlsZT0ic3Ryb2tlOiMxODE4MTg7c3Ryb2tlLXdpZHRoOjAuNTsiLz48dGV4dCBmaWxsPSIjMDAwMDAwIiBmb250LWZhbWlseT0ic2Fucy1zZXJpZiIgZm9udC1zaXplPSIxMSIgbGVuZ3RoQWRqdXN0PSJzcGFjaW5nIiB0ZXh0TGVuZ3RoPSI1MCIgeD0iNTc4IiB5PSIxODAuNjA1NSI+JiMzMDMzMTsmIzI0NDA1OyYjMjUxMDQ7JiMyMTE1MTs/PC90ZXh0Pjx0ZXh0IGZpbGw9IiMwMDAwMDAiIGZvbnQtZmFtaWx5PSJzYW5zLXNlcmlmIiBmb250LXNpemU9IjExIiBsZW5ndGhBZGp1c3Q9InNwYWNpbmciIHRleHRMZW5ndGg9IjExIiB4PSI1NTUiIHk9IjE3NC43MTg4Ij4mIzI2MTU5OzwvdGV4dD48dGV4dCBmaWxsPSIjMDAwMDAwIiBmb250LWZhbWlseT0ic2Fucy1zZXJpZiIgZm9udC1zaXplPSIxMSIgbGVuZ3RoQWRqdXN0PSJzcGFjaW5nIiB0ZXh0TGVuZ3RoPSIxMSIgeD0iNjQwIiB5PSIxNzQuNzE4OCI+JiMyMTU0Mjs8L3RleHQ+PHJlY3QgZmlsbD0iI0YxRjFGMSIgaGVpZ2h0PSIzMi44NDM4IiByeD0iMTIuNSIgcnk9IjEyLjUiIHN0eWxlPSJzdHJva2U6IzE4MTgxODtzdHJva2Utd2lkdGg6MC41OyIgd2lkdGg9IjkyIiB4PSI0NTcuNSIgeT0iMjA4LjA5MzgiLz48dGV4dCBmaWxsPSIjMDAwMDAwIiBmb250LWZhbWlseT0ic2Fucy1zZXJpZiIgZm9udC1zaXplPSIxMiIgbGVuZ3RoQWRqdXN0PSJzcGFjaW5nIiB0ZXh0TGVuZ3RoPSI3MiIgeD0iNDY3LjUiIHk9IjIyOS40Mzc1Ij4mIzI2NTk3OyYjMzU4MTA7JiMyNTE1MjsmIzI2Mzc3OyYjMjUzNTE7JiMyNjYzMTs8L3RleHQ+PHJlY3QgZmlsbD0iI0YxRjFGMSIgaGVpZ2h0PSIzMi44NDM4IiByeD0iMTIuNSIgcnk9IjEyLjUiIHN0eWxlPSJzdHJva2U6IzE4MTgxODtzdHJva2Utd2lkdGg6MC41OyIgd2lkdGg9IjkyIiB4PSI0NTcuNSIgeT0iNDE5LjQ2ODgiLz48dGV4dCBmaWxsPSIjMDAwMDAwIiBmb250LWZhbWlseT0ic2Fucy1zZXJpZiIgZm9udC1zaXplPSIxMiIgbGVuZ3RoQWRqdXN0PSJzcGFjaW5nIiB0ZXh0TGVuZ3RoPSI3MiIgeD0iNDY3LjUiIHk9IjQ0MC44MTI1Ij4mIzM1NzQ1OyYjMzE2Mzk7JiMyNTM1MTsmIzI2NjMxOyYjMjQ0NzE7JiMyMDk5ODs8L3RleHQ+PHJlY3QgZmlsbD0iI0YxRjFGMSIgaGVpZ2h0PSIzMi44NDM4IiByeD0iMTIuNSIgcnk9IjEyLjUiIHN0eWxlPSJzdHJva2U6IzE4MTgxODtzdHJva2Utd2lkdGg6MC41OyIgd2lkdGg9IjkyIiB4PSI0NTcuNSIgeT0iNDcyLjMxMjUiLz48dGV4dCBmaWxsPSIjMDAwMDAwIiBmb250LWZhbWlseT0ic2Fucy1zZXJpZiIgZm9udC1zaXplPSIxMiIgbGVuZ3RoQWRqdXN0PSJzcGFjaW5nIiB0ZXh0TGVuZ3RoPSI3MiIgeD0iNDY3LjUiIHk9IjQ5My42NTYzIj4mIzI2MzU2OyYjMjYwMzI7JiMyNTM1MTsmIzI2NjMxOyYjMjQ0NzE7JiMyMDk5ODs8L3RleHQ+PHJlY3QgZmlsbD0iI0YxRjFGMSIgaGVpZ2h0PSIzMi44NDM4IiByeD0iMTIuNSIgcnk9IjEyLjUiIHN0eWxlPSJzdHJva2U6IzE4MTgxODtzdHJva2Utd2lkdGg6MC41OyIgd2lkdGg9IjkyIiB4PSI0NTcuNSIgeT0iNTI1LjE1NjMiLz48dGV4dCBmaWxsPSIjMDAwMDAwIiBmb250LWZhbWlseT0ic2Fucy1zZXJpZiIgZm9udC1zaXplPSIxMiIgbGVuZ3RoQWRqdXN0PSJzcGFjaW5nIiB0ZXh0TGVuZ3RoPSI3MiIgeD0iNDY3LjUiIHk9IjU0Ni41Ij4mIzI5OTgzOyYjMjUxMDQ7JiMyNTM1MTsmIzI2NjMxOyYjMjUyNTM7JiMyMTU3ODs8L3RleHQ+PHBvbHlnb24gZmlsbD0iI0YxRjFGMSIgcG9pbnRzPSI0NjcuNSw2MzAuODQzOCw1MzkuNSw2MzAuODQzOCw1NTEuNSw2NDIuODQzOCw1MzkuNSw2NTQuODQzOCw0NjcuNSw2NTQuODQzOCw0NTUuNSw2NDIuODQzOCw0NjcuNSw2MzAuODQzOCIgc3R5bGU9InN0cm9rZTojMTgxODE4O3N0cm9rZS13aWR0aDowLjU7Ii8+PHRleHQgZmlsbD0iIzAwMDAwMCIgZm9udC1mYW1pbHk9InNhbnMtc2VyaWYiIGZvbnQtc2l6ZT0iMTEiIGxlbmd0aEFkanVzdD0ic3BhY2luZyIgdGV4dExlbmd0aD0iNzIiIHg9IjQ2Ny41IiB5PSI2NDcuMzU1NSI+JiMyNTM1MTsmIzI2NjMxOyYjMjUyNTM7JiMyMTU3ODsmIzIzMzg0OyYjMjIzMTI7PzwvdGV4dD48dGV4dCBmaWxsPSIjMDAwMDAwIiBmb250LWZhbWlseT0ic2Fucy1zZXJpZiIgZm9udC1zaXplPSIxMSIgbGVuZ3RoQWRqdXN0PSJzcGFjaW5nIiB0ZXh0TGVuZ3RoPSIxMSIgeD0iNDQ0LjUiIHk9IjY0MS40Njg4Ij4mIzI2MTU5OzwvdGV4dD48dGV4dCBmaWxsPSIjMDAwMDAwIiBmb250LWZhbWlseT0ic2Fucy1zZXJpZiIgZm9udC1zaXplPSIxMSIgbGVuZ3RoQWRqdXN0PSJzcGFjaW5nIiB0ZXh0TGVuZ3RoPSIxMSIgeD0iNTUxLjUiIHk9IjY0MS40Njg4Ij4mIzIxNTQyOzwvdGV4dD48cmVjdCBmaWxsPSIjRjFGMUYxIiBoZWlnaHQ9IjMyLjg0MzgiIHJ4PSIxMi41IiByeT0iMTIuNSIgc3R5bGU9InN0cm9rZTojMTgxODE4O3N0cm9rZS13aWR0aDowLjU7IiB3aWR0aD0iMTE2IiB4PSIzNzQuNSIgeT0iNjY0Ljg0MzgiLz48dGV4dCBmaWxsPSIjMDAwMDAwIiBmb250LWZhbWlseT0ic2Fucy1zZXJpZiIgZm9udC1zaXplPSIxMiIgbGVuZ3RoQWRqdXN0PSJzcGFjaW5nIiB0ZXh0TGVuZ3RoPSI5NiIgeD0iMzg0LjUiIHk9IjY4Ni4xODc1Ij4mIzI5OTgzOyYjMjUxMDQ7JiMyNTM1MTsmIzI2NjMxOyYjMjAyNDg7JiMyMTI3MDsmIzI0MzE0OyYjMzU3NTg7PC90ZXh0PjxyZWN0IGZpbGw9IiNGMUYxRjEiIGhlaWdodD0iMzIuODQzOCIgcng9IjEyLjUiIHJ5PSIxMi41IiBzdHlsZT0ic3Ryb2tlOiMxODE4MTg7c3Ryb2tlLXdpZHRoOjAuNTsiIHdpZHRoPSIxMjgiIHg9IjUxMC41IiB5PSI2NjQuODQzOCIvPjx0ZXh0IGZpbGw9IiMwMDAwMDAiIGZvbnQtZmFtaWx5PSJzYW5zLXNlcmlmIiBmb250LXNpemU9IjEyIiBsZW5ndGhBZGp1c3Q9InNwYWNpbmciIHRleHRMZW5ndGg9IjEwOCIgeD0iNTIwLjUiIHk9IjY4Ni4xODc1Ij4mIzE5OTgxOyYjMjk5ODM7JiMyNTEwNDsmIzI1MzUxOyYjMjY2MzE7JiMyMDI0ODsmIzIxMjcwOyYjMjQzMTQ7JiMzNTc1ODs8L3RleHQ+PHBvbHlnb24gZmlsbD0iI0YxRjFGMSIgcG9pbnRzPSI1MDMuNSw3MDMuNjg3NSw1MTUuNSw3MTUuNjg3NSw1MDMuNSw3MjcuNjg3NSw0OTEuNSw3MTUuNjg3NSw1MDMuNSw3MDMuNjg3NSIgc3R5bGU9InN0cm9rZTojMTgxODE4O3N0cm9rZS13aWR0aDowLjU7Ii8+PHJlY3QgZmlsbD0iI0YxRjFGMSIgaGVpZ2h0PSIzMi44NDM4IiByeD0iMTIuNSIgcnk9IjEyLjUiIHN0eWxlPSJzdHJva2U6IzE4MTgxODtzdHJva2Utd2lkdGg6MC41OyIgd2lkdGg9IjExNiIgeD0iNDQ1LjUiIHk9Ijc0Ny42ODc1Ii8+PHRleHQgZmlsbD0iIzAwMDAwMCIgZm9udC1mYW1pbHk9InNhbnMtc2VyaWYiIGZvbnQtc2l6ZT0iMTIiIGxlbmd0aEFkanVzdD0ic3BhY2luZyIgdGV4dExlbmd0aD0iOTYiIHg9IjQ1NS41IiB5PSI3NjkuMDMxMyI+JiMyNjE3NDsmIzMxMDM0OyYjMjUzNTE7JiMyNjYzMTsmIzIwMjQ4OyYjMjEyNzA7JiMyNDMxNDsmIzM1NzU4OzwvdGV4dD48cG9seWdvbiBmaWxsPSIjRjFGMUYxIiBwb2ludHM9IjYwMyw5MDcuMzc1LDYxNSw5MTkuMzc1LDYwMyw5MzEuMzc1LDU5MSw5MTkuMzc1LDYwMyw5MDcuMzc1IiBzdHlsZT0ic3Ryb2tlOiMxODE4MTg7c3Ryb2tlLXdpZHRoOjAuNTsiLz48bGluZSBzdHlsZT0ic3Ryb2tlOiMwMDAwMDA7c3Ryb2tlLXdpZHRoOjEuNTsiIHgxPSIzNjguNSIgeDI9IjM2OC41IiB5MT0iNDYuOTg0NCIgeTI9IjkzMS4zNzUiLz48bGluZSBzdHlsZT0ic3Ryb2tlOiMwMDAwMDA7c3Ryb2tlLXdpZHRoOjEuNTsiIHgxPSI2NTYiIHgyPSI2NTYiIHkxPSI0Ni45ODQ0IiB5Mj0iOTMxLjM3NSIvPjxsaW5lIHN0eWxlPSJzdHJva2U6IzE4MTgxODtzdHJva2Utd2lkdGg6MS4wOyIgeDE9IjI1Mi41IiB4Mj0iMjUyLjUiIHkxPSI5MS4yNSIgeTI9IjExMS4yNSIvPjxwb2x5Z29uIGZpbGw9IiMxODE4MTgiIHBvaW50cz0iMjQ4LjUsMTAxLjI1LDI1Mi41LDExMS4yNSwyNTYuNSwxMDEuMjUsMjUyLjUsMTA1LjI1IiBzdHlsZT0ic3Ryb2tlOiMxODE4MTg7c3Ryb2tlLXdpZHRoOjEuMDsiLz48bGluZSBzdHlsZT0ic3Ryb2tlOiMxODE4MTg7c3Ryb2tlLXdpZHRoOjEuMDsiIHgxPSIxNTMiIHgyPSIxNTMiIHkxPSIyOTMuNzgxMyIgeTI9IjMxMy43ODEzIi8+PHBvbHlnb24gZmlsbD0iIzE4MTgxOCIgcG9pbnRzPSIxNDksMzAzLjc4MTMsMTUzLDMxMy43ODEzLDE1NywzMDMuNzgxMywxNTMsMzA3Ljc4MTMiIHN0eWxlPSJzdHJva2U6IzE4MTgxODtzdHJva2Utd2lkdGg6MS4wOyIvPjxsaW5lIHN0eWxlPSJzdHJva2U6IzE4MTgxODtzdHJva2Utd2lkdGg6MS4wOyIgeDE9IjE1MyIgeDI9IjE1MyIgeTE9IjM0Ni42MjUiIHkyPSIzNjYuNjI1Ii8+PHBvbHlnb24gZmlsbD0iIzE4MTgxOCIgcG9pbnRzPSIxNDksMzU2LjYyNSwxNTMsMzY2LjYyNSwxNTcsMzU2LjYyNSwxNTMsMzYwLjYyNSIgc3R5bGU9InN0cm9rZTojMTgxODE4O3N0cm9rZS13aWR0aDoxLjA7Ii8+PGxpbmUgc3R5bGU9InN0cm9rZTojMTgxODE4O3N0cm9rZS13aWR0aDoxLjA7IiB4MT0iMTA1IiB4Mj0iOTEiIHkxPSI4MTIuNTMxMyIgeTI9IjgxMi41MzEzIi8+PGxpbmUgc3R5bGU9InN0cm9rZTojMTgxODE4O3N0cm9rZS13aWR0aDoxLjA7IiB4MT0iOTEiIHgyPSI5MSIgeTE9IjgxMi41MzEzIiB5Mj0iODM0LjUzMTMiLz48cG9seWdvbiBmaWxsPSIjMTgxODE4IiBwb2ludHM9Ijg3LDgyNC41MzEzLDkxLDgzNC41MzEzLDk1LDgyNC41MzEzLDkxLDgyOC41MzEzIiBzdHlsZT0ic3Ryb2tlOiMxODE4MTg7c3Ryb2tlLXdpZHRoOjEuMDsiLz48bGluZSBzdHlsZT0ic3Ryb2tlOiMxODE4MTg7c3Ryb2tlLXdpZHRoOjEuMDsiIHgxPSIyMDEiIHgyPSIyMTUiIHkxPSI4MTIuNTMxMyIgeTI9IjgxMi41MzEzIi8+PGxpbmUgc3R5bGU9InN0cm9rZTojMTgxODE4O3N0cm9rZS13aWR0aDoxLjA7IiB4MT0iMjE1IiB4Mj0iMjE1IiB5MT0iODEyLjUzMTMiIHkyPSI4MzQuNTMxMyIvPjxwb2x5Z29uIGZpbGw9IiMxODE4MTgiIHBvaW50cz0iMjExLDgyNC41MzEzLDIxNSw4MzQuNTMxMywyMTksODI0LjUzMTMsMjE1LDgyOC41MzEzIiBzdHlsZT0ic3Ryb2tlOiMxODE4MTg7c3Ryb2tlLXdpZHRoOjEuMDsiLz48bGluZSBzdHlsZT0ic3Ryb2tlOiMxODE4MTg7c3Ryb2tlLXdpZHRoOjEuMDsiIHgxPSI5MSIgeDI9IjkxIiB5MT0iODY3LjM3NSIgeTI9Ijg4NS4zNzUiLz48bGluZSBzdHlsZT0ic3Ryb2tlOiMxODE4MTg7c3Ryb2tlLXdpZHRoOjEuMDsiIHgxPSI5MSIgeDI9IjE0MSIgeTE9Ijg4NS4zNzUiIHkyPSI4ODUuMzc1Ii8+PHBvbHlnb24gZmlsbD0iIzE4MTgxOCIgcG9pbnRzPSIxMzEsODgxLjM3NSwxNDEsODg1LjM3NSwxMzEsODg5LjM3NSwxMzUsODg1LjM3NSIgc3R5bGU9InN0cm9rZTojMTgxODE4O3N0cm9rZS13aWR0aDoxLjA7Ii8+PGxpbmUgc3R5bGU9InN0cm9rZTojMTgxODE4O3N0cm9rZS13aWR0aDoxLjA7IiB4MT0iMjE1IiB4Mj0iMjE1IiB5MT0iODY3LjM3NSIgeTI9Ijg4NS4zNzUiLz48bGluZSBzdHlsZT0ic3Ryb2tlOiMxODE4MTg7c3Ryb2tlLXdpZHRoOjEuMDsiIHgxPSIyMTUiIHgyPSIxNjUiIHkxPSI4ODUuMzc1IiB5Mj0iODg1LjM3NSIvPjxwb2x5Z29uIGZpbGw9IiMxODE4MTgiIHBvaW50cz0iMTc1LDg4MS4zNzUsMTY1LDg4NS4zNzUsMTc1LDg4OS4zNzUsMTcxLDg4NS4zNzUiIHN0eWxlPSJzdHJva2U6IzE4MTgxODtzdHJva2Utd2lkdGg6MS4wOyIvPjxsaW5lIHN0eWxlPSJzdHJva2U6IzE4MTgxODtzdHJva2Utd2lkdGg6MS4wOyIgeDE9IjUwMy41IiB4Mj0iNTAzLjUiIHkxPSI0NTIuMzEyNSIgeTI9IjQ3Mi4zMTI1Ii8+PHBvbHlnb24gZmlsbD0iIzE4MTgxOCIgcG9pbnRzPSI0OTkuNSw0NjIuMzEyNSw1MDMuNSw0NzIuMzEyNSw1MDcuNSw0NjIuMzEyNSw1MDMuNSw0NjYuMzEyNSIgc3R5bGU9InN0cm9rZTojMTgxODE4O3N0cm9rZS13aWR0aDoxLjA7Ii8+PGxpbmUgc3R5bGU9InN0cm9rZTojMTgxODE4O3N0cm9rZS13aWR0aDoxLjA7IiB4MT0iNTAzLjUiIHgyPSI1MDMuNSIgeTE9IjUwNS4xNTYzIiB5Mj0iNTI1LjE1NjMiLz48cG9seWdvbiBmaWxsPSIjMTgxODE4IiBwb2ludHM9IjQ5OS41LDUxNS4xNTYzLDUwMy41LDUyNS4xNTYzLDUwNy41LDUxNS4xNTYzLDUwMy41LDUxOS4xNTYzIiBzdHlsZT0ic3Ryb2tlOiMxODE4MTg7c3Ryb2tlLXdpZHRoOjEuMDsiLz48bGluZSBzdHlsZT0ic3Ryb2tlOiMxODE4MTg7c3Ryb2tlLXdpZHRoOjEuMDsiIHgxPSI0NTUuNSIgeDI9IjQzMi41IiB5MT0iNjQyLjg0MzgiIHkyPSI2NDIuODQzOCIvPjxsaW5lIHN0eWxlPSJzdHJva2U6IzE4MTgxODtzdHJva2Utd2lkdGg6MS4wOyIgeDE9IjQzMi41IiB4Mj0iNDMyLjUiIHkxPSI2NDIuODQzOCIgeTI9IjY2NC44NDM4Ii8+PHBvbHlnb24gZmlsbD0iIzE4MTgxOCIgcG9pbnRzPSI0MjguNSw2NTQuODQzOCw0MzIuNSw2NjQuODQzOCw0MzYuNSw2NTQuODQzOCw0MzIuNSw2NTguODQzOCIgc3R5bGU9InN0cm9rZTojMTgxODE4O3N0cm9rZS13aWR0aDoxLjA7Ii8+PGxpbmUgc3R5bGU9InN0cm9rZTojMTgxODE4O3N0cm9rZS13aWR0aDoxLjA7IiB4MT0iNTUxLjUiIHgyPSI1NzQuNSIgeTE9IjY0Mi44NDM4IiB5Mj0iNjQyLjg0MzgiLz48bGluZSBzdHlsZT0ic3Ryb2tlOiMxODE4MTg7c3Ryb2tlLXdpZHRoOjEuMDsiIHgxPSI1NzQuNSIgeDI9IjU3NC41IiB5MT0iNjQyLjg0MzgiIHkyPSI2NjQuODQzOCIvPjxwb2x5Z29uIGZpbGw9IiMxODE4MTgiIHBvaW50cz0iNTcwLjUsNjU0Ljg0MzgsNTc0LjUsNjY0Ljg0MzgsNTc4LjUsNjU0Ljg0MzgsNTc0LjUsNjU4Ljg0MzgiIHN0eWxlPSJzdHJva2U6IzE4MTgxODtzdHJva2Utd2lkdGg6MS4wOyIvPjxsaW5lIHN0eWxlPSJzdHJva2U6IzE4MTgxODtzdHJva2Utd2lkdGg6MS4wOyIgeDE9IjQzMi41IiB4Mj0iNDMyLjUiIHkxPSI2OTcuNjg3NSIgeTI9IjcxNS42ODc1Ii8+PGxpbmUgc3R5bGU9InN0cm9rZTojMTgxODE4O3N0cm9rZS13aWR0aDoxLjA7IiB4MT0iNDMyLjUiIHgyPSI0OTEuNSIgeTE9IjcxNS42ODc1IiB5Mj0iNzE1LjY4NzUiLz48cG9seWdvbiBmaWxsPSIjMTgxODE4IiBwb2ludHM9IjQ4MS41LDcxMS42ODc1LDQ5MS41LDcxNS42ODc1LDQ4MS41LDcxOS42ODc1LDQ4NS41LDcxNS42ODc1IiBzdHlsZT0ic3Ryb2tlOiMxODE4MTg7c3Ryb2tlLXdpZHRoOjEuMDsiLz48bGluZSBzdHlsZT0ic3Ryb2tlOiMxODE4MTg7c3Ryb2tlLXdpZHRoOjEuMDsiIHgxPSI1NzQuNSIgeDI9IjU3NC41IiB5MT0iNjk3LjY4NzUiIHkyPSI3MTUuNjg3NSIvPjxsaW5lIHN0eWxlPSJzdHJva2U6IzE4MTgxODtzdHJva2Utd2lkdGg6MS4wOyIgeDE9IjU3NC41IiB4Mj0iNTE1LjUiIHkxPSI3MTUuNjg3NSIgeTI9IjcxNS42ODc1Ii8+PHBvbHlnb24gZmlsbD0iIzE4MTgxOCIgcG9pbnRzPSI1MjUuNSw3MTEuNjg3NSw1MTUuNSw3MTUuNjg3NSw1MjUuNSw3MTkuNjg3NSw1MjEuNSw3MTUuNjg3NSIgc3R5bGU9InN0cm9rZTojMTgxODE4O3N0cm9rZS13aWR0aDoxLjA7Ii8+PGxpbmUgc3R5bGU9InN0cm9rZTojMTgxODE4O3N0cm9rZS13aWR0aDoxLjA7IiB4MT0iNTAzLjUiIHgyPSI1MDMuNSIgeTE9IjcyNy42ODc1IiB5Mj0iNzQ3LjY4NzUiLz48cG9seWdvbiBmaWxsPSIjMTgxODE4IiBwb2ludHM9IjQ5OS41LDczNy42ODc1LDUwMy41LDc0Ny42ODc1LDUwNy41LDczNy42ODc1LDUwMy41LDc0MS42ODc1IiBzdHlsZT0ic3Ryb2tlOiMxODE4MTg7c3Ryb2tlLXdpZHRoOjEuMDsiLz48bGluZSBzdHlsZT0ic3Ryb2tlOiMxODE4MTg7c3Ryb2tlLXdpZHRoOjEuMDsiIHgxPSI1NjYiIHgyPSI1MDMuNSIgeTE9IjE3Ni4wOTM4IiB5Mj0iMTc2LjA5MzgiLz48bGluZSBzdHlsZT0ic3Ryb2tlOiMxODE4MTg7c3Ryb2tlLXdpZHRoOjEuMDsiIHgxPSI1MDMuNSIgeDI9IjUwMy41IiB5MT0iMTc2LjA5MzgiIHkyPSIyMDguMDkzOCIvPjxwb2x5Z29uIGZpbGw9IiMxODE4MTgiIHBvaW50cz0iNDk5LjUsMTk4LjA5MzgsNTAzLjUsMjA4LjA5MzgsNTA3LjUsMTk4LjA5MzgsNTAzLjUsMjAyLjA5MzgiIHN0eWxlPSJzdHJva2U6IzE4MTgxODtzdHJva2Utd2lkdGg6MS4wOyIvPjxsaW5lIHN0eWxlPSJzdHJva2U6IzE4MTgxODtzdHJva2Utd2lkdGg6MS4wOyIgeDE9IjUwMy41IiB4Mj0iNTAzLjUiIHkxPSIyNDAuOTM3NSIgeTI9IjI0NS45Mzc1Ii8+PGxpbmUgc3R5bGU9InN0cm9rZTojMTgxODE4O3N0cm9rZS13aWR0aDoxLjA7IiB4MT0iNTAzLjUiIHgyPSIxNTMiIHkxPSIyNDUuOTM3NSIgeTI9IjI0NS45Mzc1Ii8+PGxpbmUgc3R5bGU9InN0cm9rZTojMTgxODE4O3N0cm9rZS13aWR0aDoxLjA7IiB4MT0iMTUzIiB4Mj0iMTUzIiB5MT0iMjQ1LjkzNzUiIHkyPSIyNjAuOTM3NSIvPjxwb2x5Z29uIGZpbGw9IiMxODE4MTgiIHBvaW50cz0iMTQ5LDI1MC45Mzc1LDE1MywyNjAuOTM3NSwxNTcsMjUwLjkzNzUsMTUzLDI1NC45Mzc1IiBzdHlsZT0ic3Ryb2tlOiMxODE4MTg7c3Ryb2tlLXdpZHRoOjEuMDsiLz48bGluZSBzdHlsZT0ic3Ryb2tlOiMxODE4MTg7c3Ryb2tlLXdpZHRoOjEuMDsiIHgxPSIxNTMiIHgyPSIxNTMiIHkxPSIzOTkuNDY4OCIgeTI9IjQwNC40Njg4Ii8+PGxpbmUgc3R5bGU9InN0cm9rZTojMTgxODE4O3N0cm9rZS13aWR0aDoxLjA7IiB4MT0iMTUzIiB4Mj0iNTAzLjUiIHkxPSI0MDQuNDY4OCIgeTI9IjQwNC40Njg4Ii8+PGxpbmUgc3R5bGU9InN0cm9rZTojMTgxODE4O3N0cm9rZS13aWR0aDoxLjA7IiB4MT0iNTAzLjUiIHgyPSI1MDMuNSIgeTE9IjQwNC40Njg4IiB5Mj0iNDE5LjQ2ODgiLz48cG9seWdvbiBmaWxsPSIjMTgxODE4IiBwb2ludHM9IjQ5OS41LDQwOS40Njg4LDUwMy41LDQxOS40Njg4LDUwNy41LDQwOS40Njg4LDUwMy41LDQxMy40Njg4IiBzdHlsZT0ic3Ryb2tlOiMxODE4MTg7c3Ryb2tlLXdpZHRoOjEuMDsiLz48bGluZSBzdHlsZT0ic3Ryb2tlOiMxODE4MTg7c3Ryb2tlLXdpZHRoOjEuMDsiIHgxPSI1MDMuNSIgeDI9IjUwMy41IiB5MT0iNTU4IiB5Mj0iNTYzIi8+PGxpbmUgc3R5bGU9InN0cm9rZTojMTgxODE4O3N0cm9rZS13aWR0aDoxLjA7IiB4MT0iNTAzLjUiIHgyPSIxNTMiIHkxPSI1NjMiIHkyPSI1NjMiLz48bGluZSBzdHlsZT0ic3Ryb2tlOiMxODE4MTg7c3Ryb2tlLXdpZHRoOjEuMDsiIHgxPSIxNTMiIHgyPSIxNTMiIHkxPSI1NjMiIHkyPSI1NzgiLz48cG9seWdvbiBmaWxsPSIjMTgxODE4IiBwb2ludHM9IjE0OSw1NjgsMTUzLDU3OCwxNTcsNTY4LDE1Myw1NzIiIHN0eWxlPSJzdHJva2U6IzE4MTgxODtzdHJva2Utd2lkdGg6MS4wOyIvPjxsaW5lIHN0eWxlPSJzdHJva2U6IzE4MTgxODtzdHJva2Utd2lkdGg6MS4wOyIgeDE9IjE1MyIgeDI9IjE1MyIgeTE9IjYxMC44NDM4IiB5Mj0iNjE1Ljg0MzgiLz48bGluZSBzdHlsZT0ic3Ryb2tlOiMxODE4MTg7c3Ryb2tlLXdpZHRoOjEuMDsiIHgxPSIxNTMiIHgyPSI1MDMuNSIgeTE9IjYxNS44NDM4IiB5Mj0iNjE1Ljg0MzgiLz48bGluZSBzdHlsZT0ic3Ryb2tlOiMxODE4MTg7c3Ryb2tlLXdpZHRoOjEuMDsiIHgxPSI1MDMuNSIgeDI9IjUwMy41IiB5MT0iNjE1Ljg0MzgiIHkyPSI2MzAuODQzOCIvPjxwb2x5Z29uIGZpbGw9IiMxODE4MTgiIHBvaW50cz0iNDk5LjUsNjIwLjg0MzgsNTAzLjUsNjMwLjg0MzgsNTA3LjUsNjIwLjg0MzgsNTAzLjUsNjI0Ljg0MzgiIHN0eWxlPSJzdHJva2U6IzE4MTgxODtzdHJva2Utd2lkdGg6MS4wOyIvPjxsaW5lIHN0eWxlPSJzdHJva2U6IzE4MTgxODtzdHJva2Utd2lkdGg6MS4wOyIgeDE9IjUwMy41IiB4Mj0iNTAzLjUiIHkxPSI3ODAuNTMxMyIgeTI9Ijc4NS41MzEzIi8+PGxpbmUgc3R5bGU9InN0cm9rZTojMTgxODE4O3N0cm9rZS13aWR0aDoxLjA7IiB4MT0iNTAzLjUiIHgyPSIxNTMiIHkxPSI3ODUuNTMxMyIgeTI9Ijc4NS41MzEzIi8+PGxpbmUgc3R5bGU9InN0cm9rZTojMTgxODE4O3N0cm9rZS13aWR0aDoxLjA7IiB4MT0iMTUzIiB4Mj0iMTUzIiB5MT0iNzg1LjUzMTMiIHkyPSI4MDAuNTMxMyIvPjxwb2x5Z29uIGZpbGw9IiMxODE4MTgiIHBvaW50cz0iMTQ5LDc5MC41MzEzLDE1Myw4MDAuNTMxMywxNTcsNzkwLjUzMTMsMTUzLDc5NC41MzEzIiBzdHlsZT0ic3Ryb2tlOiMxODE4MTg7c3Ryb2tlLXdpZHRoOjEuMDsiLz48bGluZSBzdHlsZT0ic3Ryb2tlOiMxODE4MTg7c3Ryb2tlLXdpZHRoOjEuMDsiIHgxPSI2NDAiIHgyPSI2NTIiIHkxPSIxNzYuMDkzOCIgeTI9IjE3Ni4wOTM4Ii8+PGxpbmUgc3R5bGU9InN0cm9rZTojMTgxODE4O3N0cm9rZS13aWR0aDoxLjA7IiB4MT0iNjUyIiB4Mj0iNjUyIiB5MT0iMTc2LjA5MzgiIHkyPSIxOTQuMDkzOCIvPjxsaW5lIHN0eWxlPSJzdHJva2U6IzE4MTgxODtzdHJva2Utd2lkdGg6MS4wOyIgeDE9IjY1MiIgeDI9IjMzMC41IiB5MT0iMTk0LjA5MzgiIHkyPSIxOTQuMDkzOCIvPjxsaW5lIHN0eWxlPSJzdHJva2U6IzE4MTgxODtzdHJva2Utd2lkdGg6MS4wOyIgeDE9IjMzMC41IiB4Mj0iMzMwLjUiIHkxPSIxOTQuMDkzOCIgeTI9IjIwOC4wOTM4Ii8+PHBvbHlnb24gZmlsbD0iIzE4MTgxOCIgcG9pbnRzPSIzMjYuNSwxOTguMDkzOCwzMzAuNSwyMDguMDkzOCwzMzQuNSwxOTguMDkzOCwzMzAuNSwyMDIuMDkzOCIgc3R5bGU9InN0cm9rZTojMTgxODE4O3N0cm9rZS13aWR0aDoxLjA7Ii8+PGxpbmUgc3R5bGU9InN0cm9rZTojMTgxODE4O3N0cm9rZS13aWR0aDoxLjA7IiB4MT0iMTUzIiB4Mj0iMTUzIiB5MT0iODk3LjM3NSIgeTI9IjkxOS4zNzUiLz48bGluZSBzdHlsZT0ic3Ryb2tlOiMxODE4MTg7c3Ryb2tlLXdpZHRoOjEuMDsiIHgxPSIxNTMiIHgyPSI1OTEiIHkxPSI5MTkuMzc1IiB5Mj0iOTE5LjM3NSIvPjxwb2x5Z29uIGZpbGw9IiMxODE4MTgiIHBvaW50cz0iNTgxLDkxNS4zNzUsNTkxLDkxOS4zNzUsNTgxLDkyMy4zNzUsNTg1LDkxOS4zNzUiIHN0eWxlPSJzdHJva2U6IzE4MTgxODtzdHJva2Utd2lkdGg6MS4wOyIvPjxsaW5lIHN0eWxlPSJzdHJva2U6IzE4MTgxODtzdHJva2Utd2lkdGg6MS4wOyIgeDE9IjMzMC41IiB4Mj0iMzMwLjUiIHkxPSIyNDAuOTM3NSIgeTI9IjkwMS4zNzUiLz48bGluZSBzdHlsZT0ic3Ryb2tlOiMxODE4MTg7c3Ryb2tlLXdpZHRoOjEuMDsiIHgxPSIzMzAuNSIgeDI9IjYzMyIgeTE9IjkwMS4zNzUiIHkyPSI5MDEuMzc1Ii8+PGxpbmUgc3R5bGU9InN0cm9rZTojMTgxODE4O3N0cm9rZS13aWR0aDoxLjA7IiB4MT0iNjMzIiB4Mj0iNjMzIiB5MT0iOTAxLjM3NSIgeTI9IjkxOS4zNzUiLz48bGluZSBzdHlsZT0ic3Ryb2tlOiMxODE4MTg7c3Ryb2tlLXdpZHRoOjEuMDsiIHgxPSI2MzMiIHgyPSI2MTUiIHkxPSI5MTkuMzc1IiB5Mj0iOTE5LjM3NSIvPjxwb2x5Z29uIGZpbGw9IiMxODE4MTgiIHBvaW50cz0iNjI1LDkxNS4zNzUsNjE1LDkxOS4zNzUsNjI1LDkyMy4zNzUsNjIxLDkxOS4zNzUiIHN0eWxlPSJzdHJva2U6IzE4MTgxODtzdHJva2Utd2lkdGg6MS4wOyIvPjxsaW5lIHN0eWxlPSJzdHJva2U6IzE4MTgxODtzdHJva2Utd2lkdGg6MS4wOyIgeDE9IjI1Mi41IiB4Mj0iMjUyLjUiIHkxPSIxNDQuMDkzOCIgeTI9IjE0OS4wOTM4Ii8+PGxpbmUgc3R5bGU9InN0cm9rZTojMTgxODE4O3N0cm9rZS13aWR0aDoxLjA7IiB4MT0iMjUyLjUiIHgyPSI2MDMiIHkxPSIxNDkuMDkzOCIgeTI9IjE0OS4wOTM4Ii8+PGxpbmUgc3R5bGU9InN0cm9rZTojMTgxODE4O3N0cm9rZS13aWR0aDoxLjA7IiB4MT0iNjAzIiB4Mj0iNjAzIiB5MT0iMTQ5LjA5MzgiIHkyPSIxNjQuMDkzOCIvPjxwb2x5Z29uIGZpbGw9IiMxODE4MTgiIHBvaW50cz0iNTk5LDE1NC4wOTM4LDYwMywxNjQuMDkzOCw2MDcsMTU0LjA5MzgsNjAzLDE1OC4wOTM4IiBzdHlsZT0ic3Ryb2tlOiMxODE4MTg7c3Ryb2tlLXdpZHRoOjEuMDsiLz48dGV4dCBmaWxsPSIjMDAwMDAwIiBmb250LWZhbWlseT0ic2Fucy1zZXJpZiIgZm9udC1zaXplPSIxOCIgbGVuZ3RoQWRqdXN0PSJzcGFjaW5nIiB0ZXh0TGVuZ3RoPSIzNiIgeD0iMTczLjc1IiB5PSI2NCI+VXNlcjwvdGV4dD48dGV4dCBmaWxsPSIjMDAwMDAwIiBmb250LWZhbWlseT0ic2Fucy1zZXJpZiIgZm9udC1zaXplPSIxOCIgbGVuZ3RoQWRqdXN0PSJzcGFjaW5nIiB0ZXh0TGVuZ3RoPSI1NCIgeD0iNDg1LjI1IiB5PSI2NCI+U3lzdGVtPC90ZXh0PjwhLS1TUkM9W1ZMOURKaTkwNUR4RkFNUFBoVzBCM3M0eVc4YWJhWTBCc2VyOTVvS1h5akNJQ0lYS1FRbU9HM0lYREs1WnFuNnlwQ29SU1dsUkpXN3ZZVGx0X1J1dGVuUktlZXAxaEM1SkJWSWdiN3AxUHVMRjM4SXE0cUtrUXFYSEp5aWdvbDl4bWtQdFY0T3VTTjk4RXh2S0xGYjJHdUt5YldHNHpKUGhFYVNQaDl4QjlJbzF2TUtHbmJibUhnN3QzMHFUeDhQOG9LTlpyM2wyYnRlM1pEVG1OMTdYX0E2d09NTjNkdHV1Q0REUWRIUVRzempZazZ4Sk85V2dJR1NVMVJ1ZzVwa3UwLXhzWDJMUno1WnpBWjY2X1dUcXRfVjZfRFE5clgxWlE4eE9KTkNkcG5ibnN6WjNEdGRuRVZ4MlI2ZW5VeDl4YjlxYS1jcW5peWo4NEJma3gyU041SGJCaDNyRWtUSGxfS2lsZEhOb0lKamhtT1YxT1Q5d1gtSjFvMGlkcV9JaTJWcjBHdDV4d1hsS3J3ZF85ZFpIeW1aUGVQdkJOTVVyT0ZMNXVqNHdMTkpTNGtwSEt0OTJfR0swXS0tPjwvZz48L3N2Zz4=;" vertex="1" parent="1">
            <mxGeometry x="63" y="710" width="677" height="943" as="geometry" />
          </mxCell>
        </UserObject>
        <UserObject label="" plantUmlData="{&#xa;  &quot;data&quot;: &quot;@startuml\n|用户管理模块|\nstart\n:用户注册;\n:填写个人信息;\n:提交注册信息;\n:注册成功;\n|用户管理模块| --&gt; |评价数据管理模块|\n:用户登录;\n|用户管理模块| --&gt; |评价流程模块|\n:修改密码;\n:修改个人信息;\n|评价数据管理模块|\n:导入评价数据;\n:修改评价数据;\n:删除评价数据;\n:查询评价数据;\n|评价数据管理模块| --&gt; |指标管理模块|\n|指标管理模块|\n:添加指标;\n:修改指标;\n:删除指标;\n:查询指标;\n|指标管理模块| --&gt; |评价流程模块|\n|评价流程模块|\n:用户评级指标;\n:提交评级数据;\n:生成评价结果;\n|评价流程模块| --&gt; |评价结果分析模块|\n|评价结果分析模块|\n:数据分析;\n:生成统计图表;\n:提供指标优化建议;\n:告警不良指标;\n|评价结果分析模块| --&gt; |系统设置模块|\n|系统设置模块|\n:设置用户权限;\n:设置系统参数;\n|系统设置模块| --&gt; |系统日志管理模块|\n|系统日志管理模块|\n:记录操作日志;\n:查询操作日志;\n|系统日志管理模块| --&gt; |系统维护模块|\n|系统维护模块|\n:备份数据;\n:恢复数据;\n:升级系统;\n|系统维护模块| --&gt; end\n@enduml\n&quot;,&#xa;  &quot;format&quot;: &quot;svg&quot;&#xa;}" id="lj0ikvdqPGdOUn9qGZUp-13">
          <mxCell style="shape=image;noLabel=1;verticalAlign=top;aspect=fixed;imageAspect=0;image=data:image/svg+xml,PD94bWwgdmVyc2lvbj0iMS4wIiBlbmNvZGluZz0idXMtYXNjaWkiIHN0YW5kYWxvbmU9Im5vIj8+PHN2ZyB4bWxucz0iaHR0cDovL3d3dy53My5vcmcvMjAwMC9zdmciIHhtbG5zOnhsaW5rPSJodHRwOi8vd3d3LnczLm9yZy8xOTk5L3hsaW5rIiBjb250ZW50U3R5bGVUeXBlPSJ0ZXh0L2NzcyIgaGVpZ2h0PSIyMDJweCIgcHJlc2VydmVBc3BlY3RSYXRpbz0ibm9uZSIgc3R5bGU9IndpZHRoOjI3MXB4O2hlaWdodDoyMDJweDtiYWNrZ3JvdW5kOiMwMDAwMDA7IiB2ZXJzaW9uPSIxLjEiIHZpZXdCb3g9IjAgMCAyNzEgMjAyIiB3aWR0aD0iMjcxcHgiIHpvb21BbmRQYW49Im1hZ25pZnkiPjxkZWZzLz48Zz48cmVjdCBmaWxsPSIjMTMxMzEzIiBoZWlnaHQ9IjEiIHN0eWxlPSJzdHJva2U6IzEzMTMxMztzdHJva2Utd2lkdGg6MS4wOyIgd2lkdGg9IjEiIHg9IjAiIHk9IjAiLz48dGV4dCBmaWxsPSIjMzNGRjAyIiBmb250LWZhbWlseT0ic2Fucy1zZXJpZiIgZm9udC1zaXplPSIxMiIgZm9udC1zdHlsZT0iaXRhbGljIiBmb250LXdlaWdodD0iYm9sZCIgbGVuZ3RoQWRqdXN0PSJzcGFjaW5nIiB0ZXh0TGVuZ3RoPSIxNDAiIHg9IjUiIHk9IjE3Ij5QbGFudFVNTCAxLjIwMjMuNmJldGExPC90ZXh0PjxyZWN0IGZpbGw9IiMzM0ZGMDIiIGhlaWdodD0iMTkuOTg0NCIgc3R5bGU9InN0cm9rZTojMzNGRjAyO3N0cm9rZS13aWR0aDoxLjA7IiB3aWR0aD0iMTY2IiB4PSI1IiB5PSIyNS44NDM4Ii8+PHRleHQgZmlsbD0iIzAwMDAwMCIgZm9udC1mYW1pbHk9InNhbnMtc2VyaWYiIGZvbnQtc2l6ZT0iMTQiIGZvbnQtd2VpZ2h0PSJib2xkIiBsZW5ndGhBZGp1c3Q9InNwYWNpbmciIHRleHRMZW5ndGg9IjE2NCIgeD0iNiIgeT0iNDAuODQzOCI+W0Zyb20gc3RyaW5nIChsaW5lIDgpIF08L3RleHQ+PHRleHQgZmlsbD0iIzMzRkYwMiIgZm9udC1mYW1pbHk9InNhbnMtc2VyaWYiIGZvbnQtc2l6ZT0iMTQiIGZvbnQtd2VpZ2h0PSJib2xkIiBsZW5ndGhBZGp1c3Q9InNwYWNpbmciIHRleHRMZW5ndGg9IjciIHg9IjUiIHk9IjU5LjgyODEiPiYjMTYwOzwvdGV4dD48dGV4dCBmaWxsPSIjMzNGRjAyIiBmb250LWZhbWlseT0ic2Fucy1zZXJpZiIgZm9udC1zaXplPSIxNCIgZm9udC13ZWlnaHQ9ImJvbGQiIGxlbmd0aEFkanVzdD0ic3BhY2luZyIgdGV4dExlbmd0aD0iNjQiIHg9IjUiIHk9Ijc0LjgxMjUiPkBzdGFydHVtbDwvdGV4dD48dGV4dCBmaWxsPSIjMzNGRjAyIiBmb250LWZhbWlseT0ic2Fucy1zZXJpZiIgZm9udC1zaXplPSIxNCIgZm9udC13ZWlnaHQ9ImJvbGQiIGxlbmd0aEFkanVzdD0ic3BhY2luZyIgdGV4dExlbmd0aD0iOTgiIHg9IjUiIHk9Ijg5Ljc5NjkiPnwmIzI5OTkyOyYjMjUxNDM7JiMzMTY0OTsmIzI5NzAyOyYjMjcxNjk7JiMyMjM1OTt8PC90ZXh0Pjx0ZXh0IGZpbGw9IiMzM0ZGMDIiIGZvbnQtZmFtaWx5PSJzYW5zLXNlcmlmIiBmb250LXNpemU9IjE0IiBmb250LXdlaWdodD0iYm9sZCIgbGVuZ3RoQWRqdXN0PSJzcGFjaW5nIiB0ZXh0TGVuZ3RoPSIzNSIgeD0iNSIgeT0iMTA0Ljc4MTMiPnN0YXJ0PC90ZXh0Pjx0ZXh0IGZpbGw9IiMzM0ZGMDIiIGZvbnQtZmFtaWx5PSJzYW5zLXNlcmlmIiBmb250LXNpemU9IjE0IiBmb250LXdlaWdodD0iYm9sZCIgbGVuZ3RoQWRqdXN0PSJzcGFjaW5nIiB0ZXh0TGVuZ3RoPSI3MSIgeD0iNSIgeT0iMTE5Ljc2NTYiPjomIzI5OTkyOyYjMjUxNDM7JiMyNzg4MDsmIzIwODc2Ozs8L3RleHQ+PHRleHQgZmlsbD0iIzMzRkYwMiIgZm9udC1mYW1pbHk9InNhbnMtc2VyaWYiIGZvbnQtc2l6ZT0iMTQiIGZvbnQtd2VpZ2h0PSJib2xkIiBsZW5ndGhBZGp1c3Q9InNwYWNpbmciIHRleHRMZW5ndGg9Ijk5IiB4PSI1IiB5PSIxMzQuNzUiPjomIzIyNjM1OyYjMjA4ODk7JiMyMDAxMDsmIzIwMTU0OyYjMjA0NDk7JiMyNDY4Nzs7PC90ZXh0Pjx0ZXh0IGZpbGw9IiMzM0ZGMDIiIGZvbnQtZmFtaWx5PSJzYW5zLXNlcmlmIiBmb250LXNpemU9IjE0IiBmb250LXdlaWdodD0iYm9sZCIgbGVuZ3RoQWRqdXN0PSJzcGFjaW5nIiB0ZXh0TGVuZ3RoPSI5OSIgeD0iNSIgeT0iMTQ5LjczNDQiPjomIzI1NTUyOyYjMjAxMzI7JiMyNzg4MDsmIzIwODc2OyYjMjA0NDk7JiMyNDY4Nzs7PC90ZXh0Pjx0ZXh0IGZpbGw9IiMzM0ZGMDIiIGZvbnQtZmFtaWx5PSJzYW5zLXNlcmlmIiBmb250LXNpemU9IjE0IiBmb250LXdlaWdodD0iYm9sZCIgbGVuZ3RoQWRqdXN0PSJzcGFjaW5nIiB0ZXh0TGVuZ3RoPSI3MSIgeD0iNSIgeT0iMTY0LjcxODgiPjomIzI3ODgwOyYjMjA4NzY7JiMyNTEwNDsmIzIxMTUxOzs8L3RleHQ+PHRleHQgZmlsbD0iIzMzRkYwMiIgZm9udC1mYW1pbHk9InNhbnMtc2VyaWYiIGZvbnQtc2l6ZT0iMTQiIGZvbnQtd2VpZ2h0PSJib2xkIiBsZW5ndGhBZGp1c3Q9InNwYWNpbmciIHRleHQtZGVjb3JhdGlvbj0id2F2eSB1bmRlcmxpbmUiIHRleHRMZW5ndGg9IjI1OSIgeD0iNSIgeT0iMTc5LjcwMzEiPnwmIzI5OTkyOyYjMjUxNDM7JiMzMTY0OTsmIzI5NzAyOyYjMjcxNjk7JiMyMjM1OTt8IC0tJmd0OyB8JiMzNTc4MDsmIzIwMjE1OyYjMjU5Njg7JiMyNTQ1NDsmIzMxNjQ5OyYjMjk3MDI7JiMyNzE2OTsmIzIyMzU5O3w8L3RleHQ+PHRleHQgZmlsbD0iI0ZGMDAwMCIgZm9udC1mYW1pbHk9InNhbnMtc2VyaWYiIGZvbnQtc2l6ZT0iMTQiIGZvbnQtd2VpZ2h0PSJib2xkIiBsZW5ndGhBZGp1c3Q9InNwYWNpbmciIHRleHRMZW5ndGg9IjkxIiB4PSIxMiIgeT0iMTk0LjY4NzUiPlN5bnRheCBFcnJvcj88L3RleHQ+PCEtLVNSQz1bWkxGUkppOTA0N3RkQV9XMVZnMURfMVNKVlZMMVVVbUJOV2ZNNloyMElCWXE5S0tSWklxOTZoM0J2TVRzUGlqVk1Ca2JmU3RNLTNYZFBpdXZFcGtaaUF3M1pJTHBCVFBNcVI1V3Q1VEFMek5Kb3NmOXVZYlNFQTBzdlA4NHJaa2UweGZ3ZXh2RlRuUk1sMTM0TGZsd0RnejltSVo0SFhpcUdvdWYwZWJvZk45SUxXQmxiZjhiemtRZWtyYTdpSk9SNERacV9hN25MTUZFR3o5Q1RvdnNseTVKY0xjSjNzN00tNV9RdUF0WFJkUFNhOTNhRzZZTy11NlQwejQ4VXdUUGk1WUVGbUVSVEpKaE1IejJLQzhiMFN0YWdTSE00ZDkzSVNZajc0OEhPVjRLblFGYjduNmNjRi1Rb2FIQjQ4RTdDUjJrNE11MDlzNmFXdkVIQkVHeVRpM2hlQTdZZjl0cDhLZjlOOG8zWUlHWkhrMVFDRG02YlhFUnNtd3ZMeGYtWGtPSjQzem1lLXp4cjhBRjV4aElXdGlsNkxBWDczVkE1WUdJc0JBRGNyV0tXSDhGdW9DUXQtbTdsblBaQ0FnN3JkTnUwNWRPVllvNl9IZGktaGRiQTR3NTZsRm1RaDJacXlzODV3SWhhMDZCSU94YjZWYjRwU3U5UHE0OXgzZWJjX0c0UWJFbXpWSEN6N2d1NlJuSDVaOTRVa1NOUHB5MF0tLT48L2c+PC9zdmc+;" vertex="1" parent="1">
            <mxGeometry x="670" y="-130" width="804.95" height="600" as="geometry" />
          </mxCell>
        </UserObject>
        <UserObject label="" plantUmlData="{&#xa;  &quot;data&quot;: &quot;@startuml\nleft to right direction\n\nrectangle \&quot;用户管理模块\&quot; {\n  (注册)\n  (登录)\n  (修改密码)\n  (修改个人信息)\n}\n\nrectangle \&quot;评价数据管理模块\&quot; {\n  (数据导入)\n  (数据修改)\n  (数据删除)\n  (数据查询)\n}\n\nrectangle \&quot;指标管理模块\&quot; {\n  (指标添加)\n  (指标修改)\n  (指标删除)\n  (指标查询)\n}\n\nrectangle \&quot;评价流程模块\&quot; {\n  (指标评级)\n  (评价结果生成)\n}\n\nrectangle \&quot;评价结果分析模块\&quot; {\n  (数据分析)\n  (指标优化建议)\n  (不良指标告警)\n}\n\nrectangle \&quot;系统设置模块\&quot; {\n  (权限管理)\n  (系统参数设置)\n}\n\nrectangle \&quot;系统日志管理模块\&quot; {\n  (日志记录)\n  (日志查询)\n}\n\nrectangle \&quot;系统维护模块\&quot; {\n  (数据备份)\n  (数据恢复)\n  (系统更新)\n}\n\nrectangle \&quot;智能评价系统\&quot; {\n  用户管理模块 --&gt; 评价数据管理模块\n  评价数据管理模块 --&gt; 指标管理模块\n  指标管理模块 --&gt; 评价流程模块\n  评价流程模块 --&gt; 评价结果分析模块\n  评价结果分析模块 --&gt; 系统设置模块\n  系统设置模块 --&gt; 系统日志管理模块\n  系统日志管理模块 --&gt; 系统维护模块\n}\n\n@enduml\n&quot;,&#xa;  &quot;format&quot;: &quot;svg&quot;&#xa;}" id="lj0ikvdqPGdOUn9qGZUp-23">
          <mxCell style="shape=image;noLabel=1;verticalAlign=top;aspect=fixed;imageAspect=0;image=data:image/svg+xml,PD94bWwgdmVyc2lvbj0iMS4wIiBlbmNvZGluZz0idXMtYXNjaWkiIHN0YW5kYWxvbmU9Im5vIj8+PHN2ZyB4bWxucz0iaHR0cDovL3d3dy53My5vcmcvMjAwMC9zdmciIHhtbG5zOnhsaW5rPSJodHRwOi8vd3d3LnczLm9yZy8xOTk5L3hsaW5rIiBjb250ZW50U3R5bGVUeXBlPSJ0ZXh0L2NzcyIgaGVpZ2h0PSI5MThweCIgcHJlc2VydmVBc3BlY3RSYXRpbz0ibm9uZSIgc3R5bGU9IndpZHRoOjE2ODRweDtoZWlnaHQ6OTE4cHg7YmFja2dyb3VuZDojRkZGRkZGOyIgdmVyc2lvbj0iMS4xIiB2aWV3Qm94PSIwIDAgMTY4NCA5MTgiIHdpZHRoPSIxNjg0cHgiIHpvb21BbmRQYW49Im1hZ25pZnkiPjxkZWZzLz48Zz48IS0tY2x1c3RlciA/Pz8/Pz8tLT48ZyBpZD0iY2x1c3Rlcl8mIzI5OTkyOyYjMjUxNDM7JiMzMTY0OTsmIzI5NzAyOyYjMjcxNjk7JiMyMjM1OTsiPjxyZWN0IGZpbGw9Im5vbmUiIGhlaWdodD0iMTc0IiByeD0iMi41IiByeT0iMi41IiBzdHlsZT0ic3Ryb2tlOiMxODE4MTg7c3Ryb2tlLXdpZHRoOjEuMDsiIHdpZHRoPSIzMTkuNSIgeD0iNyIgeT0iMjIxIi8+PHRleHQgZmlsbD0iIzAwMDAwMCIgZm9udC1mYW1pbHk9InNhbnMtc2VyaWYiIGZvbnQtc2l6ZT0iMTQiIGZvbnQtd2VpZ2h0PSJib2xkIiBsZW5ndGhBZGp1c3Q9InNwYWNpbmciIHRleHRMZW5ndGg9Ijg0IiB4PSIxMjQuNzUiIHk9IjIzNi4yMzQ0Ij4mIzI5OTkyOyYjMjUxNDM7JiMzMTY0OTsmIzI5NzAyOyYjMjcxNjk7JiMyMjM1OTs8L3RleHQ+PC9nPjwhLS1jbHVzdGVyID8/Pz8/Pz8/LS0+PGcgaWQ9ImNsdXN0ZXJfJiMzNTc4MDsmIzIwMjE1OyYjMjU5Njg7JiMyNTQ1NDsmIzMxNjQ5OyYjMjk3MDI7JiMyNzE2OTsmIzIyMzU5OyI+PHJlY3QgZmlsbD0ibm9uZSIgaGVpZ2h0PSIxNzQiIHJ4PSIyLjUiIHJ5PSIyLjUiIHN0eWxlPSJzdHJva2U6IzE4MTgxODtzdHJva2Utd2lkdGg6MS4wOyIgd2lkdGg9IjM1MyIgeD0iMTYzLjUiIHk9IjciLz48dGV4dCBmaWxsPSIjMDAwMDAwIiBmb250LWZhbWlseT0ic2Fucy1zZXJpZiIgZm9udC1zaXplPSIxNCIgZm9udC13ZWlnaHQ9ImJvbGQiIGxlbmd0aEFkanVzdD0ic3BhY2luZyIgdGV4dExlbmd0aD0iMTEyIiB4PSIyODQiIHk9IjIyLjIzNDQiPiYjMzU3ODA7JiMyMDIxNTsmIzI1OTY4OyYjMjU0NTQ7JiMzMTY0OTsmIzI5NzAyOyYjMjcxNjk7JiMyMjM1OTs8L3RleHQ+PC9nPjwhLS1jbHVzdGVyID8/Pz8/Py0tPjxnIGlkPSJjbHVzdGVyXyYjMjUzNTE7JiMyNjYzMTsmIzMxNjQ5OyYjMjk3MDI7JiMyNzE2OTsmIzIyMzU5OyI+PHJlY3QgZmlsbD0ibm9uZSIgaGVpZ2h0PSIxNzQiIHJ4PSIyLjUiIHJ5PSIyLjUiIHN0eWxlPSJzdHJva2U6IzE4MTgxODtzdHJva2Utd2lkdGg6MS4wOyIgd2lkdGg9IjM1MyIgeD0iMzY2LjUiIHk9IjIyMSIvPjx0ZXh0IGZpbGw9IiMwMDAwMDAiIGZvbnQtZmFtaWx5PSJzYW5zLXNlcmlmIiBmb250LXNpemU9IjE0IiBmb250LXdlaWdodD0iYm9sZCIgbGVuZ3RoQWRqdXN0PSJzcGFjaW5nIiB0ZXh0TGVuZ3RoPSI4NCIgeD0iNTAxIiB5PSIyMzYuMjM0NCI+JiMyNTM1MTsmIzI2NjMxOyYjMzE2NDk7JiMyOTcwMjsmIzI3MTY5OyYjMjIzNTk7PC90ZXh0PjwvZz48IS0tY2x1c3RlciA/Pz8/Pz8tLT48ZyBpZD0iY2x1c3Rlcl8mIzM1NzgwOyYjMjAyMTU7JiMyNzk2OTsmIzMxMjQzOyYjMjcxNjk7JiMyMjM1OTsiPjxyZWN0IGZpbGw9Im5vbmUiIGhlaWdodD0iMTc3IiByeD0iMi41IiByeT0iMi41IiBzdHlsZT0ic3Ryb2tlOiMxODE4MTg7c3Ryb2tlLXdpZHRoOjEuMDsiIHdpZHRoPSIxNzYiIHg9IjU1Ni41IiB5PSI0MzUiLz48dGV4dCBmaWxsPSIjMDAwMDAwIiBmb250LWZhbWlseT0ic2Fucy1zZXJpZiIgZm9udC1zaXplPSIxNCIgZm9udC13ZWlnaHQ9ImJvbGQiIGxlbmd0aEFkanVzdD0ic3BhY2luZyIgdGV4dExlbmd0aD0iODQiIHg9IjYwMi41IiB5PSI0NTAuMjM0NCI+JiMzNTc4MDsmIzIwMjE1OyYjMjc5Njk7JiMzMTI0MzsmIzI3MTY5OyYjMjIzNTk7PC90ZXh0PjwvZz48IS0tY2x1c3RlciA/Pz8/Pz8/Py0tPjxnIGlkPSJjbHVzdGVyXyYjMzU3ODA7JiMyMDIxNTsmIzMyNDY3OyYjMjY1MjQ7JiMyMDk5ODsmIzI2NTEyOyYjMjcxNjk7JiMyMjM1OTsiPjxyZWN0IGZpbGw9Im5vbmUiIGhlaWdodD0iMTc3IiByeD0iMi41IiByeT0iMi41IiBzdHlsZT0ic3Ryb2tlOiMxODE4MTg7c3Ryb2tlLXdpZHRoOjEuMDsiIHdpZHRoPSIzNjQiIHg9Ijc3Mi41IiB5PSI1MTgiLz48dGV4dCBmaWxsPSIjMDAwMDAwIiBmb250LWZhbWlseT0ic2Fucy1zZXJpZiIgZm9udC1zaXplPSIxNCIgZm9udC13ZWlnaHQ9ImJvbGQiIGxlbmd0aEFkanVzdD0ic3BhY2luZyIgdGV4dExlbmd0aD0iMTEyIiB4PSI4OTguNSIgeT0iNTMzLjIzNDQiPiYjMzU3ODA7JiMyMDIxNTsmIzMyNDY3OyYjMjY1MjQ7JiMyMDk5ODsmIzI2NTEyOyYjMjcxNjk7JiMyMjM1OTs8L3RleHQ+PC9nPjwhLS1jbHVzdGVyID8/Pz8/Py0tPjxnIGlkPSJjbHVzdGVyXyYjMzE5OTU7JiMzMjQ3OTsmIzM1Nzc0OyYjMzI2MjI7JiMyNzE2OTsmIzIyMzU5OyI+PHJlY3QgZmlsbD0ibm9uZSIgaGVpZ2h0PSIxNzciIHJ4PSIyLjUiIHJ5PSIyLjUiIHN0eWxlPSJzdHJva2U6IzE4MTgxODtzdHJva2Utd2lkdGg6MS4wOyIgd2lkdGg9IjE3NiIgeD0iOTYwLjUiIHk9IjczNSIvPjx0ZXh0IGZpbGw9IiMwMDAwMDAiIGZvbnQtZmFtaWx5PSJzYW5zLXNlcmlmIiBmb250LXNpemU9IjE0IiBmb250LXdlaWdodD0iYm9sZCIgbGVuZ3RoQWRqdXN0PSJzcGFjaW5nIiB0ZXh0TGVuZ3RoPSI4NCIgeD0iMTAwNi41IiB5PSI3NTAuMjM0NCI+JiMzMTk5NTsmIzMyNDc5OyYjMzU3NzQ7JiMzMjYyMjsmIzI3MTY5OyYjMjIzNTk7PC90ZXh0PjwvZz48IS0tY2x1c3RlciA/Pz8/Pz8/Py0tPjxnIGlkPSJjbHVzdGVyXyYjMzE5OTU7JiMzMjQ3OTsmIzI2MDg1OyYjMjQ1MzU7JiMzMTY0OTsmIzI5NzAyOyYjMjcxNjk7JiMyMjM1OTsiPjxyZWN0IGZpbGw9Im5vbmUiIGhlaWdodD0iMTc0IiByeD0iMi41IiByeT0iMi41IiBzdHlsZT0ic3Ryb2tlOiMxODE4MTg7c3Ryb2tlLXdpZHRoOjEuMDsiIHdpZHRoPSIxNTAiIHg9IjExNzYuNSIgeT0iNzI0Ii8+PHRleHQgZmlsbD0iIzAwMDAwMCIgZm9udC1mYW1pbHk9InNhbnMtc2VyaWYiIGZvbnQtc2l6ZT0iMTQiIGZvbnQtd2VpZ2h0PSJib2xkIiBsZW5ndGhBZGp1c3Q9InNwYWNpbmciIHRleHRMZW5ndGg9IjExMiIgeD0iMTE5NS41IiB5PSI3MzkuMjM0NCI+JiMzMTk5NTsmIzMyNDc5OyYjMjYwODU7JiMyNDUzNTsmIzMxNjQ5OyYjMjk3MDI7JiMyNzE2OTsmIzIyMzU5OzwvdGV4dD48L2c+PCEtLWNsdXN0ZXIgPz8/Pz8/LS0+PGcgaWQ9ImNsdXN0ZXJfJiMzMTk5NTsmIzMyNDc5OyYjMzI1MDA7JiMyNTI1MjsmIzI3MTY5OyYjMjIzNTk7Ij48cmVjdCBmaWxsPSJub25lIiBoZWlnaHQ9IjE3NCIgcng9IjIuNSIgcnk9IjIuNSIgc3R5bGU9InN0cm9rZTojMTgxODE4O3N0cm9rZS13aWR0aDoxLjA7IiB3aWR0aD0iMzEyIiB4PSIxMzY2LjUiIHk9IjcyNCIvPjx0ZXh0IGZpbGw9IiMwMDAwMDAiIGZvbnQtZmFtaWx5PSJzYW5zLXNlcmlmIiBmb250LXNpemU9IjE0IiBmb250LXdlaWdodD0iYm9sZCIgbGVuZ3RoQWRqdXN0PSJzcGFjaW5nIiB0ZXh0TGVuZ3RoPSI4NCIgeD0iMTQ4MC41IiB5PSI3MzkuMjM0NCI+JiMzMTk5NTsmIzMyNDc5OyYjMzI1MDA7JiMyNTI1MjsmIzI3MTY5OyYjMjIzNTk7PC90ZXh0PjwvZz48ZyBpZD0iZWxlbV8mIzI3ODgwOyYjMjA4NzY7Ij48ZWxsaXBzZSBjeD0iNjIuMjg0MyIgY3k9IjM1Ny4wOTU2IiBmaWxsPSIjRjFGMUYxIiByeD0iMzEuMjg0MyIgcnk9IjEzLjU5NTYiIHN0eWxlPSJzdHJva2U6IzE4MTgxODtzdHJva2Utd2lkdGg6MC41OyIvPjx0ZXh0IGZpbGw9IiMwMDAwMDAiIGZvbnQtZmFtaWx5PSJzYW5zLXNlcmlmIiBmb250LXNpemU9IjE0IiBsZW5ndGhBZGp1c3Q9InNwYWNpbmciIHRleHRMZW5ndGg9IjI4IiB4PSI0OC4yODQzIiB5PSIzNjAuODM3NyI+JiMyNzg4MDsmIzIwODc2OzwvdGV4dD48L2c+PGcgaWQ9ImVsZW1fJiMzMDMzMTsmIzI0NDA1OyI+PGVsbGlwc2UgY3g9IjYyLjI4NDMiIGN5PSIyOTUuMDk1NiIgZmlsbD0iI0YxRjFGMSIgcng9IjMxLjI4NDMiIHJ5PSIxMy41OTU2IiBzdHlsZT0ic3Ryb2tlOiMxODE4MTg7c3Ryb2tlLXdpZHRoOjAuNTsiLz48dGV4dCBmaWxsPSIjMDAwMDAwIiBmb250LWZhbWlseT0ic2Fucy1zZXJpZiIgZm9udC1zaXplPSIxNCIgbGVuZ3RoQWRqdXN0PSJzcGFjaW5nIiB0ZXh0TGVuZ3RoPSIyOCIgeD0iNDguMjg0MyIgeT0iMjk4LjgzNzciPiYjMzAzMzE7JiMyNDQwNTs8L3RleHQ+PC9nPjxnIGlkPSJlbGVtXyYjMjA0NjI7JiMyNTkxMzsmIzIzNDk0OyYjMzA3MjE7Ij48ZWxsaXBzZSBjeD0iMjM4LjU4MzMiIGN5PSIzNTcuMDk1NiIgZmlsbD0iI0YxRjFGMSIgcng9IjUxLjA4MzMiIHJ5PSIxMy41OTU2IiBzdHlsZT0ic3Ryb2tlOiMxODE4MTg7c3Ryb2tlLXdpZHRoOjAuNTsiLz48dGV4dCBmaWxsPSIjMDAwMDAwIiBmb250LWZhbWlseT0ic2Fucy1zZXJpZiIgZm9udC1zaXplPSIxNCIgbGVuZ3RoQWRqdXN0PSJzcGFjaW5nIiB0ZXh0TGVuZ3RoPSI1NiIgeD0iMjEwLjU4MzMiIHk9IjM2MC44Mzc3Ij4mIzIwNDYyOyYjMjU5MTM7JiMyMzQ5NDsmIzMwNzIxOzwvdGV4dD48L2c+PGcgaWQ9ImVsZW1fJiMyMDQ2MjsmIzI1OTEzOyYjMjAwMTA7JiMyMDE1NDsmIzIwNDQ5OyYjMjQ2ODc7Ij48ZWxsaXBzZSBjeD0iMjM4LjM4NzgiIGN5PSIyOTMuMTc3NiIgZmlsbD0iI0YxRjFGMSIgcng9IjYzLjg4NzgiIHJ5PSIxNS4xNzc2IiBzdHlsZT0ic3Ryb2tlOiMxODE4MTg7c3Ryb2tlLXdpZHRoOjAuNTsiLz48dGV4dCBmaWxsPSIjMDAwMDAwIiBmb250LWZhbWlseT0ic2Fucy1zZXJpZiIgZm9udC1zaXplPSIxNCIgbGVuZ3RoQWRqdXN0PSJzcGFjaW5nIiB0ZXh0TGVuZ3RoPSI4NCIgeD0iMTk2LjM4NzgiIHk9IjI5Ni45MTk3Ij4mIzIwNDYyOyYjMjU5MTM7JiMyMDAxMDsmIzIwMTU0OyYjMjA0NDk7JiMyNDY4Nzs8L3RleHQ+PC9nPjxnIGlkPSJlbGVtXyYjMjU5Njg7JiMyNTQ1NDsmIzIzNTQ4OyYjMjA4Mzc7Ij48ZWxsaXBzZSBjeD0iMjM4LjU4MzMiIGN5PSI2Mi4wOTU2IiBmaWxsPSIjRjFGMUYxIiByeD0iNTEuMDgzMyIgcnk9IjEzLjU5NTYiIHN0eWxlPSJzdHJva2U6IzE4MTgxODtzdHJva2Utd2lkdGg6MC41OyIvPjx0ZXh0IGZpbGw9IiMwMDAwMDAiIGZvbnQtZmFtaWx5PSJzYW5zLXNlcmlmIiBmb250LXNpemU9IjE0IiBsZW5ndGhBZGp1c3Q9InNwYWNpbmciIHRleHRMZW5ndGg9IjU2IiB4PSIyMTAuNTgzMyIgeT0iNjUuODM3NyI+JiMyNTk2ODsmIzI1NDU0OyYjMjM1NDg7JiMyMDgzNzs8L3RleHQ+PC9nPjxnIGlkPSJlbGVtXyYjMjU5Njg7JiMyNTQ1NDsmIzIwNDYyOyYjMjU5MTM7Ij48ZWxsaXBzZSBjeD0iMjM4LjU4MzMiIGN5PSIxMjQuMDk1NiIgZmlsbD0iI0YxRjFGMSIgcng9IjUxLjA4MzMiIHJ5PSIxMy41OTU2IiBzdHlsZT0ic3Ryb2tlOiMxODE4MTg7c3Ryb2tlLXdpZHRoOjAuNTsiLz48dGV4dCBmaWxsPSIjMDAwMDAwIiBmb250LWZhbWlseT0ic2Fucy1zZXJpZiIgZm9udC1zaXplPSIxNCIgbGVuZ3RoQWRqdXN0PSJzcGFjaW5nIiB0ZXh0TGVuZ3RoPSI1NiIgeD0iMjEwLjU4MzMiIHk9IjEyNy44Mzc3Ij4mIzI1OTY4OyYjMjU0NTQ7JiMyMDQ2MjsmIzI1OTEzOzwvdGV4dD48L2c+PGcgaWQ9ImVsZW1fJiMyNTk2ODsmIzI1NDU0OyYjMjEwMjQ7JiMzODUwMDsiPjxlbGxpcHNlIGN4PSI0NDEuNTgzMyIgY3k9IjEyNC4wOTU2IiBmaWxsPSIjRjFGMUYxIiByeD0iNTEuMDgzMyIgcnk9IjEzLjU5NTYiIHN0eWxlPSJzdHJva2U6IzE4MTgxODtzdHJva2Utd2lkdGg6MC41OyIvPjx0ZXh0IGZpbGw9IiMwMDAwMDAiIGZvbnQtZmFtaWx5PSJzYW5zLXNlcmlmIiBmb250LXNpemU9IjE0IiBsZW5ndGhBZGp1c3Q9InNwYWNpbmciIHRleHRMZW5ndGg9IjU2IiB4PSI0MTMuNTgzMyIgeT0iMTI3LjgzNzciPiYjMjU5Njg7JiMyNTQ1NDsmIzIxMDI0OyYjMzg1MDA7PC90ZXh0PjwvZz48ZyBpZD0iZWxlbV8mIzI1OTY4OyYjMjU0NTQ7JiMyNjU5NzsmIzM1ODEwOyI+PGVsbGlwc2UgY3g9IjQ0MS41ODMzIiBjeT0iNjIuMDk1NiIgZmlsbD0iI0YxRjFGMSIgcng9IjUxLjA4MzMiIHJ5PSIxMy41OTU2IiBzdHlsZT0ic3Ryb2tlOiMxODE4MTg7c3Ryb2tlLXdpZHRoOjAuNTsiLz48dGV4dCBmaWxsPSIjMDAwMDAwIiBmb250LWZhbWlseT0ic2Fucy1zZXJpZiIgZm9udC1zaXplPSIxNCIgbGVuZ3RoQWRqdXN0PSJzcGFjaW5nIiB0ZXh0TGVuZ3RoPSI1NiIgeD0iNDEzLjU4MzMiIHk9IjY1LjgzNzciPiYjMjU5Njg7JiMyNTQ1NDsmIzI2NTk3OyYjMzU4MTA7PC90ZXh0PjwvZz48ZyBpZD0iZWxlbV8mIzI1MzUxOyYjMjY2MzE7JiMyODE1NTsmIzIxMTUyOyI+PGVsbGlwc2UgY3g9IjQ0MS41ODMzIiBjeT0iMzM4LjA5NTYiIGZpbGw9IiNGMUYxRjEiIHJ4PSI1MS4wODMzIiByeT0iMTMuNTk1NiIgc3R5bGU9InN0cm9rZTojMTgxODE4O3N0cm9rZS13aWR0aDowLjU7Ii8+PHRleHQgZmlsbD0iIzAwMDAwMCIgZm9udC1mYW1pbHk9InNhbnMtc2VyaWYiIGZvbnQtc2l6ZT0iMTQiIGxlbmd0aEFkanVzdD0ic3BhY2luZyIgdGV4dExlbmd0aD0iNTYiIHg9IjQxMy41ODMzIiB5PSIzNDEuODM3NyI+JiMyNTM1MTsmIzI2NjMxOyYjMjgxNTU7JiMyMTE1Mjs8L3RleHQ+PC9nPjxnIGlkPSJlbGVtXyYjMjUzNTE7JiMyNjYzMTsmIzIwNDYyOyYjMjU5MTM7Ij48ZWxsaXBzZSBjeD0iNDQxLjU4MzMiIGN5PSIyNzYuMDk1NiIgZmlsbD0iI0YxRjFGMSIgcng9IjUxLjA4MzMiIHJ5PSIxMy41OTU2IiBzdHlsZT0ic3Ryb2tlOiMxODE4MTg7c3Ryb2tlLXdpZHRoOjAuNTsiLz48dGV4dCBmaWxsPSIjMDAwMDAwIiBmb250LWZhbWlseT0ic2Fucy1zZXJpZiIgZm9udC1zaXplPSIxNCIgbGVuZ3RoQWRqdXN0PSJzcGFjaW5nIiB0ZXh0TGVuZ3RoPSI1NiIgeD0iNDEzLjU4MzMiIHk9IjI3OS44Mzc3Ij4mIzI1MzUxOyYjMjY2MzE7JiMyMDQ2MjsmIzI1OTEzOzwvdGV4dD48L2c+PGcgaWQ9ImVsZW1fJiMyNTM1MTsmIzI2NjMxOyYjMjEwMjQ7JiMzODUwMDsiPjxlbGxpcHNlIGN4PSI2NDQuNTgzMyIgY3k9IjMzOC4wOTU2IiBmaWxsPSIjRjFGMUYxIiByeD0iNTEuMDgzMyIgcnk9IjEzLjU5NTYiIHN0eWxlPSJzdHJva2U6IzE4MTgxODtzdHJva2Utd2lkdGg6MC41OyIvPjx0ZXh0IGZpbGw9IiMwMDAwMDAiIGZvbnQtZmFtaWx5PSJzYW5zLXNlcmlmIiBmb250LXNpemU9IjE0IiBsZW5ndGhBZGp1c3Q9InNwYWNpbmciIHRleHRMZW5ndGg9IjU2IiB4PSI2MTYuNTgzMyIgeT0iMzQxLjgzNzciPiYjMjUzNTE7JiMyNjYzMTsmIzIxMDI0OyYjMzg1MDA7PC90ZXh0PjwvZz48ZyBpZD0iZWxlbV8mIzI1MzUxOyYjMjY2MzE7JiMyNjU5NzsmIzM1ODEwOyI+PGVsbGlwc2UgY3g9IjY0NC41ODMzIiBjeT0iMjc2LjA5NTYiIGZpbGw9IiNGMUYxRjEiIHJ4PSI1MS4wODMzIiByeT0iMTMuNTk1NiIgc3R5bGU9InN0cm9rZTojMTgxODE4O3N0cm9rZS13aWR0aDowLjU7Ii8+PHRleHQgZmlsbD0iIzAwMDAwMCIgZm9udC1mYW1pbHk9InNhbnMtc2VyaWYiIGZvbnQtc2l6ZT0iMTQiIGxlbmd0aEFkanVzdD0ic3BhY2luZyIgdGV4dExlbmd0aD0iNTYiIHg9IjYxNi41ODMzIiB5PSIyNzkuODM3NyI+JiMyNTM1MTsmIzI2NjMxOyYjMjY1OTc7JiMzNTgxMDs8L3RleHQ+PC9nPjxnIGlkPSJlbGVtXyYjMjUzNTE7JiMyNjYzMTsmIzM1NzgwOyYjMzI0MjM7Ij48ZWxsaXBzZSBjeD0iNjQ0LjU4MzMiIGN5PSI0OTAuMDk1NiIgZmlsbD0iI0YxRjFGMSIgcng9IjUxLjA4MzMiIHJ5PSIxMy41OTU2IiBzdHlsZT0ic3Ryb2tlOiMxODE4MTg7c3Ryb2tlLXdpZHRoOjAuNTsiLz48dGV4dCBmaWxsPSIjMDAwMDAwIiBmb250LWZhbWlseT0ic2Fucy1zZXJpZiIgZm9udC1zaXplPSIxNCIgbGVuZ3RoQWRqdXN0PSJzcGFjaW5nIiB0ZXh0TGVuZ3RoPSI1NiIgeD0iNjE2LjU4MzMiIHk9IjQ5My44Mzc3Ij4mIzI1MzUxOyYjMjY2MzE7JiMzNTc4MDsmIzMyNDIzOzwvdGV4dD48L2c+PGcgaWQ9ImVsZW1fJiMzNTc4MDsmIzIwMjE1OyYjMzI0Njc7JiMyNjUyNDsmIzI5OTgzOyYjMjUxMDQ7Ij48ZWxsaXBzZSBjeD0iNjQ0LjM4NzgiIGN5PSI1NTQuMTc3NiIgZmlsbD0iI0YxRjFGMSIgcng9IjYzLjg4NzgiIHJ5PSIxNS4xNzc2IiBzdHlsZT0ic3Ryb2tlOiMxODE4MTg7c3Ryb2tlLXdpZHRoOjAuNTsiLz48dGV4dCBmaWxsPSIjMDAwMDAwIiBmb250LWZhbWlseT0ic2Fucy1zZXJpZiIgZm9udC1zaXplPSIxNCIgbGVuZ3RoQWRqdXN0PSJzcGFjaW5nIiB0ZXh0TGVuZ3RoPSI4NCIgeD0iNjAyLjM4NzgiIHk9IjU1Ny45MTk3Ij4mIzM1NzgwOyYjMjAyMTU7JiMzMjQ2NzsmIzI2NTI0OyYjMjk5ODM7JiMyNTEwNDs8L3RleHQ+PC9nPjxnIGlkPSJlbGVtXyYjMjU5Njg7JiMyNTQ1NDsmIzIwOTk4OyYjMjY1MTI7Ij48ZWxsaXBzZSBjeD0iODYwLjU4MzMiIGN5PSI1NzMuMDk1NiIgZmlsbD0iI0YxRjFGMSIgcng9IjUxLjA4MzMiIHJ5PSIxMy41OTU2IiBzdHlsZT0ic3Ryb2tlOiMxODE4MTg7c3Ryb2tlLXdpZHRoOjAuNTsiLz48dGV4dCBmaWxsPSIjMDAwMDAwIiBmb250LWZhbWlseT0ic2Fucy1zZXJpZiIgZm9udC1zaXplPSIxNCIgbGVuZ3RoQWRqdXN0PSJzcGFjaW5nIiB0ZXh0TGVuZ3RoPSI1NiIgeD0iODMyLjU4MzMiIHk9IjU3Ni44Mzc3Ij4mIzI1OTY4OyYjMjU0NTQ7JiMyMDk5ODsmIzI2NTEyOzwvdGV4dD48L2c+PGcgaWQ9ImVsZW1fJiMyNTM1MTsmIzI2NjMxOyYjMjAyNDg7JiMyMTI3MDsmIzI0MzE0OyYjMzU3NTg7Ij48ZWxsaXBzZSBjeD0iODYwLjM4NzgiIGN5PSI2MzcuMTc3NiIgZmlsbD0iI0YxRjFGMSIgcng9IjYzLjg4NzgiIHJ5PSIxNS4xNzc2IiBzdHlsZT0ic3Ryb2tlOiMxODE4MTg7c3Ryb2tlLXdpZHRoOjAuNTsiLz48dGV4dCBmaWxsPSIjMDAwMDAwIiBmb250LWZhbWlseT0ic2Fucy1zZXJpZiIgZm9udC1zaXplPSIxNCIgbGVuZ3RoQWRqdXN0PSJzcGFjaW5nIiB0ZXh0TGVuZ3RoPSI4NCIgeD0iODE4LjM4NzgiIHk9IjY0MC45MTk3Ij4mIzI1MzUxOyYjMjY2MzE7JiMyMDI0ODsmIzIxMjcwOyYjMjQzMTQ7JiMzNTc1ODs8L3RleHQ+PC9nPjxnIGlkPSJlbGVtXyYjMTk5ODE7JiMzMzM5MTsmIzI1MzUxOyYjMjY2MzE7JiMyMTU3ODsmIzM1Njg2OyI+PGVsbGlwc2UgY3g9IjEwNDguMzg3OCIgY3k9IjU3NC4xNzc2IiBmaWxsPSIjRjFGMUYxIiByeD0iNjMuODg3OCIgcnk9IjE1LjE3NzYiIHN0eWxlPSJzdHJva2U6IzE4MTgxODtzdHJva2Utd2lkdGg6MC41OyIvPjx0ZXh0IGZpbGw9IiMwMDAwMDAiIGZvbnQtZmFtaWx5PSJzYW5zLXNlcmlmIiBmb250LXNpemU9IjE0IiBsZW5ndGhBZGp1c3Q9InNwYWNpbmciIHRleHRMZW5ndGg9Ijg0IiB4PSIxMDA2LjM4NzgiIHk9IjU3Ny45MTk3Ij4mIzE5OTgxOyYjMzMzOTE7JiMyNTM1MTsmIzI2NjMxOyYjMjE1Nzg7JiMzNTY4Njs8L3RleHQ+PC9nPjxnIGlkPSJlbGVtXyYjMjY0MzU7JiMzODQ4MDsmIzMxNjQ5OyYjMjk3MDI7Ij48ZWxsaXBzZSBjeD0iMTA0OC41ODMzIiBjeT0iNzkwLjA5NTYiIGZpbGw9IiNGMUYxRjEiIHJ4PSI1MS4wODMzIiByeT0iMTMuNTk1NiIgc3R5bGU9InN0cm9rZTojMTgxODE4O3N0cm9rZS13aWR0aDowLjU7Ii8+PHRleHQgZmlsbD0iIzAwMDAwMCIgZm9udC1mYW1pbHk9InNhbnMtc2VyaWYiIGZvbnQtc2l6ZT0iMTQiIGxlbmd0aEFkanVzdD0ic3BhY2luZyIgdGV4dExlbmd0aD0iNTYiIHg9IjEwMjAuNTgzMyIgeT0iNzkzLjgzNzciPiYjMjY0MzU7JiMzODQ4MDsmIzMxNjQ5OyYjMjk3MDI7PC90ZXh0PjwvZz48ZyBpZD0iZWxlbV8mIzMxOTk1OyYjMzI0Nzk7JiMyMTQ0MjsmIzI1OTY4OyYjMzU3NzQ7JiMzMjYyMjsiPjxlbGxpcHNlIGN4PSIxMDQ4LjM4NzgiIGN5PSI4NTQuMTc3NiIgZmlsbD0iI0YxRjFGMSIgcng9IjYzLjg4NzgiIHJ5PSIxNS4xNzc2IiBzdHlsZT0ic3Ryb2tlOiMxODE4MTg7c3Ryb2tlLXdpZHRoOjAuNTsiLz48dGV4dCBmaWxsPSIjMDAwMDAwIiBmb250LWZhbWlseT0ic2Fucy1zZXJpZiIgZm9udC1zaXplPSIxNCIgbGVuZ3RoQWRqdXN0PSJzcGFjaW5nIiB0ZXh0TGVuZ3RoPSI4NCIgeD0iMTAwNi4zODc4IiB5PSI4NTcuOTE5NyI+JiMzMTk5NTsmIzMyNDc5OyYjMjE0NDI7JiMyNTk2ODsmIzM1Nzc0OyYjMzI2MjI7PC90ZXh0PjwvZz48ZyBpZD0iZWxlbV8mIzI2MDg1OyYjMjQ1MzU7JiMzNTc2MDsmIzI0NDA1OyI+PGVsbGlwc2UgY3g9IjEyNTEuNTgzMyIgY3k9Ijc3OS4wOTU2IiBmaWxsPSIjRjFGMUYxIiByeD0iNTEuMDgzMyIgcnk9IjEzLjU5NTYiIHN0eWxlPSJzdHJva2U6IzE4MTgxODtzdHJva2Utd2lkdGg6MC41OyIvPjx0ZXh0IGZpbGw9IiMwMDAwMDAiIGZvbnQtZmFtaWx5PSJzYW5zLXNlcmlmIiBmb250LXNpemU9IjE0IiBsZW5ndGhBZGp1c3Q9InNwYWNpbmciIHRleHRMZW5ndGg9IjU2IiB4PSIxMjIzLjU4MzMiIHk9Ijc4Mi44Mzc3Ij4mIzI2MDg1OyYjMjQ1MzU7JiMzNTc2MDsmIzI0NDA1OzwvdGV4dD48L2c+PGcgaWQ9ImVsZW1fJiMyNjA4NTsmIzI0NTM1OyYjMjY1OTc7JiMzNTgxMDsiPjxlbGxpcHNlIGN4PSIxMjUxLjU4MzMiIGN5PSI4NDEuMDk1NiIgZmlsbD0iI0YxRjFGMSIgcng9IjUxLjA4MzMiIHJ5PSIxMy41OTU2IiBzdHlsZT0ic3Ryb2tlOiMxODE4MTg7c3Ryb2tlLXdpZHRoOjAuNTsiLz48dGV4dCBmaWxsPSIjMDAwMDAwIiBmb250LWZhbWlseT0ic2Fucy1zZXJpZiIgZm9udC1zaXplPSIxNCIgbGVuZ3RoQWRqdXN0PSJzcGFjaW5nIiB0ZXh0TGVuZ3RoPSI1NiIgeD0iMTIyMy41ODMzIiB5PSI4NDQuODM3NyI+JiMyNjA4NTsmIzI0NTM1OyYjMjY1OTc7JiMzNTgxMDs8L3RleHQ+PC9nPjxnIGlkPSJlbGVtXyYjMjU5Njg7JiMyNTQ1NDsmIzIyNzkxOyYjMjAyMjE7Ij48ZWxsaXBzZSBjeD0iMTQ0MS41ODMzIiBjeT0iODQxLjA5NTYiIGZpbGw9IiNGMUYxRjEiIHJ4PSI1MS4wODMzIiByeT0iMTMuNTk1NiIgc3R5bGU9InN0cm9rZTojMTgxODE4O3N0cm9rZS13aWR0aDowLjU7Ii8+PHRleHQgZmlsbD0iIzAwMDAwMCIgZm9udC1mYW1pbHk9InNhbnMtc2VyaWYiIGZvbnQtc2l6ZT0iMTQiIGxlbmd0aEFkanVzdD0ic3BhY2luZyIgdGV4dExlbmd0aD0iNTYiIHg9IjE0MTMuNTgzMyIgeT0iODQ0LjgzNzciPiYjMjU5Njg7JiMyNTQ1NDsmIzIyNzkxOyYjMjAyMjE7PC90ZXh0PjwvZz48ZyBpZD0iZWxlbV8mIzI1OTY4OyYjMjU0NTQ7JiMyNDY3NDsmIzIyNzk3OyI+PGVsbGlwc2UgY3g9IjE0NDEuNTgzMyIgY3k9Ijc3OS4wOTU2IiBmaWxsPSIjRjFGMUYxIiByeD0iNTEuMDgzMyIgcnk9IjEzLjU5NTYiIHN0eWxlPSJzdHJva2U6IzE4MTgxODtzdHJva2Utd2lkdGg6MC41OyIvPjx0ZXh0IGZpbGw9IiMwMDAwMDAiIGZvbnQtZmFtaWx5PSJzYW5zLXNlcmlmIiBmb250LXNpemU9IjE0IiBsZW5ndGhBZGp1c3Q9InNwYWNpbmciIHRleHRMZW5ndGg9IjU2IiB4PSIxNDEzLjU4MzMiIHk9Ijc4Mi44Mzc3Ij4mIzI1OTY4OyYjMjU0NTQ7JiMyNDY3NDsmIzIyNzk3OzwvdGV4dD48L2c+PGcgaWQ9ImVsZW1fJiMzMTk5NTsmIzMyNDc5OyYjMjYzNTY7JiMyNjAzMjsiPjxlbGxpcHNlIGN4PSIxNjAzLjU4MzMiIGN5PSI4NDEuMDk1NiIgZmlsbD0iI0YxRjFGMSIgcng9IjUxLjA4MzMiIHJ5PSIxMy41OTU2IiBzdHlsZT0ic3Ryb2tlOiMxODE4MTg7c3Ryb2tlLXdpZHRoOjAuNTsiLz48dGV4dCBmaWxsPSIjMDAwMDAwIiBmb250LWZhbWlseT0ic2Fucy1zZXJpZiIgZm9udC1zaXplPSIxNCIgbGVuZ3RoQWRqdXN0PSJzcGFjaW5nIiB0ZXh0TGVuZ3RoPSI1NiIgeD0iMTU3NS41ODMzIiB5PSI4NDQuODM3NyI+JiMzMTk5NTsmIzMyNDc5OyYjMjYzNTY7JiMyNjAzMjs8L3RleHQ+PC9nPjwhLS1lbnRpdHkgPz8/Pz8/LS0+PGcgaWQ9ImVsZW1fJiMyNjIzNDsmIzMzMDIxOyYjMzU3ODA7JiMyMDIxNTsmIzMxOTk1OyYjMzI0Nzk7Ij48cmVjdCBmaWxsPSIjRjFGMUYxIiBoZWlnaHQ9IjM0Ljk4NDQiIHJ4PSIyLjUiIHJ5PSIyLjUiIHN0eWxlPSJzdHJva2U6IzE4MTgxODtzdHJva2Utd2lkdGg6MC41OyIgd2lkdGg9IjEwNCIgeD0iMTAuNSIgeT0iMTYxLjUiLz48dGV4dCBmaWxsPSIjMDAwMDAwIiBmb250LWZhbWlseT0ic2Fucy1zZXJpZiIgZm9udC1zaXplPSIxNCIgbGVuZ3RoQWRqdXN0PSJzcGFjaW5nIiB0ZXh0TGVuZ3RoPSI4NCIgeD0iMjAuNSIgeT0iMTg0LjczNDQiPiYjMjYyMzQ7JiMzMzAyMTsmIzM1NzgwOyYjMjAyMTU7JiMzMTk5NTsmIzMyNDc5OzwvdGV4dD48L2c+PCEtLWxpbmsgPz8/Pz8/IHRvID8/Pz8/Pz8/LS0+PGcgaWQ9ImxpbmtfJiMyOTk5MjsmIzI1MTQzOyYjMzE2NDk7JiMyOTcwMjsmIzI3MTY5OyYjMjIzNTk7XyYjMzU3ODA7JiMyMDIxNTsmIzI1OTY4OyYjMjU0NTQ7JiMzMTY0OTsmIzI5NzAyOyYjMjcxNjk7JiMyMjM1OTsiPjxwYXRoIGQ9Ik0xMjMuMjgyNSwyMjAuOTE3NyBDMTI0LjU0MDcsMjIwLjM4OTggMTI1LjgwNzMsMjE5Ljg1ODQgMTI3LjA4MTEsMjE5LjMyMzkgQzEyOS42Mjg4LDIxOC4yNTQ5IDEzMi4yMDU1LDIxNy4xNzM5IDEzNC44MDE0LDIxNi4wODQ3IEMxMzkuOTkzMywyMTMuOTA2MyAxNDUuMjYyMywyMTEuNjk1NiAxNTAuNTMxMywyMDkuNDg1IEMxNzEuNjA2OSwyMDAuNjQyNSAxOTIuNjgwMywxOTEuODAxMyAyMDguODA0MiwxODUuMDM2OSBDMjEwLjgxOTcsMTg0LjE5MTMgMjEyLjc1NzksMTgzLjM3ODIgMjE0LjYwOSwxODIuNjAxNiBDMjE1LjUzNDYsMTgyLjIxMzMgMjE2LjQzODQsMTgxLjgzNDIgMjE3LjMxOTMsMTgxLjQ2NDYgQzIxNy41Mzk1LDE4MS4zNzIzIDIxNy43NTgzLDE4MS4yODA1IDIxNy45NzU2LDE4MS4xODkzIEMyMTguMDg0MywxODEuMTQzNyAyMTguMTkyNiwxODEuMDk4MyAyMTguMzAwNSwxODEuMDUzICIgZmlsbD0ibm9uZSIgaWQ9IiYjMjk5OTI7JiMyNTE0MzsmIzMxNjQ5OyYjMjk3MDI7JiMyNzE2OTsmIzIyMzU5Oy10by0mIzM1NzgwOyYjMjAyMTU7JiMyNTk2ODsmIzI1NDU0OyYjMzE2NDk7JiMyOTcwMjsmIzI3MTY5OyYjMjIzNTk7IiBzdHlsZT0ic3Ryb2tlOiMxODE4MTg7c3Ryb2tlLXdpZHRoOjEuMDsiLz48cG9seWdvbiBmaWxsPSIjMTgxODE4IiBwb2ludHM9IjIxOC4zMDA1LDE4MS4wNTMsMjA4LjQ1MzgsMTgwLjg0NjEsMjEzLjY4OTgsMTgyLjk4NzMsMjExLjU0ODYsMTg4LjIyMzIsMjE4LjMwMDUsMTgxLjA1MyIgc3R5bGU9InN0cm9rZTojMTgxODE4O3N0cm9rZS13aWR0aDoxLjA7Ii8+PC9nPjwhLS1saW5rID8/Pz8/Pz8/IHRvID8/Pz8/Py0tPjxnIGlkPSJsaW5rXyYjMzU3ODA7JiMyMDIxNTsmIzI1OTY4OyYjMjU0NTQ7JiMzMTY0OTsmIzI5NzAyOyYjMjcxNjk7JiMyMjM1OTtfJiMyNTM1MTsmIzI2NjMxOyYjMzE2NDk7JiMyOTcwMjsmIzI3MTY5OyYjMjIzNTk7Ij48cGF0aCBkPSJNMjU1LjA2OTEsMTgxLjE0NSBDMjU1LjMyMzUsMTgxLjI4ODMgMjU1LjU4MDIsMTgxLjQzMzMgMjU1LjgzOTMsMTgxLjU4MDIgQzI1Ni44NzU2LDE4Mi4xNjc2IDI1Ny45NDkyLDE4Mi43ODM3IDI1OS4wNTY1LDE4My40MjggQzI2MS4yNzEsMTg0LjcxNjYgMjYzLjYyMDIsMTg2LjExODEgMjY2LjA3NTIsMTg3LjYyODggQzI3MC45ODUyLDE5MC42NTAyIDI3Ni4zMTgxLDE5NC4xMDg0IDI4MS44NDI1LDE5Ny45NzM4IEMzMDMuOTQsMjEzLjQzNSAzMjkuMSwyMzUuNDEgMzQyLjUsMjYyIEMzNTMuMTMsMjgzLjEgMzM0Ljk0LDM1MC4yMyAzNTAuNSwzNjggQzM1My44MTM4LDM3MS43ODUgMzU3LjY3NDcsMzc0LjkyNjMgMzYxLjg5OCwzNzcuNTI0OSBDMzYyLjk1MzgsMzc4LjE3NDUgMzY0LjAzMjMsMzc4Ljc5MDMgMzY1LjEzMDUsMzc5LjM3MzcgQzM2NS40MDUsMzc5LjUxOTUgMzY1LjY4MDgsMzc5LjY2MzMgMzY1Ljk1NzgsMzc5LjgwNTIgQzM2Ni4wOTYzLDM3OS44NzYxIDM2Ni4yMzUxLDM3OS45NDY1IDM2Ni4zNzQyLDM4MC4wMTY0ICIgZmlsbD0ibm9uZSIgaWQ9IiYjMzU3ODA7JiMyMDIxNTsmIzI1OTY4OyYjMjU0NTQ7JiMzMTY0OTsmIzI5NzAyOyYjMjcxNjk7JiMyMjM1OTstdG8tJiMyNTM1MTsmIzI2NjMxOyYjMzE2NDk7JiMyOTcwMjsmIzI3MTY5OyYjMjIzNTk7IiBzdHlsZT0ic3Ryb2tlOiMxODE4MTg7c3Ryb2tlLXdpZHRoOjEuMDsiLz48cG9seWdvbiBmaWxsPSIjMTgxODE4IiBwb2ludHM9IjM2Ni4zNzQyLDM4MC4wMTY0LDM2MC4xMjk5LDM3Mi40MDAxLDM2MS45MDY5LDM3Ny43NzA2LDM1Ni41MzY1LDM3OS41NDc2LDM2Ni4zNzQyLDM4MC4wMTY0IiBzdHlsZT0ic3Ryb2tlOiMxODE4MTg7c3Ryb2tlLXdpZHRoOjEuMDsiLz48L2c+PCEtLWxpbmsgPz8/Pz8/IHRvID8/Pz8/Py0tPjxnIGlkPSJsaW5rXyYjMjUzNTE7JiMyNjYzMTsmIzMxNjQ5OyYjMjk3MDI7JiMyNzE2OTsmIzIyMzU5O18mIzM1NzgwOyYjMjAyMTU7JiMyNzk2OTsmIzMxMjQzOyYjMjcxNjk7JiMyMjM1OTsiPjxwYXRoIGQ9Ik00NDMuODgyNiwzOTUuMjM2NSBDNDQzLjkzMzMsMzk1LjUxMzEgNDQzLjk4NTUsMzk1Ljc5NTkgNDQ0LjAzOTIsMzk2LjA4NSBDNDQ0LjE0NjYsMzk2LjY2MzEgNDQ0LjI2MDEsMzk3LjI2NjIgNDQ0LjM3OTgsMzk3Ljg5MzMgQzQ0NC42MTkyLDM5OS4xNDc1IDQ0NC44ODM1LDQwMC40OTgxIDQ0NS4xNzM3LDQwMS45Mzg2IEM0NDUuNzU0Miw0MDQuODE5NyA0NDYuNDM4Niw0MDguMDYwNyA0NDcuMjM2MSw0MTEuNjEwOCBDNDUwLjQyNTksNDI1LjgxMDkgNDU1LjQyNDQsNDQ0Ljk1NTYgNDYyLjgxMzcsNDY1Ljc4ODggQzQ3Ny41OTI1LDUwNy40NTUgNTAxLjkzNSw1NTUuODc1IDU0MC41LDU4NSBDNTQ1LjA3MTMsNTg4LjQ1MTMgNTUwLjA3Nyw1OTEuMzQwOCA1NTUuMzQxMiw1OTMuNzU0NiBDNTU1LjY3MDIsNTkzLjkwNTUgNTU2LjAwMDIsNTk0LjA1NDUgNTU2LjMzMTIsNTk0LjIwMTYgIiBmaWxsPSJub25lIiBpZD0iJiMyNTM1MTsmIzI2NjMxOyYjMzE2NDk7JiMyOTcwMjsmIzI3MTY5OyYjMjIzNTk7LXRvLSYjMzU3ODA7JiMyMDIxNTsmIzI3OTY5OyYjMzEyNDM7JiMyNzE2OTsmIzIyMzU5OyIgc3R5bGU9InN0cm9rZTojMTgxODE4O3N0cm9rZS13aWR0aDoxLjA7Ii8+PHBvbHlnb24gZmlsbD0iIzE4MTgxOCIgcG9pbnRzPSI1NTYuMzMxMiw1OTQuMjAxNiw1NDkuNzMyNiw1ODYuODkwMSw1NTEuNzYyNSw1OTIuMTcwMiw1NDYuNDgyMyw1OTQuMjAwMSw1NTYuMzMxMiw1OTQuMjAxNiIgc3R5bGU9InN0cm9rZTojMTgxODE4O3N0cm9rZS13aWR0aDoxLjA7Ii8+PC9nPjwhLS1saW5rID8/Pz8/PyB0byA/Pz8/Pz8/Py0tPjxnIGlkPSJsaW5rXyYjMzU3ODA7JiMyMDIxNTsmIzI3OTY5OyYjMzEyNDM7JiMyNzE2OTsmIzIyMzU5O18mIzM1NzgwOyYjMjAyMTU7JiMzMjQ2NzsmIzI2NTI0OyYjMjA5OTg7JiMyNjUxMjsmIzI3MTY5OyYjMjIzNTk7Ij48cGF0aCBkPSJNNjU2LjU0NjksNjEyLjEwNTggQzY1Ni43NDU1LDYxMi4yNDczIDY1Ni45NDY1LDYxMi4zOTAzIDY1Ny4xNDk4LDYxMi41MzQ3IEM2NjMuNjU1OSw2MTcuMTU2MyA2NzIuNTQ5NCw2MjMuMjcxMyA2ODIuOTUzOCw2MjkuOSBDNzAzLjc2MjUsNjQzLjE1NzUgNzMwLjYxNSw2NTguNDcgNzU2LjUsNjY4IEM3NTkuMTg3NSw2NjguOTg5NCA3NjEuOTM0Miw2NjkuOTI4OSA3NjQuNzIyNiw2NzAuODIxMSBDNzY2LjExNjgsNjcxLjI2NzIgNzY3LjUyMTQsNjcxLjcwMTQgNzY4LjkzNDMsNjcyLjEyNCBDNzY5LjY0MDcsNjcyLjMzNTQgNzcwLjM0OTMsNjcyLjU0MzggNzcxLjA1OTUsNjcyLjc0OTQgQzc3MS40MTQ3LDY3Mi44NTIyIDc3MS43NzAzLDY3Mi45NTQzIDc3Mi4xMjYzLDY3My4wNTU3ICIgZmlsbD0ibm9uZSIgaWQ9IiYjMzU3ODA7JiMyMDIxNTsmIzI3OTY5OyYjMzEyNDM7JiMyNzE2OTsmIzIyMzU5Oy10by0mIzM1NzgwOyYjMjAyMTU7JiMzMjQ2NzsmIzI2NTI0OyYjMjA5OTg7JiMyNjUxMjsmIzI3MTY5OyYjMjIzNTk7IiBzdHlsZT0ic3Ryb2tlOiMxODE4MTg7c3Ryb2tlLXdpZHRoOjEuMDsiLz48cG9seWdvbiBmaWxsPSIjMTgxODE4IiBwb2ludHM9Ijc3Mi4xMjYzLDY3My4wNTU3LDc2NC41NjU4LDY2Ni43NDM4LDc2Ny4zMTc1LDY3MS42ODYzLDc2Mi4zNzQ5LDY3NC40MzgsNzcyLjEyNjMsNjczLjA1NTciIHN0eWxlPSJzdHJva2U6IzE4MTgxODtzdHJva2Utd2lkdGg6MS4wOyIvPjwvZz48IS0tbGluayA/Pz8/Pz8/PyB0byA/Pz8/Pz8tLT48ZyBpZD0ibGlua18mIzM1NzgwOyYjMjAyMTU7JiMzMjQ2NzsmIzI2NTI0OyYjMjA5OTg7JiMyNjUxMjsmIzI3MTY5OyYjMjIzNTk7XyYjMzE5OTU7JiMzMjQ3OTsmIzM1Nzc0OyYjMzI2MjI7JiMyNzE2OTsmIzIyMzU5OyI+PHBhdGggZD0iTTg2Mi4yMzk5LDY5NS4xOTkzIEM4NjIuMjY4OCw2OTUuNDc0NiA4NjIuMjk4Nyw2OTUuNzU2MyA4NjIuMzI5Nyw2OTYuMDQ0MSBDODYyLjM5MTYsNjk2LjYxOTcgODYyLjQ1NzcsNjk3LjIyMDIgODYyLjUyODEsNjk3Ljg0NDYgQzg2Mi42Njg5LDY5OS4wOTM1IDg2Mi44MjcxLDcwMC40MzgzIDg2My4wMDQzLDcwMS44NzI5IEM4NjMuMzU4Niw3MDQuNzQyMSA4NjMuNzg4OSw3MDcuOTcwMiA4NjQuMzA4Niw3MTEuNTA2NyBDODY2LjM4NzIsNzI1LjY1MjggODY5Ljg5NDQsNzQ0LjczNDQgODc1LjY3ODcsNzY1LjUyNjIgQzg4Ny4yNDc1LDgwNy4xMSA5MDcuOTI1LDg1NS41MzUgOTQ0LjUsODg1IEM5NDguOTYsODg4LjU5MzggOTUzLjg4MTksODkxLjU5MDggOTU5LjA4NDQsODk0LjA4MzUgQzk1OS40MDk2LDg5NC4yMzkzIDk1OS43MzU4LDg5NC4zOTMyIDk2MC4wNjMyLDg5NC41NDUgIiBmaWxsPSJub25lIiBpZD0iJiMzNTc4MDsmIzIwMjE1OyYjMzI0Njc7JiMyNjUyNDsmIzIwOTk4OyYjMjY1MTI7JiMyNzE2OTsmIzIyMzU5Oy10by0mIzMxOTk1OyYjMzI0Nzk7JiMzNTc3NDsmIzMyNjIyOyYjMjcxNjk7JiMyMjM1OTsiIHN0eWxlPSJzdHJva2U6IzE4MTgxODtzdHJva2Utd2lkdGg6MS4wOyIvPjxwb2x5Z29uIGZpbGw9IiMxODE4MTgiIHBvaW50cz0iOTYwLjA2MzIsODk0LjU0NSw5NTMuNTgyOSw4ODcuMTI4NCw5NTUuNTI3Nyw4OTIuNDQwNCw5NTAuMjE1Niw4OTQuMzg1Miw5NjAuMDYzMiw4OTQuNTQ1IiBzdHlsZT0ic3Ryb2tlOiMxODE4MTg7c3Ryb2tlLXdpZHRoOjEuMDsiLz48L2c+PCEtLWxpbmsgPz8/Pz8/IHRvID8/Pz8/Pz8/LS0+PGcgaWQ9ImxpbmtfJiMzMTk5NTsmIzMyNDc5OyYjMzU3NzQ7JiMzMjYyMjsmIzI3MTY5OyYjMjIzNTk7XyYjMzE5OTU7JiMzMjQ3OTsmIzI2MDg1OyYjMjQ1MzU7JiMzMTY0OTsmIzI5NzAyOyYjMjcxNjk7JiMyMjM1OTsiPjxwYXRoIGQ9Ik0xMTM3LjUxNDMsODk3Ljg2ODYgQzExMzcuODkyMSw4OTcuODQyMyAxMTM4LjI3MDEsODk3LjgxNTkgMTEzOC42NDgzLDg5Ny43ODk2IEMxMTM5LjQwNDgsODk3LjczNjkgMTE0MC4xNjIxLDg5Ny42ODQxIDExNDAuOTIwMiw4OTcuNjMxMyBDMTE0My45NTIzLDg5Ny40MjAyIDExNDYuOTk1NSw4OTcuMjA4MiAxMTUwLjAzODgsODk2Ljk5NjMgQzExNTYuMTI1Miw4OTYuNTcyMyAxMTYyLjIxMTQsODk2LjE0ODUgMTE2OC4yMDgxLDg5NS43MzA4IEMxMTY5LjcwNzMsODk1LjYyNjQgMTE3MS4yMDA5LDg5NS41MjI0IDExNzIuNjg3NSw4OTUuNDE4OCBDMTE3My40MzA5LDg5NS4zNjcxIDExNzQuMTcyNCw4OTUuMzE1NCAxMTc0LjkxMiw4OTUuMjYzOSBDMTE3NS4yODE5LDg5NS4yMzgyIDExNzUuNjUxMiw4OTUuMjEyNCAxMTc2LjAyLDg5NS4xODY3ICIgZmlsbD0ibm9uZSIgaWQ9IiYjMzE5OTU7JiMzMjQ3OTsmIzM1Nzc0OyYjMzI2MjI7JiMyNzE2OTsmIzIyMzU5Oy10by0mIzMxOTk1OyYjMzI0Nzk7JiMyNjA4NTsmIzI0NTM1OyYjMzE2NDk7JiMyOTcwMjsmIzI3MTY5OyYjMjIzNTk7IiBzdHlsZT0ic3Ryb2tlOiMxODE4MTg7c3Ryb2tlLXdpZHRoOjEuMDsiLz48cG9seWdvbiBmaWxsPSIjMTgxODE4IiBwb2ludHM9IjExNzYuMDIsODk1LjE4NjcsMTE2Ni43NjM5LDg5MS44MjE3LDExNzEuMDMyMSw4OTUuNTM0MSwxMTY3LjMxOTcsODk5LjgwMjQsMTE3Ni4wMiw4OTUuMTg2NyIgc3R5bGU9InN0cm9rZTojMTgxODE4O3N0cm9rZS13aWR0aDoxLjA7Ii8+PC9nPjwhLS1saW5rID8/Pz8/Pz8/IHRvID8/Pz8/Py0tPjxnIGlkPSJsaW5rXyYjMzE5OTU7JiMzMjQ3OTsmIzI2MDg1OyYjMjQ1MzU7JiMzMTY0OTsmIzI5NzAyOyYjMjcxNjk7JiMyMjM1OTtfJiMzMTk5NTsmIzMyNDc5OyYjMzI1MDA7JiMyNTI1MjsmIzI3MTY5OyYjMjIzNTk7Ij48cGF0aCBkPSJNMTMyNy40NDAxLDg5MCBDMTMyOC4xMzg1LDg5MCAxMzI4LjgzODQsODkwIDEzMjkuNTM5Niw4OTAgQzEzMzUuMTQ5Miw4OTAgMTM0MC44NDIyLDg5MCAxMzQ2LjUzNSw4OTAgQzEzNTIuMjI3OCw4OTAgMTM1Ny45MjA1LDg5MCAxMzYzLjUyOTQsODkwIEMxMzY0LjIzMDYsODkwIDEzNjQuOTMwNCw4OTAgMTM2NS42Mjg3LDg5MCBDMTM2NS44MDMzLDg5MCAxMzY1Ljk3NzgsODkwIDEzNjYuMTUyMiw4OTAgIiBmaWxsPSJub25lIiBpZD0iJiMzMTk5NTsmIzMyNDc5OyYjMjYwODU7JiMyNDUzNTsmIzMxNjQ5OyYjMjk3MDI7JiMyNzE2OTsmIzIyMzU5Oy10by0mIzMxOTk1OyYjMzI0Nzk7JiMzMjUwMDsmIzI1MjUyOyYjMjcxNjk7JiMyMjM1OTsiIHN0eWxlPSJzdHJva2U6IzE4MTgxODtzdHJva2Utd2lkdGg6MS4wOyIvPjxwb2x5Z29uIGZpbGw9IiMxODE4MTgiIHBvaW50cz0iMTM2Ni4xNTIyLDg5MCwxMzU3LjE1MjIsODg2LDEzNjEuMTUyMiw4OTAsMTM1Ny4xNTIyLDg5NCwxMzY2LjE1MjIsODkwIiBzdHlsZT0ic3Ryb2tlOiMxODE4MTg7c3Ryb2tlLXdpZHRoOjEuMDsiLz48L2c+PCEtLVNSQz1bVExCQkppOTA1RHR0QW9RaXg4OVZ5NS1DOGY4R0kwV3htd0FZMUg0WUhYdUl2UGNZWk9hajJIWW0wXzhwZEpsYkJvbXAyMENweDJSZFNTX1NIcDlzY0tOUERDZWF1YlRQVDk3OG5Dd3BZTkhBcXpRRmlyR3k2S0NITWhFWEVBTEVkclBEaUZrYXRPb1dRbXNYNG5aUm4ycGh3b1RqT1JBZWl3VV9UQTNzR3JvSnpXbTF5NlVWbGtWdm9wdU9oZ3hielg4Mnp6UjdLd1lGZUVBZVNYWDF0M2N2Ni1leFdEU0wwNUJpaExnTTA0MXQ2QlkzbXBHZTV3MU5LRUttMGdRT2I3aHczWDFwNjIzY1M4aW9QekZManE3ajFxTEVJNUZsV3JOWEllZ1ZlVkQ2UXJxZUxqTXJrODhLSlVYS0xIRFlYRlpwLUdpZkRtWnMwaVZYZ3ZYTFdkanRxeUxKQVZYd0Ztb1lPcW5uRHQxLXdTQlBac1pkTHdxZ2RuZlZFTEVJbnZpbWRFbExqUTB2OUNrY1Fqb0MyOXBIXy1MbUczckNOZWxZMlBHaUxVak1tU1NCU1ZONlc1V0x1UUZtRWU3NklCZzViWFZhNXZsZkNYcWxBenl5WWFQRnFSNTMzSHQ3QUVRSkpvdnFvQTJPOFBwRGhoZTAyYmh2QkJPRWNNOC1VU2xoZFlMR3FDZlJ0M2ZhSWwyOTZ6RG9WbTAwXS0tPjwvZz48L3N2Zz4=;" vertex="1" parent="1">
            <mxGeometry x="310" y="1500" width="1376.34" height="750.29" as="geometry" />
          </mxCell>
        </UserObject>
      </root>
    </mxGraphModel>
  </diagram>
</mxfile>
